<?xml version="1.0" encoding="UTF-8" ?>
<!DOCTYPE svg PUBLIC "-//W3C//DTD SVG 1.1//EN" "http://www.w3.org/Graphics/SVG/1.1/DTD/svg11.dtd">
<svg width="535pt" height="349pt" viewBox="0 0 535 349" version="1.1" xmlns="http://www.w3.org/2000/svg">
<g id="#000000ff">
<path fill="#000000" opacity="1.00" d=" M 192.00 12.00 C 208.33 12.00 224.67 12.00 241.00 12.00 C 241.00 21.33 241.00 30.67 241.00 40.00 C 233.00 40.00 225.00 40.00 217.00 40.00 C 217.00 42.00 217.00 44.00 217.00 46.00 C 225.33 46.00 233.66 45.99 242.00 46.00 C 242.00 65.33 242.00 84.67 242.00 104.00 C 259.33 104.01 276.67 103.99 294.00 104.00 C 294.00 117.00 294.00 130.00 294.00 143.00 C 269.67 143.00 245.34 143.00 221.02 143.00 C 221.01 143.75 220.99 145.25 220.98 146.00 C 214.66 146.00 208.34 146.00 202.01 146.00 C 202.01 145.25 201.99 143.75 201.98 143.00 C 178.32 143.00 154.66 143.00 131.00 143.00 C 131.00 110.33 131.00 77.67 131.00 45.00 C 133.66 45.00 136.33 45.00 138.99 45.00 C 139.00 43.67 139.00 42.33 139.01 41.00 C 150.34 41.00 161.67 41.00 173.00 41.00 C 173.00 42.67 173.00 44.33 173.00 46.00 C 182.67 46.00 192.33 46.00 202.00 46.00 C 202.00 44.00 202.00 42.00 202.00 40.00 C 198.67 40.00 195.33 40.00 192.00 40.00 C 192.00 30.67 192.00 21.33 192.00 12.00 Z" />
<path fill="#000000" opacity="1.00" d=" M 364.00 14.00 C 381.00 14.00 398.00 14.00 415.00 14.00 C 415.00 22.67 415.00 31.33 415.00 40.00 C 406.66 40.01 398.33 39.99 390.00 40.00 C 390.00 41.67 390.00 43.33 390.00 45.00 C 402.30 45.00 414.60 44.99 426.90 45.00 C 426.95 44.50 427.05 43.50 427.10 43.00 C 436.72 43.00 446.35 43.00 455.97 43.00 C 455.99 43.81 456.02 45.45 456.03 46.26 C 460.98 46.27 465.94 46.29 470.89 46.23 C 479.52 54.70 488.04 63.29 496.56 71.86 C 497.99 70.45 499.40 69.02 500.83 67.60 C 491.91 58.63 482.94 49.72 474.02 40.76 C 482.89 37.04 492.45 35.29 502.05 35.17 C 510.33 35.79 519.37 37.32 525.35 43.64 C 530.71 48.08 532.75 54.95 535.00 61.26 L 535.00 72.26 C 534.26 80.42 531.33 88.18 529.70 96.19 C 523.65 90.68 518.05 84.71 512.25 78.95 C 510.71 80.26 509.21 81.61 507.70 82.93 C 513.11 88.38 518.55 93.80 523.98 99.22 C 524.01 104.15 523.99 109.07 524.00 113.99 C 525.33 113.99 526.66 114.00 528.00 114.01 C 528.00 123.67 528.00 133.33 528.00 142.98 C 526.66 142.99 525.33 143.00 524.00 143.02 C 524.00 152.34 524.00 161.66 524.00 170.99 C 525.33 170.99 526.66 171.00 528.00 171.01 C 528.00 180.34 528.00 189.66 528.00 198.99 C 526.66 198.99 525.33 199.00 524.00 199.01 C 524.00 203.34 524.00 207.67 524.00 212.00 C 487.67 212.00 451.33 212.00 415.00 212.00 C 414.99 200.33 415.01 188.67 415.00 177.00 C 408.67 177.28 402.21 176.22 396.02 177.90 C 385.02 178.16 374.01 177.92 363.00 178.00 C 363.00 167.00 363.00 156.00 363.00 145.00 C 370.67 144.99 378.33 145.01 386.00 144.99 C 386.00 144.50 386.00 143.50 386.00 143.01 C 378.33 142.99 370.67 143.01 363.00 143.00 C 363.00 110.33 363.00 77.67 363.00 45.00 C 367.00 45.00 371.00 45.00 375.00 45.00 C 374.99 43.33 374.99 41.67 375.00 40.00 C 371.33 40.00 367.67 40.00 364.00 40.00 C 364.00 31.33 364.00 22.67 364.00 14.00 Z" />
<path fill="#000000" opacity="1.00" d=" M 32.01 41.00 C 41.00 41.00 49.99 41.00 58.99 41.00 C 58.99 42.33 59.00 43.67 59.01 45.00 C 66.67 45.00 74.33 45.00 81.99 45.00 C 81.99 43.67 82.00 42.33 82.01 41.00 C 93.34 41.00 104.66 41.00 115.99 41.00 C 115.99 42.33 116.00 43.67 116.01 45.00 C 119.67 45.00 123.33 45.00 127.00 45.00 C 127.01 79.41 126.98 113.81 127.01 148.21 C 129.68 147.87 132.26 146.98 134.96 146.97 C 147.97 147.04 160.99 146.98 174.00 147.00 C 174.00 150.33 174.00 153.67 174.01 157.00 C 174.50 157.00 175.50 157.00 175.99 157.00 C 176.00 153.67 176.00 150.33 176.00 147.00 L 177.00 147.00 C 177.00 157.33 177.00 167.67 177.00 178.00 L 176.00 178.00 C 176.00 174.66 176.00 171.33 175.99 168.00 C 175.50 168.00 174.50 168.00 174.01 168.00 C 174.00 171.33 174.00 174.66 174.00 178.00 C 157.67 178.01 141.33 177.99 125.00 178.00 C 124.99 219.33 125.01 260.67 125.00 302.00 C 119.65 302.15 114.20 301.41 108.97 302.90 C 99.69 303.17 90.39 302.91 81.10 303.00 C 81.05 302.50 80.95 301.50 80.90 301.00 C 75.63 301.00 70.37 301.00 65.10 301.00 C 65.05 301.50 64.95 302.50 64.90 303.00 C 60.26 303.00 55.63 302.99 51.00 303.01 C 51.00 303.50 51.00 304.50 51.00 304.99 C 55.63 305.00 60.27 305.00 64.90 305.00 C 64.95 305.50 65.05 306.50 65.10 307.00 C 70.37 307.00 75.63 307.00 80.90 307.00 C 80.95 306.50 81.05 305.50 81.10 305.00 C 91.03 305.00 100.97 305.00 110.90 305.00 C 110.95 305.50 111.05 306.50 111.10 307.00 C 115.40 307.00 119.70 307.00 124.00 307.00 C 123.96 313.71 124.07 320.42 123.99 327.13 C 124.14 328.97 123.15 330.59 121.82 331.77 C 111.40 342.08 96.70 346.47 82.62 349.00 L 65.39 349.00 C 56.96 349.24 48.81 346.68 40.95 343.91 C 32.25 341.01 24.73 335.63 17.56 330.06 C 18.49 322.41 17.78 314.68 18.00 307.00 C 22.33 307.00 26.67 307.00 31.00 307.00 C 31.00 305.00 31.00 303.00 31.00 301.00 C 25.67 300.99 20.34 301.00 15.00 301.00 C 15.00 298.01 15.00 295.02 15.00 292.03 C 15.75 292.02 17.25 291.98 18.00 291.97 C 18.00 265.31 18.00 238.66 18.00 212.00 C 29.34 211.99 40.67 212.01 52.00 211.99 C 52.00 211.50 52.00 210.50 52.00 210.01 C 40.67 209.99 29.34 210.01 18.00 210.00 C 18.00 203.00 18.00 196.00 18.00 189.00 C 28.67 189.00 39.33 189.00 49.99 189.00 C 50.00 191.33 50.00 193.67 50.01 196.00 C 50.51 196.00 51.50 196.00 51.99 196.00 C 52.00 189.33 52.00 182.67 51.99 176.00 C 51.50 176.00 50.50 176.00 50.01 176.00 C 50.00 179.66 50.00 183.33 50.00 187.00 C 39.33 187.00 28.67 187.00 18.00 187.00 C 18.00 173.00 18.00 159.00 18.00 145.00 C 28.67 145.00 39.33 145.00 50.00 145.00 C 50.00 150.34 49.99 155.67 50.01 161.00 C 50.50 161.00 51.50 161.00 51.99 161.00 C 52.01 155.00 52.00 149.00 52.00 143.00 C 40.67 142.99 29.33 143.01 18.00 143.00 C 17.99 120.03 18.01 97.07 18.00 74.10 C 18.50 74.05 19.50 73.95 20.00 73.90 C 20.00 64.27 20.00 54.63 20.00 45.00 C 24.00 45.00 27.99 45.00 31.99 45.00 C 32.00 43.67 32.00 42.33 32.01 41.00 Z" />
<path fill="#000000" opacity="1.00" d=" M 208.05 180.00 C 214.02 180.00 219.98 180.00 225.95 180.00 C 225.98 180.50 226.02 181.50 226.05 182.00 C 230.36 182.00 234.68 182.00 239.00 182.00 C 239.00 185.33 239.00 188.67 239.00 192.00 C 239.50 192.00 240.50 192.00 241.00 192.00 C 241.00 188.67 241.00 185.33 241.00 182.00 C 259.67 182.00 278.33 182.00 297.00 182.00 C 297.00 193.00 297.00 204.00 297.00 215.00 C 278.00 215.01 259.00 214.99 240.00 215.01 C 240.00 215.50 240.00 216.50 240.00 217.00 C 259.00 217.01 278.00 216.99 297.00 217.00 C 297.00 245.33 297.00 273.67 297.00 302.00 C 293.00 302.00 289.00 302.00 285.00 302.00 C 285.00 303.66 285.00 305.33 285.00 307.00 C 288.33 307.00 291.66 307.00 295.00 307.00 C 295.00 313.33 295.00 319.66 295.00 326.00 C 278.67 326.00 262.33 326.00 246.00 326.00 C 246.00 319.66 246.00 313.33 246.00 307.00 C 249.33 307.00 252.67 307.00 256.00 307.00 C 256.00 305.33 256.00 303.66 256.00 302.00 C 250.67 302.00 245.33 302.00 240.00 302.00 C 239.99 309.00 240.01 316.00 240.00 323.00 C 236.33 323.00 232.67 323.00 229.01 323.00 C 229.00 324.33 229.00 325.66 228.99 327.00 C 218.33 327.00 207.67 327.00 197.01 327.00 C 197.00 325.66 197.00 324.33 196.99 323.00 C 188.33 323.00 179.67 323.00 171.01 323.00 C 171.00 324.33 171.00 325.66 170.99 327.00 C 161.00 327.00 151.00 327.00 141.01 327.00 C 141.00 325.66 141.00 324.33 140.99 323.00 C 137.33 323.00 133.67 323.00 130.00 323.00 C 130.00 276.00 130.00 229.00 130.00 182.00 C 155.98 182.00 181.97 182.00 207.95 182.00 C 207.98 181.50 208.02 180.50 208.05 180.00 Z" />
<path fill="#000000" opacity="1.00" d=" M 320.10 180.00 C 326.37 180.00 332.63 180.00 338.90 180.00 C 338.95 180.50 339.05 181.50 339.10 182.00 C 345.07 182.00 351.03 181.99 357.00 182.00 C 357.00 193.67 356.99 205.33 357.00 217.00 C 365.33 217.00 373.67 217.01 382.00 216.99 C 382.00 216.50 382.00 215.50 382.00 215.01 C 374.67 214.99 367.33 215.01 360.00 215.00 C 360.00 204.00 360.00 193.00 360.00 182.00 C 376.67 182.00 393.33 182.00 410.00 182.00 C 410.00 193.00 410.00 204.00 410.00 215.00 C 405.00 215.00 400.00 214.99 395.00 215.01 C 395.00 215.50 395.00 216.50 395.00 216.99 C 400.00 217.00 404.99 217.00 409.99 217.00 C 409.99 218.66 410.00 220.33 410.01 222.00 C 411.33 222.00 412.66 222.00 413.99 222.00 C 413.99 220.00 414.00 218.00 414.01 216.00 C 450.67 216.00 487.33 216.00 524.00 216.00 C 524.00 219.66 524.00 223.32 524.00 226.99 C 525.33 226.99 526.66 227.00 528.00 227.02 C 528.00 236.34 528.00 245.66 528.00 254.99 C 526.66 254.99 525.33 255.00 524.00 255.01 C 523.99 260.18 524.01 265.35 523.99 270.52 C 518.44 275.56 513.35 281.07 508.00 286.33 C 509.47 287.68 510.92 289.06 512.40 290.41 C 517.82 285.00 523.29 279.63 528.76 274.26 C 531.42 278.88 533.36 283.86 535.00 288.93 L 535.00 310.80 C 532.22 318.10 527.91 324.84 521.97 329.97 C 513.19 335.68 502.10 336.94 492.00 334.54 C 485.93 333.00 479.71 331.94 473.87 329.59 C 475.18 326.52 477.87 324.44 480.18 322.15 C 483.83 318.56 487.46 314.95 491.13 311.37 C 489.82 309.99 488.51 308.61 487.21 307.23 C 481.95 312.30 477.06 317.77 471.64 322.65 C 466.23 323.55 460.53 322.71 455.01 323.00 C 455.00 324.33 454.99 325.66 454.99 327.00 C 444.99 327.00 435.00 327.00 425.01 327.00 C 425.00 325.66 424.99 324.33 424.99 323.00 C 416.33 323.00 407.67 323.00 399.01 323.00 C 399.00 324.33 398.99 325.66 398.99 327.00 C 388.99 327.00 379.00 327.00 369.01 327.00 C 369.00 325.66 368.99 324.33 368.99 323.00 C 360.33 323.00 351.67 323.00 343.01 323.00 C 343.00 324.33 342.99 325.66 342.99 327.00 C 332.99 327.00 323.00 327.00 313.01 327.00 C 313.00 325.66 312.99 324.33 312.99 323.00 C 308.99 323.00 305.00 323.00 301.00 323.00 C 301.00 276.00 301.00 229.00 301.00 182.00 C 307.30 181.99 313.60 182.00 319.90 182.00 C 319.95 181.50 320.05 180.50 320.10 180.00 Z" />
</g>
</svg>
