<?xml version="1.0" encoding="UTF-8" ?>
<!DOCTYPE svg PUBLIC "-//W3C//DTD SVG 1.1//EN" "http://www.w3.org/Graphics/SVG/1.1/DTD/svg11.dtd">
<svg width="527pt" height="536pt" viewBox="0 0 527 536" version="1.1" xmlns="http://www.w3.org/2000/svg">
<g id="#000000ff">
<path fill="#000000" opacity="1.00" d=" M 433.83 0.00 L 450.60 0.00 C 457.40 1.56 464.45 2.37 470.90 5.19 C 477.05 7.82 483.37 10.24 488.82 14.21 C 494.61 17.78 499.37 22.68 504.28 27.33 C 497.52 27.51 490.78 26.97 484.02 26.97 C 484.01 26.22 483.99 24.74 483.97 24.00 C 478.65 24.00 473.32 24.00 468.00 24.00 C 468.00 27.00 468.00 30.00 468.00 33.00 C 471.00 33.00 474.00 33.00 477.00 33.00 C 477.00 37.99 477.00 42.98 477.00 47.97 C 477.75 47.99 479.25 48.01 480.00 48.03 C 480.00 58.34 480.00 68.66 480.00 78.97 C 479.25 78.99 477.75 79.01 477.00 79.03 C 477.00 84.35 477.00 89.67 477.00 95.00 C 479.33 95.00 481.66 95.00 484.00 95.00 C 484.00 89.70 484.00 84.39 484.00 79.09 C 483.50 79.05 482.50 78.95 482.00 78.91 C 482.00 68.64 482.00 58.36 482.00 48.09 C 482.50 48.05 483.50 47.95 484.00 47.91 C 484.00 42.61 484.00 37.30 484.00 32.00 C 492.17 32.06 500.35 31.85 508.52 32.15 C 511.15 36.90 514.31 41.34 516.78 46.18 C 520.05 53.32 523.16 60.59 524.83 68.29 C 526.97 75.12 526.51 82.33 527.00 89.38 L 527.00 92.15 C 525.61 102.75 523.50 113.34 519.03 123.10 C 515.64 128.69 511.69 133.93 507.76 139.14 C 505.51 139.06 503.27 139.00 501.03 138.95 C 501.01 139.71 500.99 141.24 500.97 142.00 C 495.31 142.00 489.66 142.00 484.00 142.00 C 484.00 136.67 484.00 131.33 484.00 126.00 C 481.66 126.00 479.33 126.00 477.00 126.00 C 477.00 131.33 477.00 136.67 477.00 142.00 C 446.00 142.00 415.00 142.00 384.00 142.00 C 384.00 120.67 384.00 99.33 384.00 78.00 C 370.67 78.00 357.33 78.00 344.00 78.00 C 344.00 84.00 344.00 90.00 344.00 96.00 C 344.75 96.00 346.25 96.00 347.00 96.00 C 347.00 90.67 347.00 85.33 347.00 80.00 C 358.67 80.00 370.33 80.00 382.00 80.00 C 382.00 92.00 382.00 104.00 382.00 116.00 C 370.33 116.00 358.67 116.00 347.01 116.00 C 347.00 114.33 346.99 112.67 346.99 111.00 C 346.24 111.00 344.75 111.00 344.00 111.00 C 344.00 113.33 344.00 115.66 344.00 118.00 C 356.67 118.00 369.33 118.00 382.00 118.00 C 382.00 126.00 382.00 134.00 382.00 142.00 C 370.33 142.00 358.67 142.00 347.00 142.00 C 347.00 138.33 347.00 134.66 347.00 131.00 C 346.50 131.00 345.50 131.00 345.00 131.00 C 344.99 160.00 345.00 189.00 345.00 218.00 C 340.36 218.00 335.73 218.00 331.09 218.00 C 331.05 218.50 330.95 219.50 330.91 220.00 C 324.97 220.00 319.03 220.00 313.09 220.00 C 313.05 219.50 312.95 218.50 312.91 218.00 C 288.60 218.00 264.30 218.00 240.00 218.00 C 240.00 211.33 240.00 204.67 240.00 198.00 C 237.66 198.00 235.33 198.00 233.00 198.00 C 233.00 203.33 233.00 208.67 233.00 214.00 C 224.00 214.00 215.00 214.00 206.00 214.00 C 206.00 192.67 206.00 171.33 206.00 150.00 C 215.00 150.00 224.00 150.00 233.00 150.00 C 233.00 156.33 233.00 162.67 233.00 169.00 C 235.33 169.00 237.66 169.00 240.00 169.00 C 240.00 159.67 240.00 150.33 240.00 141.00 C 230.00 141.00 220.00 141.00 210.00 141.00 C 210.00 139.76 210.00 138.53 210.00 137.30 C 208.66 136.76 207.33 136.23 206.00 135.70 C 206.00 124.81 206.00 113.91 206.00 103.01 C 207.33 103.00 208.66 102.99 210.00 102.99 C 210.00 94.66 210.00 86.34 210.00 78.01 C 208.66 78.00 207.33 78.00 206.00 77.99 C 206.00 66.66 206.00 55.34 206.00 44.01 C 207.33 44.00 208.66 44.00 210.00 43.99 C 210.00 40.33 210.00 36.66 210.00 33.00 C 290.33 33.00 370.67 33.00 451.00 33.00 C 451.00 30.00 451.00 27.00 451.00 24.00 C 436.68 23.99 422.36 24.01 408.05 23.99 C 402.13 23.92 396.18 24.39 390.31 23.43 C 390.21 20.63 390.11 17.82 390.01 15.01 C 396.82 11.20 403.95 8.04 411.24 5.27 C 418.34 1.96 426.29 1.67 433.83 0.00 Z" />
<path fill="#000000" opacity="1.00" d=" M 350.00 150.00 C 361.67 150.00 373.33 150.00 385.00 150.00 C 385.00 164.33 385.00 178.67 385.00 193.00 C 381.33 193.00 377.66 193.00 374.00 193.00 C 374.00 193.75 374.00 195.25 374.00 196.00 C 378.66 196.00 383.33 196.00 388.00 196.00 C 388.00 180.67 388.00 165.33 388.00 150.00 C 425.33 150.00 462.67 150.00 500.00 150.00 C 500.00 154.67 500.00 159.33 500.00 164.00 C 501.66 164.00 503.33 164.00 505.00 164.00 C 505.00 177.00 505.00 190.00 505.00 203.00 C 503.33 203.00 501.66 203.00 500.00 203.00 C 500.00 207.67 500.00 212.33 500.00 217.00 C 492.33 217.00 484.67 217.00 477.00 217.00 C 477.00 222.00 477.00 227.00 477.00 232.00 C 479.33 232.00 481.66 232.00 484.00 232.00 C 484.00 229.33 484.00 226.66 484.00 224.00 C 490.67 224.00 497.33 224.00 504.00 224.00 C 504.00 241.00 504.00 258.00 504.00 275.00 C 497.33 275.00 490.66 275.00 484.00 275.00 C 484.00 270.66 484.00 266.33 484.00 262.00 C 481.66 262.00 479.33 262.00 477.00 262.00 C 477.00 266.00 477.00 270.00 477.00 274.00 C 434.67 274.00 392.33 274.00 350.00 274.00 C 349.91 266.22 350.18 258.43 349.85 250.66 C 348.67 248.65 349.01 246.27 348.97 244.05 C 349.07 239.58 348.85 235.11 349.14 230.66 C 349.99 229.24 350.06 227.58 350.04 225.98 C 349.96 215.99 350.01 205.99 350.00 196.00 C 353.33 196.00 356.66 196.00 360.00 196.00 C 360.00 195.25 360.00 193.75 360.00 193.00 C 356.67 193.00 353.33 193.00 350.00 193.00 C 350.00 178.67 350.00 164.33 350.00 150.00 M 382.00 211.00 C 382.00 216.67 382.00 222.33 382.00 228.00 C 384.00 228.00 386.00 228.00 388.00 228.00 C 388.00 222.33 388.00 216.67 388.00 211.00 C 386.00 211.00 384.00 211.00 382.00 211.00 Z" />
<path fill="#000000" opacity="1.00" d=" M 30.00 221.00 C 66.00 221.00 102.00 221.00 138.00 221.00 C 138.00 227.67 138.00 234.33 138.00 241.00 C 131.70 241.00 125.39 241.00 119.09 241.00 C 119.05 241.50 118.96 242.50 118.91 243.00 C 110.97 243.00 103.03 243.00 95.09 243.00 C 95.05 242.50 94.95 241.50 94.91 241.00 C 89.27 241.00 83.64 241.00 78.00 241.00 C 78.00 243.33 78.00 245.66 78.00 248.00 C 83.64 248.00 89.27 248.00 94.91 248.00 C 94.95 247.50 95.05 246.50 95.09 246.00 C 103.03 246.00 110.97 246.00 118.91 246.00 C 118.95 246.50 119.05 247.50 119.09 248.00 C 125.39 248.00 131.70 248.00 138.00 248.00 C 138.00 276.67 138.00 305.33 138.00 334.00 C 134.00 334.00 130.00 334.00 126.00 334.00 C 126.00 335.66 126.00 337.33 126.00 339.00 C 131.66 339.00 137.33 339.00 142.99 339.00 C 142.99 340.32 143.00 341.64 143.00 342.97 C 143.75 342.99 145.25 343.01 146.00 343.03 C 146.00 349.34 146.00 355.66 146.00 361.97 C 145.25 361.99 143.75 362.01 143.00 362.03 C 143.00 403.02 143.00 444.01 143.00 485.00 C 137.03 485.00 131.06 485.00 125.09 485.00 C 125.05 485.50 124.95 486.50 124.91 487.00 C 115.30 487.00 105.70 487.00 96.09 487.00 C 96.05 486.50 95.95 485.50 95.91 485.00 C 89.97 485.00 84.03 485.00 78.09 485.00 C 78.05 485.50 77.95 486.50 77.91 487.00 C 73.27 487.00 68.64 487.00 64.00 487.00 C 64.00 487.75 64.00 489.25 64.00 490.00 C 68.64 490.00 73.27 490.00 77.91 490.00 C 77.96 490.50 78.04 491.50 78.09 492.00 C 84.03 492.00 89.97 492.00 95.91 492.00 C 95.96 491.50 96.04 490.50 96.09 490.00 C 105.70 490.00 115.30 490.00 124.91 490.00 C 124.95 490.50 125.05 491.50 125.09 492.00 C 130.39 492.00 135.69 492.00 141.00 492.00 C 141.04 498.03 140.98 504.06 140.93 510.09 C 140.85 511.89 141.39 513.62 142.15 515.25 C 138.11 519.69 132.78 522.57 127.82 525.85 C 123.39 528.76 118.22 530.16 113.37 532.21 C 107.96 534.54 102.04 535.01 96.29 536.00 L 77.72 536.00 C 72.42 534.93 67.21 533.50 62.01 532.02 C 54.18 530.01 47.25 525.67 40.34 521.63 C 35.74 518.55 29.54 516.67 28.01 510.68 C 28.26 510.34 28.78 509.65 29.03 509.31 C 28.97 503.54 29.01 497.77 29.00 492.00 C 35.33 492.00 41.67 492.00 48.00 492.00 C 48.00 489.66 48.00 487.33 48.00 485.00 C 42.00 485.00 36.00 485.00 30.00 485.00 C 30.00 482.00 30.00 479.00 30.00 476.00 C 28.00 476.00 26.01 476.00 24.01 476.00 C 24.07 481.22 23.66 486.48 24.40 491.68 C 25.32 497.63 24.42 503.64 24.34 509.61 C 21.30 506.36 17.77 503.47 15.44 499.63 C 11.04 492.08 7.31 484.17 3.84 476.15 C 1.97 471.34 1.23 466.20 0.00 461.21 L 0.00 447.07 C 0.42 440.02 1.82 433.00 4.35 426.41 C 8.21 419.17 12.71 412.22 18.26 406.15 C 20.17 406.19 22.09 406.23 24.01 406.26 C 23.99 424.17 24.01 442.08 24.00 460.00 C 26.00 459.99 28.00 459.99 30.00 460.00 C 30.00 442.00 30.00 424.00 30.00 406.00 C 32.00 406.00 34.00 405.99 36.00 406.00 C 36.00 404.33 36.00 402.66 36.00 401.00 C 34.00 401.00 32.00 400.99 30.00 401.00 C 30.00 392.33 30.00 383.67 30.00 375.00 C 49.67 375.00 69.33 375.00 89.00 375.00 C 89.00 371.00 89.00 367.00 89.00 363.00 C 88.50 363.00 87.50 363.00 87.00 363.00 C 87.00 366.00 87.00 369.00 87.00 372.00 C 68.00 372.00 49.00 372.00 30.00 372.00 C 30.00 361.33 30.00 350.67 30.00 340.00 C 49.00 340.00 68.00 340.00 87.00 340.00 C 87.00 343.00 87.00 346.00 87.00 349.00 C 87.50 349.00 88.50 349.00 89.00 349.00 C 89.00 345.00 89.00 341.00 89.00 337.00 C 71.34 337.00 53.69 337.00 36.03 337.00 C 36.01 336.25 35.99 334.75 35.97 334.00 C 33.98 334.00 31.99 333.99 30.00 334.00 C 30.00 305.33 30.00 276.67 30.00 248.00 C 35.97 248.00 41.94 248.00 47.91 248.00 C 47.95 247.50 48.05 246.50 48.09 246.00 C 53.06 246.00 58.03 246.00 63.00 246.00 C 63.00 245.25 63.00 243.75 63.00 243.00 C 58.03 243.00 53.06 243.00 48.09 243.00 C 48.04 242.50 47.96 241.50 47.91 241.00 C 41.94 241.00 35.97 241.00 30.00 241.00 C 30.00 234.33 30.00 227.67 30.00 221.00 Z" />
<path fill="#000000" opacity="1.00" d=" M 484.00 278.00 C 490.67 278.00 497.33 278.00 504.00 278.00 C 504.00 295.67 504.00 313.33 504.00 331.00 C 497.33 331.00 490.66 331.00 484.00 331.00 C 484.00 328.00 484.00 325.00 484.00 322.00 C 481.66 322.00 479.33 322.00 477.00 322.00 C 477.00 327.33 477.00 332.67 477.00 338.00 C 484.67 338.00 492.33 338.00 500.00 338.00 C 500.00 341.00 500.00 344.00 500.00 347.00 C 501.66 346.99 503.33 347.00 505.00 347.00 C 505.00 358.00 505.00 369.00 505.00 380.00 C 503.33 379.99 501.66 380.00 500.00 380.00 C 500.00 384.33 500.00 388.67 500.00 393.00 C 492.33 393.00 484.66 393.00 477.00 393.00 C 477.00 393.75 477.00 395.25 477.00 396.00 C 487.33 396.00 497.67 396.00 508.01 396.00 C 508.00 396.80 507.97 398.39 507.96 399.19 C 509.75 401.30 511.80 403.23 513.19 405.65 C 519.86 419.82 524.78 435.19 524.51 451.00 C 525.01 458.59 524.04 466.20 522.42 473.61 C 517.41 485.43 511.98 497.54 502.66 506.65 C 499.10 503.22 495.56 499.78 492.00 496.35 C 490.66 497.67 489.33 499.00 488.00 500.34 C 491.24 503.87 494.56 507.32 497.70 510.95 C 492.71 515.91 487.23 520.39 481.34 524.23 C 475.41 526.86 469.64 530.40 463.02 530.92 C 457.35 531.61 451.75 533.17 446.00 532.94 C 433.55 533.07 421.13 530.66 409.41 526.55 C 401.06 524.21 393.56 519.62 386.35 514.94 C 386.79 512.98 387.09 510.99 387.04 508.99 C 386.96 500.99 387.02 492.99 387.00 485.00 C 385.33 484.99 383.66 484.99 382.00 485.00 C 382.00 492.67 382.00 500.33 382.00 508.00 C 377.00 508.00 372.00 508.00 367.00 508.00 C 367.00 509.33 366.99 510.66 367.00 512.00 C 357.66 512.00 348.33 512.00 339.01 512.00 C 339.00 510.66 338.99 509.33 338.99 508.00 C 334.66 508.00 330.33 508.00 326.00 508.00 C 326.00 473.33 326.00 438.67 326.00 404.00 C 333.00 404.00 340.00 404.00 347.00 404.00 C 347.00 398.33 347.00 392.66 347.00 387.00 C 346.50 387.00 345.50 387.00 345.00 387.00 C 345.00 392.00 345.00 397.00 345.00 402.00 C 332.67 402.00 320.33 402.00 308.00 402.00 C 308.00 384.67 308.00 367.33 308.00 350.00 C 320.33 350.00 332.67 350.00 345.00 350.00 C 345.00 355.67 345.00 361.33 345.00 367.00 C 345.50 367.00 346.50 367.00 347.00 367.00 C 347.00 360.67 347.00 354.33 347.00 348.00 C 334.00 348.00 321.00 348.00 308.00 348.00 C 308.00 345.67 308.00 343.34 308.00 341.01 C 307.25 341.01 305.75 340.99 305.00 340.99 C 305.00 334.66 305.00 328.34 305.00 322.01 C 305.75 322.01 307.25 321.99 308.00 321.99 C 308.00 307.66 308.00 293.33 308.00 279.00 C 320.33 279.00 332.67 279.00 345.00 279.00 C 345.00 287.33 345.00 295.67 345.00 304.00 C 352.33 304.00 359.67 304.00 367.00 304.00 C 367.00 303.50 367.00 302.50 367.00 302.00 C 360.67 302.00 354.33 302.00 348.00 302.00 C 348.00 294.33 348.00 286.67 348.00 279.00 C 359.00 279.00 370.00 279.00 381.00 279.00 C 381.00 287.33 380.99 295.67 381.00 304.00 C 381.50 304.00 382.50 304.00 383.00 304.00 C 383.00 295.67 383.00 287.33 383.00 279.00 C 414.33 279.00 445.67 279.00 477.00 279.00 C 477.00 283.67 477.00 288.33 477.00 293.00 C 479.33 293.00 481.66 293.00 484.00 293.00 C 484.00 288.00 484.00 283.00 484.00 278.00 M 375.00 413.00 C 375.00 415.00 375.00 417.00 375.00 419.00 C 381.00 419.00 387.00 419.00 393.00 419.00 C 393.00 416.99 393.00 415.00 393.00 413.00 C 387.00 413.00 381.00 413.00 375.00 413.00 Z" />
<path fill="#000000" opacity="1.00" d=" M 212.04 370.00 C 218.68 370.00 225.32 370.00 231.96 370.00 C 231.98 370.50 232.02 371.50 232.04 372.00 C 236.69 372.00 241.35 372.00 246.00 372.00 C 246.00 377.00 246.00 382.00 246.00 387.00 C 246.50 387.00 247.50 387.00 248.00 387.00 C 248.00 382.00 248.00 377.00 248.00 372.00 C 266.33 372.00 284.67 372.00 303.00 372.00 C 303.00 382.67 303.00 393.33 303.00 404.00 C 284.67 404.00 266.34 404.00 248.01 404.00 C 248.00 402.66 247.99 401.33 247.99 400.00 C 247.49 400.00 246.50 400.00 246.00 400.00 C 246.00 401.99 246.00 403.99 246.00 406.00 C 271.33 406.00 296.67 406.00 322.00 406.00 C 322.00 432.33 322.00 458.66 322.00 485.00 C 316.00 485.00 310.00 485.00 304.00 485.00 C 304.00 487.33 304.00 489.66 304.00 492.00 C 309.33 492.00 314.66 492.00 320.00 492.00 C 320.00 498.67 320.00 505.33 320.00 512.00 C 283.67 512.00 247.33 512.00 211.00 512.00 C 211.00 505.33 211.00 498.67 211.00 492.00 C 216.33 492.00 221.67 492.00 227.00 492.00 C 227.00 489.66 227.00 487.33 227.00 485.00 C 219.33 485.00 211.67 485.00 204.00 485.00 C 204.00 492.67 204.00 500.33 204.00 508.00 C 200.08 508.00 196.16 508.00 192.24 508.00 C 192.07 509.48 191.89 511.98 189.87 511.97 C 180.25 512.07 170.62 511.95 161.01 512.00 C 161.00 510.66 161.00 509.33 161.00 508.00 C 156.66 508.00 152.33 508.00 148.00 508.00 C 148.00 462.67 148.00 417.33 148.00 372.00 C 169.32 372.00 190.64 372.00 211.96 372.00 C 211.98 371.50 212.02 370.50 212.04 370.00 M 257.00 485.00 C 257.00 487.33 257.00 489.66 257.00 492.00 C 262.33 492.00 267.67 492.00 273.00 492.00 C 273.00 489.66 273.00 487.33 273.00 485.00 C 267.67 485.00 262.33 485.00 257.00 485.00 Z" />
</g>
</svg>
