<?xml version="1.0" encoding="UTF-8" ?>
<!DOCTYPE svg PUBLIC "-//W3C//DTD SVG 1.1//EN" "http://www.w3.org/Graphics/SVG/1.1/DTD/svg11.dtd">
<svg width="535pt" height="281pt" viewBox="0 0 535 281" version="1.1" xmlns="http://www.w3.org/2000/svg">
<g id="#000000ff">
<path fill="#000000" opacity="1.00" d=" M 309.00 4.00 C 315.00 4.00 321.00 4.00 327.00 4.00 C 327.00 8.33 327.00 12.67 327.00 17.00 C 328.33 17.00 329.66 17.00 331.00 17.00 C 331.00 12.67 331.00 8.33 331.00 4.00 C 351.67 4.00 372.33 4.00 393.00 4.00 C 393.00 12.67 393.00 21.33 393.00 30.00 C 396.00 30.00 399.00 30.00 402.00 30.00 C 402.00 29.50 402.00 28.50 402.00 28.00 C 399.66 28.00 397.33 28.00 395.00 28.00 C 395.00 20.00 395.00 12.00 395.00 4.00 C 407.33 4.00 419.67 4.00 432.00 4.00 C 432.00 12.00 432.00 20.00 432.00 28.00 C 426.00 28.00 420.00 28.00 414.00 28.00 C 414.00 28.50 414.00 29.50 414.00 30.00 C 420.67 30.00 427.33 30.00 434.00 30.00 C 434.00 21.33 434.00 12.67 434.00 4.00 C 462.00 4.00 490.00 4.00 518.00 4.00 C 518.00 7.00 518.00 9.99 518.00 12.99 C 518.75 13.00 520.25 13.00 521.00 13.01 C 521.00 22.67 521.00 32.33 521.00 41.99 C 520.25 42.00 518.75 42.00 518.00 42.01 C 518.00 45.01 518.00 48.00 518.00 51.00 C 512.67 51.00 507.34 51.00 502.01 51.00 C 501.98 54.74 501.90 58.49 502.20 62.23 C 503.48 65.68 502.94 69.41 502.99 73.00 C 503.49 73.00 504.49 73.00 504.99 73.00 C 504.97 69.92 504.95 66.84 505.20 63.77 C 506.27 60.96 506.02 57.93 506.03 55.00 C 510.69 55.00 515.34 55.00 520.00 55.00 C 520.00 67.67 520.00 80.33 520.00 93.00 C 515.33 93.00 510.66 93.00 506.00 93.00 C 506.00 89.67 506.00 86.33 506.00 83.00 C 504.66 83.00 503.33 83.00 502.00 83.00 C 502.00 86.00 502.00 89.00 502.00 92.00 C 479.33 92.00 456.67 92.00 434.00 92.00 C 434.00 86.00 434.00 80.00 434.00 74.00 C 433.50 74.00 432.50 74.00 432.00 74.00 C 432.00 80.00 432.00 86.00 432.00 92.00 C 424.00 92.00 416.00 92.00 408.00 92.00 C 408.00 86.67 408.00 81.33 408.00 76.00 C 413.00 76.00 418.00 76.00 423.00 76.00 C 423.00 75.50 423.00 74.50 423.00 74.00 C 417.33 74.00 411.67 74.00 406.00 74.00 C 406.00 80.00 406.00 86.00 406.00 92.00 C 393.34 92.00 380.67 92.00 368.01 92.00 C 368.00 92.75 368.00 94.25 367.99 95.00 C 360.99 95.00 354.00 95.00 347.00 95.00 C 347.00 79.67 347.00 64.33 347.00 49.00 C 341.66 49.00 336.33 49.00 331.00 49.00 C 330.99 45.00 331.00 41.00 331.00 37.00 C 329.66 37.00 328.33 37.00 327.00 37.00 C 326.99 41.00 327.00 45.00 327.00 49.00 C 321.00 49.00 315.00 49.00 309.00 49.00 C 309.00 34.00 309.00 19.00 309.00 4.00 M 433.00 46.00 C 433.00 50.33 433.00 54.67 433.00 59.00 C 434.33 59.00 435.66 59.00 437.00 59.00 C 437.00 54.67 437.00 50.33 437.00 46.00 C 435.66 46.00 434.33 46.00 433.00 46.00 Z" />
<path fill="#000000" opacity="1.00" d=" M 14.63 46.57 C 25.62 42.46 37.96 44.57 48.25 49.68 C 43.89 54.17 39.47 58.57 35.06 63.00 C 35.63 63.70 36.78 65.08 37.35 65.77 C 41.67 61.52 46.00 57.28 50.28 53.00 C 53.85 53.00 57.42 53.00 60.99 53.00 C 61.00 52.25 61.00 50.75 61.01 50.00 C 68.33 50.00 75.66 50.00 82.99 50.00 C 83.00 50.75 83.00 52.25 83.01 53.00 C 89.67 53.00 96.33 53.00 102.99 53.00 C 103.00 52.25 103.00 50.75 103.01 50.00 C 110.34 50.00 117.66 50.00 124.99 50.00 C 125.00 50.75 125.00 52.25 125.01 53.00 C 132.00 53.00 139.00 53.00 145.99 53.00 C 146.00 52.25 146.00 50.75 146.01 50.00 C 152.67 50.00 159.33 50.00 165.99 50.00 C 166.00 50.75 166.00 52.25 166.01 53.00 C 170.00 53.00 174.00 53.00 178.00 53.00 C 178.00 59.66 178.00 66.33 178.00 72.99 C 182.91 72.75 188.00 73.75 192.77 72.21 C 196.17 71.93 199.59 71.98 203.00 72.00 C 203.00 71.50 203.00 70.50 203.00 70.00 C 199.59 70.02 196.17 70.07 192.77 69.80 C 189.32 68.53 185.59 69.04 182.00 69.01 C 182.00 63.34 182.00 57.67 182.00 52.00 C 206.67 52.00 231.33 52.00 256.00 52.00 C 256.00 57.67 256.00 63.34 256.00 69.00 C 252.25 68.99 248.50 68.90 244.77 69.21 C 239.26 70.77 233.41 69.86 227.77 69.80 C 223.01 68.24 217.91 69.25 213.00 69.01 C 213.00 70.34 213.00 71.66 213.00 72.99 C 217.41 72.98 221.83 73.14 226.23 72.79 C 229.05 71.73 232.10 71.99 235.05 71.95 C 238.30 72.02 241.66 71.64 244.77 72.79 C 248.84 73.12 252.92 73.00 257.00 72.99 C 257.00 93.66 257.00 114.33 257.00 135.00 C 245.67 135.00 234.33 135.00 223.00 135.00 C 223.00 126.33 223.00 117.67 223.00 109.00 C 207.67 109.00 192.33 109.00 177.00 109.00 L 177.00 110.00 C 191.67 110.00 206.33 110.00 221.00 110.00 C 221.00 118.33 221.00 126.67 221.00 135.00 C 206.67 135.00 192.33 135.00 178.00 135.00 C 178.00 130.33 178.00 125.67 178.00 121.00 L 177.00 121.00 C 177.00 125.67 177.00 130.33 177.00 135.00 C 174.00 135.00 171.00 135.00 168.01 135.00 C 168.00 135.75 168.00 137.25 167.99 138.00 C 163.33 138.00 158.67 138.00 154.01 138.00 C 154.00 137.25 154.00 135.75 153.99 135.00 C 142.99 135.00 132.00 135.00 121.00 135.00 C 121.00 129.00 121.00 123.00 121.00 117.00 C 115.67 117.00 110.33 117.00 105.00 117.00 L 105.00 118.00 C 110.00 118.00 115.00 118.00 120.00 118.00 C 120.00 123.67 120.00 129.33 120.00 135.00 C 111.00 135.00 102.00 135.00 93.00 135.00 C 93.00 129.34 93.00 123.67 93.00 118.01 C 93.75 118.00 95.26 118.00 96.01 117.99 L 95.99 117.00 C 94.66 117.00 93.33 117.00 92.00 117.00 C 92.00 123.00 92.00 129.00 92.00 135.00 C 64.33 135.00 36.67 135.00 9.00 135.00 C 9.00 132.00 9.00 129.01 9.00 126.01 C 8.25 126.00 6.75 126.00 6.00 125.99 C 6.00 118.66 6.00 111.34 6.00 104.01 C 6.75 104.00 8.25 104.00 9.00 103.99 C 9.00 100.60 9.00 97.21 8.99 93.82 C 15.07 87.65 21.31 81.63 27.46 75.54 C 26.64 74.74 25.81 73.95 24.99 73.16 C 18.50 79.70 11.98 86.22 5.51 92.79 C 5.04 86.65 1.55 81.24 1.09 75.09 C 0.84 69.49 0.61 63.70 2.53 58.34 C 4.93 53.06 9.39 48.96 14.63 46.57 Z" />
<path fill="#000000" opacity="1.00" d=" M 506.00 95.00 C 511.00 95.00 516.00 95.00 521.00 95.00 C 521.00 108.00 521.00 121.00 521.00 134.00 C 516.08 134.00 511.16 134.00 506.25 134.00 C 505.99 131.37 505.77 128.74 505.28 126.14 C 505.03 123.10 504.97 120.05 504.94 117.00 C 504.47 117.00 503.53 117.00 503.06 117.00 C 503.08 120.63 503.08 124.29 502.27 127.85 C 501.99 131.23 501.96 134.61 501.96 138.00 C 507.31 138.00 512.65 138.00 518.00 138.00 C 518.00 140.99 518.00 143.99 518.00 146.98 C 518.75 146.99 520.25 147.01 521.00 147.02 C 521.00 154.67 521.00 162.33 521.00 169.98 C 520.25 169.99 518.75 170.01 518.00 170.02 C 518.00 173.01 518.00 176.00 518.00 179.00 C 512.66 179.00 507.33 179.00 502.00 179.00 C 502.00 179.75 502.00 181.25 502.00 182.00 C 507.36 182.05 512.73 181.88 518.09 181.99 C 520.30 182.02 523.02 182.42 524.21 184.55 C 529.65 194.59 533.37 205.53 535.00 216.84 L 535.00 230.30 C 533.85 235.10 532.46 239.88 530.46 244.40 C 527.89 250.78 522.81 255.60 518.83 261.07 C 515.97 258.05 513.12 255.02 510.25 252.01 C 509.24 252.92 508.24 253.84 507.25 254.76 C 510.25 257.92 513.25 261.08 516.25 264.25 C 503.24 276.19 484.75 282.35 467.27 278.79 C 456.37 276.18 445.02 273.63 435.90 266.74 C 436.07 259.83 435.98 252.91 436.00 246.00 C 435.25 246.00 433.75 246.00 433.00 246.00 C 433.00 251.33 433.00 256.66 433.00 262.00 C 430.00 262.00 427.01 262.00 424.02 262.00 C 424.01 262.75 423.99 264.25 423.98 265.00 C 416.99 265.00 410.01 265.00 403.02 265.00 C 403.01 264.25 402.99 262.75 402.98 262.00 C 399.65 262.00 396.32 262.00 393.00 262.00 C 393.00 237.00 393.00 212.00 393.00 187.00 C 398.00 187.00 403.00 187.00 408.00 187.00 C 408.00 182.00 408.00 177.00 408.00 172.00 C 407.50 172.00 406.50 172.00 406.00 172.00 C 406.00 176.33 406.00 180.66 406.00 185.00 C 397.33 185.00 388.67 185.00 380.00 185.00 C 380.00 172.33 380.00 159.67 380.00 147.00 C 388.67 147.00 397.33 147.00 406.00 147.00 C 406.00 152.00 405.99 157.00 406.00 162.00 C 406.50 162.00 407.50 162.00 408.00 162.00 C 408.00 156.33 408.00 150.67 408.00 145.00 C 398.66 145.00 389.33 145.00 380.00 145.00 C 380.00 143.69 380.00 142.38 380.00 141.07 C 379.50 141.04 378.50 140.96 378.00 140.93 C 378.00 136.31 378.00 131.69 378.00 127.07 C 378.50 127.04 379.50 126.96 380.00 126.93 C 380.00 116.62 380.00 106.31 380.00 96.00 C 388.67 96.00 397.33 96.00 406.00 96.00 C 406.00 102.00 406.00 108.00 406.00 114.00 C 411.67 114.00 417.33 114.00 423.00 114.00 C 423.00 113.50 423.00 112.50 423.00 112.00 C 418.00 112.00 413.00 112.00 408.00 112.00 C 408.00 106.67 408.00 101.33 408.00 96.00 C 416.00 96.00 424.00 96.00 432.00 96.00 C 432.00 102.00 432.00 108.00 432.00 114.00 C 432.50 114.00 433.50 114.00 434.00 114.00 C 434.00 108.00 434.00 102.00 434.00 96.00 C 456.67 96.00 479.33 96.00 502.00 96.00 C 502.00 99.00 502.00 102.00 502.00 105.00 C 503.33 105.00 504.66 105.00 506.00 105.00 C 506.00 101.66 506.00 98.33 506.00 95.00 M 428.00 194.00 C 427.99 195.33 427.99 196.66 428.00 198.00 C 432.33 198.00 436.66 198.00 441.00 198.00 C 440.99 196.66 440.99 195.33 441.00 194.00 C 436.66 194.00 432.33 194.00 428.00 194.00 Z" />
<path fill="#000000" opacity="1.00" d=" M 9.00 138.00 C 53.00 138.00 97.00 138.00 141.00 138.00 C 141.00 139.31 141.00 140.62 141.00 141.93 C 141.50 141.96 142.50 142.04 143.00 142.07 C 143.00 146.36 143.00 150.64 143.00 154.93 C 142.50 154.96 141.50 155.04 141.00 155.07 C 141.00 156.71 141.00 158.36 141.00 160.00 C 138.67 159.99 136.33 160.01 134.00 160.00 C 134.00 161.66 134.00 163.33 134.00 165.00 C 125.00 165.00 116.00 165.00 107.00 165.00 C 107.00 171.33 107.00 177.67 107.00 184.00 C 107.50 184.00 108.50 184.00 109.00 184.00 C 109.00 178.33 109.00 172.67 109.00 167.00 C 117.33 167.00 125.67 167.00 134.00 167.00 C 134.00 178.00 134.00 189.00 134.00 200.00 C 125.67 200.00 117.33 200.00 109.00 200.00 C 109.00 198.00 109.00 196.00 109.00 194.00 C 108.50 194.00 107.50 194.00 107.00 194.00 C 107.00 196.66 107.00 199.33 107.00 202.00 C 116.00 202.00 125.00 202.00 134.00 202.00 C 134.00 222.00 134.00 242.00 134.00 262.00 C 131.00 262.00 128.01 262.00 125.02 262.00 C 125.01 262.75 124.99 264.25 124.98 265.00 C 117.66 265.00 110.34 265.00 103.02 265.00 C 103.01 264.25 102.99 262.75 102.98 262.00 C 96.33 262.00 89.67 262.00 83.02 262.00 C 83.01 262.75 82.99 264.25 82.98 265.00 C 74.33 265.00 65.67 265.00 57.01 265.00 C 57.01 264.27 57.01 262.81 57.01 262.08 C 53.17 262.07 49.34 261.90 45.52 261.58 C 41.96 257.88 38.35 254.24 34.73 250.61 C 33.60 251.52 32.48 252.42 31.36 253.34 C 35.48 257.50 39.65 261.62 43.76 265.79 C 39.94 267.24 36.10 268.84 31.98 269.19 C 24.85 269.94 17.11 270.10 10.78 266.23 C 3.75 261.90 0.03 253.58 0.00 245.50 L 0.00 242.86 C 0.58 237.26 2.45 231.94 4.81 226.86 C 8.89 230.86 12.91 234.92 16.96 238.96 C 18.09 237.97 19.22 237.00 20.34 236.02 C 16.60 232.19 12.85 228.37 9.03 224.61 C 9.03 221.36 8.99 218.10 8.73 214.86 C 7.32 206.62 8.04 198.17 8.27 189.85 C 9.45 184.65 8.96 179.29 9.00 174.01 C 9.00 162.01 9.00 150.00 9.00 138.00 M 90.00 202.00 C 90.00 206.00 90.00 210.00 90.00 214.00 C 91.33 214.00 92.67 214.00 94.00 214.00 C 94.00 210.00 94.00 206.00 94.00 202.00 C 92.67 202.00 91.33 202.00 90.00 202.00 Z" />
<path fill="#000000" opacity="1.00" d=" M 311.03 161.00 C 315.68 161.00 320.32 161.00 324.96 161.00 C 324.98 161.50 325.02 162.50 325.04 163.00 C 328.35 163.00 331.68 163.00 335.00 163.00 C 335.00 166.33 335.00 169.67 335.00 173.00 C 335.50 173.00 336.50 173.00 337.00 173.00 C 337.00 169.67 337.00 166.33 337.00 163.00 C 350.00 163.00 363.00 163.00 376.00 163.00 C 376.00 171.00 376.00 179.00 376.00 187.00 C 363.00 187.00 350.01 187.00 337.01 187.00 C 337.00 186.25 336.99 184.75 336.99 184.00 C 336.49 184.00 335.50 184.00 335.00 184.00 C 335.00 185.66 335.00 187.33 335.00 189.00 C 353.33 189.00 371.67 189.00 390.00 189.00 C 390.00 207.67 390.00 226.34 390.00 245.01 C 385.42 245.20 380.66 244.30 376.23 245.80 C 372.82 246.07 369.41 246.02 366.00 246.00 C 366.00 246.50 366.00 247.50 366.00 248.00 C 369.65 248.00 373.31 248.00 376.96 248.00 C 376.98 248.50 377.02 249.50 377.04 250.00 C 381.02 250.00 385.01 250.00 389.00 250.00 C 389.00 255.00 389.00 260.00 389.00 265.00 C 363.13 265.00 337.26 265.01 311.39 265.00 C 311.06 264.35 310.39 263.05 310.06 262.40 C 309.97 258.26 310.00 254.13 310.00 250.00 C 313.99 250.00 317.97 250.00 321.96 250.00 C 321.98 249.50 322.02 248.50 322.03 248.00 C 328.68 248.00 335.32 248.00 341.96 248.00 C 341.98 248.50 342.02 249.50 342.04 250.00 C 346.36 250.00 350.68 250.00 355.00 250.00 C 355.00 248.33 355.00 246.67 355.00 245.01 C 351.25 244.98 347.50 244.90 343.77 245.21 C 340.00 246.56 335.95 245.87 332.05 246.01 C 328.44 245.92 324.70 246.48 321.23 245.21 C 316.16 244.82 311.08 245.05 306.00 245.00 C 306.00 250.67 306.00 256.33 306.00 262.00 C 302.67 262.00 299.34 262.00 296.01 262.00 C 296.00 262.75 296.00 264.25 295.99 265.00 C 288.66 265.00 281.33 265.00 274.01 265.00 C 274.00 264.25 274.00 262.75 273.99 262.00 C 270.66 262.00 267.33 262.00 264.00 262.00 C 264.00 229.00 264.00 196.00 264.00 163.00 C 279.65 163.00 295.31 163.00 310.97 163.00 C 310.98 162.50 311.02 161.50 311.03 161.00 Z" />
<path fill="#000000" opacity="1.00" d=" M 193.15 162.73 C 197.97 161.62 203.03 161.62 207.85 162.74 C 225.55 163.35 243.28 162.83 261.00 163.00 C 261.00 190.33 261.00 217.67 261.00 245.00 C 257.02 245.00 253.04 245.00 249.07 245.00 C 249.03 245.50 248.96 246.50 248.93 247.00 C 241.31 247.00 233.69 247.00 226.07 247.00 C 226.04 246.50 225.96 245.50 225.93 245.00 C 221.97 245.00 218.02 245.00 214.07 245.00 C 214.04 245.50 213.96 246.50 213.93 247.00 C 210.62 247.00 207.31 247.00 204.00 247.00 C 204.00 247.48 204.00 248.45 204.00 248.94 C 207.05 248.98 210.10 249.03 213.14 249.27 C 217.08 250.23 221.16 250.18 225.16 249.72 C 233.29 248.54 241.73 248.54 249.86 249.73 C 253.23 250.00 256.62 250.03 260.00 250.04 C 260.00 255.95 260.03 261.86 259.95 267.77 C 251.16 274.54 240.54 278.27 229.90 281.00 L 216.41 281.00 C 209.26 280.99 202.22 279.16 195.65 276.44 C 190.32 273.96 185.77 270.13 180.87 266.93 C 181.06 261.29 181.00 255.64 181.00 250.00 C 185.00 250.00 189.00 250.00 193.00 250.00 C 193.00 248.33 193.00 246.66 193.00 245.00 C 187.67 245.00 182.33 245.00 177.00 245.00 C 177.00 250.67 177.00 256.33 177.00 262.00 C 173.67 262.00 170.34 262.00 167.02 262.00 C 167.01 262.75 166.99 264.25 166.98 265.00 C 159.66 265.00 152.34 265.00 145.02 265.00 C 145.01 264.25 144.99 262.75 144.98 262.00 C 142.32 261.99 139.66 262.01 137.00 262.00 C 137.00 237.67 137.00 213.33 137.00 189.00 C 152.67 189.00 168.33 189.00 184.00 189.00 C 184.00 187.66 184.00 186.33 184.00 185.00 C 180.02 185.00 176.05 185.00 172.07 185.00 C 172.04 185.50 171.96 186.50 171.93 187.00 C 160.29 187.00 148.64 187.00 137.00 187.00 C 137.00 179.00 137.00 171.00 137.00 163.00 C 155.72 162.83 174.45 163.35 193.15 162.73 Z" />
</g>
</svg>
