<?xml version="1.0" encoding="UTF-8" ?>
<!DOCTYPE svg PUBLIC "-//W3C//DTD SVG 1.1//EN" "http://www.w3.org/Graphics/SVG/1.1/DTD/svg11.dtd">
<svg width="534pt" height="413pt" viewBox="0 0 534 413" version="1.1" xmlns="http://www.w3.org/2000/svg">
<g id="#000000ff">
<path fill="#000000" opacity="1.00" d=" M 94.01 55.00 C 101.00 55.00 107.99 55.00 114.98 55.00 C 114.99 55.75 115.01 57.25 115.01 58.00 C 117.68 58.00 120.34 58.00 123.00 58.00 C 123.00 78.00 123.00 98.00 123.00 118.00 C 129.67 118.00 136.33 118.00 143.00 118.00 C 143.00 117.25 143.00 115.75 143.00 115.00 C 138.00 115.00 133.00 115.00 128.00 115.00 C 128.00 96.00 128.00 77.00 128.00 58.00 C 130.66 58.00 133.32 58.00 135.99 58.00 C 135.99 57.25 136.01 55.75 136.01 55.00 C 144.00 55.00 151.99 55.00 159.99 55.00 C 159.99 55.75 160.01 57.25 160.01 58.00 C 163.01 58.00 166.00 57.99 169.00 58.00 C 169.00 77.00 169.00 96.00 169.00 115.00 C 162.33 115.00 155.67 115.00 149.00 115.00 C 149.00 115.75 149.00 117.25 149.00 118.00 C 155.67 118.00 162.33 118.00 169.00 118.00 C 169.00 144.33 169.00 170.66 169.00 196.99 C 166.54 196.97 164.09 196.98 161.64 197.13 C 156.60 199.07 150.89 197.56 145.58 197.93 C 144.94 197.61 143.65 196.97 143.00 196.65 C 142.99 180.76 143.01 164.88 143.00 149.00 C 141.33 148.99 139.67 149.00 138.00 149.00 C 138.00 149.74 138.00 151.22 138.00 151.95 C 138.50 151.98 139.50 152.02 140.00 152.05 C 140.00 158.03 140.00 164.01 140.00 170.00 C 136.00 170.00 132.00 170.00 128.00 170.00 C 128.00 164.00 128.00 158.00 128.00 152.00 C 130.00 152.00 132.00 152.00 134.00 152.00 C 134.00 151.25 134.00 149.75 134.00 149.00 C 130.33 149.00 126.67 149.00 123.00 149.00 C 123.00 156.00 123.00 163.00 123.00 170.00 C 116.33 170.00 109.67 170.00 103.00 170.00 C 103.00 163.67 103.00 157.33 103.00 151.00 C 105.33 151.00 107.67 151.00 110.00 151.00 C 110.00 149.00 110.00 147.00 110.00 145.00 C 109.25 145.00 107.76 145.00 107.02 145.00 C 107.01 145.75 106.99 147.25 106.99 148.00 C 104.66 148.00 102.33 148.00 100.00 148.00 C 100.00 155.33 100.00 162.67 100.00 170.00 C 87.00 170.00 74.00 170.00 61.00 170.00 C 61.00 168.33 61.00 166.67 61.00 165.00 C 59.33 164.99 57.67 165.00 56.00 165.00 C 56.00 166.67 56.00 168.33 56.00 170.00 C 44.02 169.96 32.05 170.09 20.07 169.93 C 19.88 146.58 23.28 123.12 31.22 101.13 C 35.79 100.92 40.38 101.00 44.96 101.01 C 44.98 101.51 45.02 102.50 45.04 103.00 C 46.70 103.00 48.35 103.00 50.00 103.00 C 50.00 99.00 50.00 95.00 50.00 91.00 C 69.00 91.00 88.00 91.00 107.00 91.00 C 107.00 98.33 107.00 105.67 107.00 113.00 C 107.75 113.00 109.25 113.00 110.00 113.00 C 110.00 104.67 110.00 96.33 110.00 88.00 C 99.33 88.00 88.67 88.00 78.00 88.00 C 78.00 78.00 78.00 68.00 78.00 58.00 C 83.33 58.00 88.66 58.00 93.99 58.00 C 93.99 57.25 94.01 55.75 94.01 55.00 M 107.00 125.00 C 106.99 128.00 107.00 131.00 107.00 134.00 C 88.00 134.00 69.00 134.00 50.00 134.00 C 50.00 131.66 50.00 129.33 50.00 127.00 C 48.33 127.00 46.67 127.00 45.00 127.00 C 45.00 131.00 45.00 135.00 45.00 139.00 C 48.67 139.00 52.33 139.00 56.00 139.00 C 56.00 141.33 56.00 143.66 56.00 146.00 C 57.67 146.00 59.33 146.00 61.00 146.00 C 61.01 143.00 60.99 140.00 61.00 137.00 C 77.33 137.00 93.67 137.00 110.00 137.00 C 110.00 133.00 110.00 129.00 110.00 125.00 C 109.25 125.00 107.75 125.00 107.00 125.00 Z" />
<path fill="#000000" opacity="1.00" d=" M 335.01 103.00 C 343.34 103.00 351.66 103.00 359.99 103.00 C 359.99 103.75 360.01 105.25 360.01 106.00 C 363.01 106.00 366.00 105.99 369.00 106.00 C 369.00 127.67 369.00 149.33 369.00 171.00 C 369.75 171.00 371.25 171.00 372.00 171.00 C 372.00 149.33 372.00 127.67 372.00 106.00 C 373.66 106.00 375.32 106.00 376.99 106.00 C 376.99 105.25 377.01 103.75 377.01 103.00 C 385.34 103.00 393.66 103.00 401.99 103.00 C 401.99 103.75 402.01 105.25 402.01 106.00 C 404.00 106.00 406.00 106.00 408.00 106.00 C 408.00 123.00 408.00 140.00 408.00 157.00 C 399.00 157.00 390.00 157.00 381.00 157.00 C 380.99 158.67 380.99 160.33 381.00 162.00 C 381.74 162.00 383.21 162.00 383.95 162.00 C 383.98 161.50 384.02 160.50 384.05 160.00 C 392.03 160.00 400.01 160.00 408.00 160.00 C 408.00 163.33 408.00 166.67 408.00 170.00 C 399.33 170.00 390.67 170.00 382.00 170.00 C 382.00 176.00 382.00 182.00 382.00 188.00 C 382.75 188.00 384.25 188.00 385.00 188.00 C 385.00 183.67 385.00 179.33 385.00 175.00 C 392.67 175.00 400.33 175.00 408.00 175.00 C 408.00 185.00 408.00 195.00 408.00 205.00 C 400.33 205.00 392.67 205.00 385.00 205.00 C 384.99 201.66 385.00 198.33 385.00 195.00 C 384.25 195.00 382.75 195.00 382.00 195.00 C 382.00 200.00 382.00 205.00 382.00 210.00 C 390.67 210.00 399.33 210.00 408.00 210.00 C 408.00 225.33 408.00 240.66 408.00 256.00 C 406.00 256.00 404.00 256.00 402.00 256.00 C 401.99 257.66 401.99 259.33 402.00 261.00 C 404.00 261.00 406.00 261.00 408.00 261.00 C 408.00 267.00 408.00 273.00 408.00 279.00 C 396.00 279.00 384.00 279.00 372.00 279.00 C 372.00 273.00 372.00 267.00 372.00 261.00 C 374.66 261.00 377.33 261.00 380.00 261.00 C 380.00 259.33 380.00 257.66 380.00 256.00 C 376.66 255.99 373.33 256.00 370.00 256.00 C 370.00 239.00 370.00 222.00 370.00 205.00 C 343.67 205.00 317.33 205.00 291.00 205.00 C 290.99 201.67 291.00 198.34 291.00 195.01 C 290.25 195.01 288.75 194.99 288.00 194.99 C 288.00 190.66 288.00 186.34 288.00 182.01 C 288.75 182.01 290.25 181.99 291.00 181.99 C 291.00 179.99 291.00 178.00 291.00 176.00 C 298.33 176.00 305.66 176.00 313.00 176.00 C 313.00 174.33 313.00 172.67 313.00 171.00 C 305.67 171.00 298.33 171.00 291.00 171.00 C 291.00 156.33 291.00 141.67 291.00 127.00 C 293.66 127.00 296.32 127.00 298.99 127.00 C 298.99 126.25 299.01 124.75 299.01 124.00 C 305.34 124.00 311.66 124.00 317.99 124.00 C 317.99 124.75 318.01 126.25 318.01 127.00 C 321.34 127.00 324.67 126.99 328.00 127.00 C 328.00 141.66 328.00 156.33 328.00 170.99 C 327.25 170.99 325.75 171.01 325.00 171.01 C 324.99 172.67 324.99 174.33 325.00 176.00 C 335.00 176.00 345.00 176.00 355.00 176.00 C 355.00 174.33 355.00 172.66 355.00 171.00 C 347.00 171.00 339.00 171.00 331.00 171.00 C 331.00 149.33 331.00 127.67 331.00 106.00 C 332.33 106.00 333.65 106.00 334.99 106.00 C 334.99 105.25 335.01 103.75 335.01 103.00 Z" />
<path fill="#000000" opacity="1.00" d=" M 19.99 175.10 C 31.99 174.91 43.99 175.03 56.00 175.00 C 56.00 177.00 56.00 179.00 56.00 181.00 C 57.67 181.00 59.33 181.00 61.00 181.00 C 61.00 179.00 61.00 177.00 61.00 175.00 C 74.00 175.00 87.00 175.00 100.00 175.00 C 100.00 182.67 100.00 190.33 100.00 198.00 C 103.33 198.00 106.67 198.00 110.00 198.00 C 110.00 197.25 110.00 195.75 110.00 195.00 C 107.67 195.00 105.33 195.00 103.00 195.00 C 103.00 188.33 103.00 181.67 103.00 175.00 C 109.67 175.00 116.33 175.00 123.00 175.00 C 123.00 181.67 123.00 188.33 123.00 195.00 C 121.00 195.00 119.00 195.00 117.00 195.00 C 117.00 195.75 117.00 197.25 117.00 198.00 C 120.67 198.00 124.33 198.00 128.00 198.00 C 128.00 190.33 128.00 182.67 128.00 175.00 C 132.00 175.00 136.00 175.00 140.00 175.00 C 140.00 186.99 140.00 198.97 140.00 210.96 C 140.50 210.98 141.50 211.02 142.00 211.04 C 142.00 214.68 142.00 218.32 142.00 221.95 C 141.50 221.98 140.50 222.02 140.00 222.05 C 140.00 224.69 140.00 227.34 140.00 230.00 C 134.33 230.00 128.67 229.99 123.00 230.00 C 123.00 254.67 123.00 279.33 123.00 304.00 C 118.35 304.00 113.70 304.00 109.04 304.00 C 109.02 304.50 108.98 305.50 108.96 306.00 C 100.99 306.00 93.02 306.00 85.05 306.00 C 85.02 305.50 84.98 304.50 84.96 304.00 C 82.30 304.00 79.65 304.00 77.00 304.00 C 77.00 287.33 77.00 270.67 77.00 254.00 C 88.00 254.00 99.00 254.00 110.00 254.00 C 110.00 246.00 110.00 238.00 110.00 230.00 C 109.25 230.00 107.75 230.00 107.00 230.00 C 107.00 237.00 107.00 244.00 107.00 251.00 C 88.33 251.00 69.67 251.00 51.00 251.00 C 51.00 248.33 51.00 245.67 51.00 243.00 C 49.35 242.99 47.69 242.99 46.04 243.00 C 46.02 243.50 45.98 244.50 45.96 245.00 C 41.00 244.99 36.04 245.06 31.09 244.91 C 22.88 222.66 20.01 198.73 19.99 175.10 M 56.00 200.00 C 56.00 201.33 56.00 202.66 56.00 204.00 C 52.33 204.00 48.67 204.00 45.00 204.00 C 45.00 209.00 45.00 214.00 45.00 219.00 C 46.67 219.00 48.33 219.00 50.00 219.00 C 50.00 215.66 49.99 212.33 50.00 209.00 C 69.00 209.00 88.00 209.00 107.00 209.00 C 107.00 211.67 107.00 214.33 107.00 217.00 C 107.75 217.00 109.25 217.00 110.00 217.00 C 110.00 213.33 110.00 209.67 110.00 206.00 C 93.67 206.00 77.33 206.00 61.00 206.00 C 61.00 204.00 61.00 202.00 61.00 200.00 C 59.33 199.99 57.67 199.99 56.00 200.00 Z" />
<path fill="#000000" opacity="1.00" d=" M 291.00 210.00 C 302.33 210.00 313.67 210.00 325.00 210.00 C 325.00 214.00 325.00 218.00 325.00 222.00 C 325.75 222.00 327.25 222.00 328.00 222.00 C 328.00 218.00 328.00 214.00 328.00 210.00 C 341.00 210.00 354.00 210.00 367.00 210.00 C 367.00 232.00 367.00 254.00 367.00 275.99 C 365.66 275.99 364.33 276.00 363.00 276.01 C 362.99 277.67 362.99 279.33 363.00 281.00 C 364.33 280.99 365.66 281.00 367.00 281.00 C 367.00 287.00 367.00 293.00 367.00 299.00 C 357.67 299.00 348.33 299.00 339.00 299.00 C 339.00 293.01 339.00 287.03 339.00 281.05 C 339.50 281.02 340.50 280.98 341.00 280.95 C 341.00 279.30 341.00 277.65 341.00 276.00 C 338.66 276.00 336.33 276.00 334.00 276.00 C 334.00 285.33 334.00 294.66 334.00 304.00 C 329.68 304.00 325.36 304.00 321.05 304.00 C 321.02 304.50 320.98 305.50 320.95 306.00 C 313.65 306.00 306.35 306.00 299.05 306.00 C 299.02 305.50 298.98 304.50 298.95 304.00 C 296.30 304.00 293.65 304.00 291.00 304.00 C 291.00 290.33 291.00 276.67 291.00 263.00 C 298.67 263.00 306.33 263.00 314.00 263.00 C 314.00 253.00 314.00 243.00 314.00 233.00 C 312.00 233.00 310.00 233.00 308.00 233.00 C 308.00 233.75 308.00 235.24 308.00 235.99 C 308.75 235.99 310.25 236.01 311.00 236.01 C 311.00 244.01 311.00 252.00 311.00 260.00 C 304.33 260.00 297.67 260.00 291.00 260.00 C 291.00 252.00 291.00 244.00 291.00 236.00 C 295.00 236.00 299.00 236.00 303.00 236.00 C 303.00 235.25 303.00 233.75 303.00 233.00 C 299.00 233.00 295.00 233.00 291.00 233.00 C 291.00 231.00 291.00 229.01 291.00 227.01 C 290.25 227.01 288.75 226.99 288.00 226.99 C 288.00 222.66 288.00 218.34 288.00 214.01 C 288.75 214.01 290.25 213.99 291.00 213.99 C 291.00 212.66 291.00 211.33 291.00 210.00 M 325.00 233.00 C 325.00 241.98 325.00 250.97 325.00 259.95 C 324.50 259.98 323.50 260.02 323.00 260.05 C 323.00 260.78 323.00 262.26 323.00 263.00 C 324.66 263.00 326.33 263.00 328.00 263.00 C 328.00 253.00 328.00 243.00 328.00 233.00 C 327.25 233.00 325.75 233.00 325.00 233.00 Z" />
<path fill="#000000" opacity="1.00" d=" M 152.05 233.00 C 156.02 233.00 159.98 233.00 163.95 233.00 C 163.98 233.50 164.02 234.50 164.04 235.00 C 169.69 235.00 175.35 235.00 181.00 235.00 C 181.00 238.00 180.99 241.00 181.00 244.00 C 181.75 244.00 183.25 244.00 184.00 244.00 C 184.00 241.00 183.99 238.00 184.00 235.00 C 191.00 235.00 198.00 235.00 205.00 235.00 C 205.00 243.33 205.00 251.67 205.00 260.00 C 198.00 260.00 191.00 260.00 184.00 260.00 C 183.99 257.00 184.00 254.00 184.00 251.00 C 183.25 251.00 181.75 251.00 181.00 251.00 C 181.00 255.00 181.00 259.00 181.00 263.00 C 189.00 263.00 197.00 263.00 205.00 263.00 C 205.00 277.67 205.00 292.33 205.00 307.00 C 203.33 307.00 201.67 307.00 200.00 307.00 C 199.99 308.66 199.99 310.33 200.00 312.00 C 201.67 312.00 203.33 312.00 205.00 312.00 C 204.99 324.61 205.04 337.22 204.94 349.83 C 188.52 349.48 172.18 347.56 156.11 344.24 C 149.67 342.47 142.92 341.49 136.99 338.26 C 137.01 333.86 137.00 329.45 137.00 325.04 C 137.50 325.02 138.50 324.98 139.00 324.95 C 139.00 323.30 139.00 321.65 139.00 320.00 C 135.33 320.00 131.67 320.00 128.00 320.00 C 128.00 301.00 128.00 282.00 128.00 263.00 C 136.00 262.99 144.00 263.00 152.00 263.00 C 152.00 262.25 152.00 260.75 152.00 260.00 C 144.00 259.99 136.00 260.00 128.00 260.00 C 128.00 251.67 128.00 243.33 128.00 235.00 C 135.99 235.00 143.97 235.00 151.95 235.00 C 151.98 234.50 152.02 233.50 152.05 233.00 M 159.00 260.00 C 159.00 260.75 159.00 262.25 159.00 263.00 C 162.67 263.00 166.33 263.00 170.00 263.00 C 170.00 282.00 170.00 301.00 170.00 320.00 C 167.33 320.00 164.67 320.00 162.00 320.00 C 161.99 321.66 162.00 323.33 162.00 325.00 C 166.33 325.00 170.67 325.00 175.00 325.00 C 175.00 320.67 175.00 316.33 175.00 312.00 C 177.00 312.00 179.00 312.00 181.00 312.00 C 181.00 310.33 181.00 308.66 181.00 307.00 C 178.33 307.00 175.67 307.00 173.00 307.00 C 173.00 291.33 173.00 275.67 173.00 260.00 C 168.33 260.00 163.66 260.00 159.00 260.00 Z" />
<path fill="#000000" opacity="1.00" d=" M 262.05 233.00 C 266.35 233.00 270.65 233.00 274.96 233.00 C 274.98 233.50 275.02 234.50 275.04 235.00 C 278.69 235.00 282.35 235.00 286.00 235.00 C 286.00 243.33 286.00 251.67 286.00 260.00 C 279.33 260.00 272.66 259.99 266.00 260.00 C 266.00 260.75 266.00 262.25 266.00 263.00 C 272.67 263.00 279.33 263.00 286.00 263.00 C 286.00 282.00 286.00 301.00 286.00 320.00 C 282.66 320.00 279.33 319.99 276.00 320.00 C 275.99 321.65 275.99 323.30 276.00 324.95 C 276.50 324.98 277.49 325.02 277.99 325.05 C 278.00 329.75 278.09 334.47 277.85 339.18 C 256.01 346.13 233.11 349.76 210.19 349.83 C 209.76 337.23 210.11 324.61 210.00 312.00 C 211.66 312.00 213.33 312.00 215.00 312.00 C 215.00 310.33 215.00 308.66 215.00 307.00 C 213.33 307.00 211.66 307.00 210.00 307.00 C 210.00 292.33 210.00 277.67 210.00 263.00 C 218.00 262.99 226.00 263.00 234.00 263.00 C 234.00 259.00 234.00 255.00 234.00 251.00 C 233.25 251.00 231.75 251.00 231.00 251.00 C 230.99 254.00 231.00 257.00 231.00 260.00 C 224.00 260.00 217.00 260.00 210.00 260.00 C 210.00 251.67 210.00 243.33 210.00 235.00 C 217.00 235.00 224.00 235.00 231.00 235.00 C 231.00 238.00 230.99 241.00 231.00 244.00 C 231.75 244.00 233.25 244.00 234.00 244.00 C 234.00 241.00 233.99 238.00 234.00 235.00 C 243.32 235.00 252.64 235.00 261.95 235.00 C 261.98 234.50 262.02 233.50 262.05 233.00 M 242.00 260.00 C 242.00 275.67 242.00 291.33 242.00 307.00 C 239.33 307.00 236.67 307.00 234.00 307.00 C 233.99 308.66 233.99 310.33 234.00 312.00 C 236.00 312.00 238.00 312.00 240.00 312.00 C 240.00 316.33 240.00 320.66 240.00 325.00 C 244.33 325.00 248.66 325.00 253.00 325.00 C 253.00 323.33 253.00 321.66 253.00 320.00 C 250.33 320.00 247.66 320.00 245.00 320.00 C 245.00 301.00 245.00 282.00 245.00 263.00 C 248.67 263.00 252.33 263.00 256.00 263.00 C 256.00 262.25 256.00 260.75 256.00 260.00 C 251.33 260.00 246.67 260.00 242.00 260.00 Z" />
</g>
</svg>
