<?xml version="1.0" encoding="UTF-8" ?>
<!DOCTYPE svg PUBLIC "-//W3C//DTD SVG 1.1//EN" "http://www.w3.org/Graphics/SVG/1.1/DTD/svg11.dtd">
<svg width="527pt" height="359pt" viewBox="0 0 527 359" version="1.1" xmlns="http://www.w3.org/2000/svg">
<g id="#000000ff">
<path fill="#000000" opacity="1.00" d=" M 303.00 5.00 C 366.00 5.00 429.00 5.00 492.00 5.00 C 492.39 9.19 491.03 13.75 492.87 17.67 C 493.08 24.22 493.08 30.79 492.87 37.34 C 490.04 45.02 493.98 53.10 492.99 61.00 C 493.50 61.00 494.51 61.00 495.01 61.00 C 494.01 53.10 497.97 45.01 495.13 37.34 C 494.94 31.21 494.89 25.05 495.09 18.92 C 496.46 14.40 495.94 9.66 496.00 5.01 C 501.19 5.10 506.47 4.52 511.58 5.79 C 515.49 11.52 520.14 16.81 522.75 23.33 C 525.54 27.90 526.18 33.24 527.00 38.42 L 527.00 46.39 C 526.46 54.90 524.01 63.32 519.83 70.75 C 517.52 75.13 514.97 79.79 511.03 82.87 C 506.03 83.24 501.01 82.89 496.00 83.00 C 496.00 79.33 496.00 75.66 496.00 72.00 C 494.66 72.00 493.33 72.00 492.00 72.00 C 492.00 76.00 492.00 80.00 492.00 84.00 C 460.67 84.01 429.34 84.00 398.00 84.00 C 397.99 101.00 398.01 118.00 398.00 135.00 C 394.70 135.00 391.40 135.00 388.11 135.00 C 388.05 135.50 387.95 136.50 387.89 137.00 C 383.63 137.00 379.36 137.00 375.10 137.00 C 375.05 136.50 374.95 135.50 374.90 135.00 C 357.93 135.00 340.97 135.00 324.00 135.00 C 324.00 130.66 324.00 126.33 324.00 122.00 C 322.33 122.00 320.66 122.00 319.00 122.00 C 319.00 126.33 319.00 130.66 319.00 135.00 C 312.33 135.00 305.67 135.00 299.00 135.00 C 299.00 119.67 299.00 104.33 299.00 89.00 C 305.67 89.00 312.33 89.00 319.00 89.00 C 319.00 93.00 319.00 97.00 319.00 101.00 C 320.66 101.00 322.33 101.00 324.00 101.00 C 324.00 95.33 324.00 89.67 324.00 84.00 C 317.00 83.99 310.01 84.00 303.01 84.00 C 303.00 82.67 302.99 81.34 302.99 80.01 C 301.66 80.00 300.33 79.99 299.00 79.98 C 299.00 71.66 299.00 63.34 299.00 55.02 C 300.33 55.01 301.66 55.00 303.00 54.99 C 303.00 49.33 303.00 43.67 303.00 38.01 C 301.66 38.00 300.33 37.99 299.00 37.99 C 299.00 29.66 299.00 21.34 299.00 13.02 C 300.33 13.00 301.66 12.99 303.00 12.98 C 302.99 10.32 303.00 7.66 303.00 5.00 Z" />
<path fill="#000000" opacity="1.00" d=" M 401.00 88.00 C 409.33 88.00 417.66 88.00 426.00 88.00 C 426.00 98.00 426.00 108.00 426.00 118.00 C 423.66 118.00 421.33 118.00 419.00 118.01 C 419.00 118.50 419.00 119.50 419.00 119.99 C 422.00 120.00 425.00 120.00 428.00 120.00 C 428.00 109.33 427.99 98.67 428.00 88.00 C 454.33 88.00 480.67 88.00 507.00 88.00 C 507.00 91.33 507.00 94.66 507.00 97.99 C 508.33 98.00 509.66 98.00 511.00 98.01 C 511.00 107.00 511.00 116.00 511.00 124.99 C 509.66 125.00 508.33 125.00 507.00 125.01 C 507.00 128.34 507.00 131.67 507.00 135.00 C 502.00 135.01 497.00 134.99 492.00 135.00 C 492.00 141.67 492.00 148.33 492.00 155.00 C 493.33 155.00 494.66 155.00 496.00 155.00 C 496.00 150.33 495.99 145.67 496.00 141.00 C 500.67 141.00 505.33 141.00 510.00 141.00 C 510.00 153.00 510.00 165.00 510.00 177.00 C 505.33 177.00 500.66 177.00 496.00 177.00 C 496.00 173.66 496.00 170.33 496.00 167.00 C 494.66 167.00 493.33 167.00 492.00 167.00 C 492.00 169.66 492.00 172.33 492.00 175.00 C 461.66 175.00 431.33 175.00 401.00 175.00 C 400.86 169.16 401.26 163.29 400.84 157.48 L 400.06 156.52 C 400.06 152.18 399.75 147.80 400.16 143.48 L 400.93 142.52 C 401.09 135.01 400.95 127.51 401.00 120.00 C 403.33 120.00 405.66 119.99 408.00 119.99 C 408.00 119.50 408.00 118.50 408.00 118.01 C 405.66 118.00 403.33 118.00 401.00 118.00 C 401.00 108.00 401.00 98.00 401.00 88.00 M 423.00 130.00 C 423.00 134.33 423.00 138.67 423.00 143.00 C 424.66 143.00 426.33 143.00 428.00 143.00 C 428.00 138.67 428.00 134.33 428.00 130.00 C 426.33 130.00 424.66 130.00 423.00 130.00 Z" />
<path fill="#000000" opacity="1.00" d=" M 175.00 136.00 C 200.33 136.00 225.66 136.00 251.00 136.00 C 251.00 141.00 251.00 146.00 251.00 151.00 C 247.03 151.00 243.07 151.00 239.11 151.00 C 239.05 151.50 238.95 152.50 238.89 153.00 C 233.30 153.00 227.70 153.00 222.11 153.00 C 222.05 152.50 221.95 151.50 221.89 151.00 C 217.60 151.00 213.30 151.00 209.00 151.00 C 209.00 152.67 209.00 154.33 209.00 156.00 C 213.52 155.56 218.41 157.02 222.66 155.13 C 227.88 154.92 233.12 154.92 238.34 155.13 C 242.26 156.97 246.81 155.60 251.00 156.00 C 251.00 176.33 251.00 196.66 251.00 217.00 C 248.33 216.99 245.66 217.01 243.00 217.01 C 243.00 217.75 243.00 219.25 243.00 220.00 C 247.00 220.00 250.99 220.00 254.99 220.00 C 254.99 221.30 254.99 222.59 255.00 223.89 C 255.50 223.95 256.50 224.05 257.00 224.11 C 257.00 228.37 257.00 232.63 257.00 236.90 C 256.50 236.95 255.50 237.05 255.00 237.11 C 255.00 266.07 255.00 295.03 255.00 324.00 C 250.48 324.44 245.59 322.97 241.34 324.87 C 234.79 325.09 228.23 325.08 221.68 324.87 C 217.75 323.04 213.19 324.38 209.00 324.01 C 209.00 325.67 209.00 327.33 209.00 329.00 C 212.96 329.00 216.93 329.00 220.89 329.00 C 220.95 328.50 221.05 327.50 221.11 327.00 C 228.37 327.00 235.63 327.00 242.90 327.00 C 242.95 327.50 243.05 328.50 243.10 329.00 C 246.73 329.00 250.37 329.00 254.00 329.00 C 253.89 334.35 254.22 339.71 253.88 345.05 C 249.45 349.27 243.46 351.47 237.96 353.99 C 230.37 357.77 221.72 358.19 213.43 359.00 L 210.47 359.00 C 197.17 357.35 184.59 351.57 174.37 342.95 C 175.54 338.39 174.82 333.65 175.00 329.00 C 178.66 329.00 182.33 329.00 186.00 329.00 C 186.00 327.33 186.00 325.66 186.00 324.00 C 182.33 324.00 178.67 324.00 175.00 324.00 C 175.00 305.34 175.00 286.68 175.00 268.02 C 176.33 268.00 177.67 267.99 179.00 267.98 C 179.00 266.66 178.99 265.33 179.00 264.01 C 177.67 264.00 176.33 263.99 175.00 263.98 C 175.00 257.99 175.00 252.00 175.00 246.00 C 189.00 245.99 203.00 246.01 217.00 246.00 C 217.00 244.33 216.99 242.66 216.99 241.00 C 216.51 241.00 215.53 241.00 215.04 241.00 C 215.02 241.75 214.98 243.25 214.96 244.00 C 201.64 244.00 188.32 244.00 175.00 244.00 C 175.00 236.00 175.00 228.00 175.00 220.00 C 188.33 220.00 201.67 220.00 215.00 220.00 C 215.00 223.67 215.00 227.33 215.01 231.00 C 215.50 231.00 216.50 231.00 216.99 231.00 C 217.00 226.33 217.00 221.67 217.00 217.00 C 203.00 216.99 189.00 217.01 175.00 217.00 C 175.00 196.66 175.00 176.33 175.00 156.00 C 179.20 155.90 183.40 156.22 187.59 155.90 C 189.48 154.93 188.92 152.72 189.10 151.00 C 184.40 151.00 179.70 151.00 175.00 151.00 C 175.00 146.00 175.00 141.00 175.00 136.00 Z" />
<path fill="#000000" opacity="1.00" d=" M 400.00 178.00 C 407.67 178.00 415.33 178.00 423.00 178.00 C 423.01 184.00 422.99 190.00 423.01 196.00 C 423.50 196.00 424.50 196.00 424.99 196.00 C 425.01 190.00 424.99 184.00 425.00 178.00 C 447.00 178.00 469.00 178.00 491.00 178.00 C 491.00 181.33 491.00 184.66 491.00 188.00 C 492.66 188.00 494.33 188.00 496.00 188.00 C 496.00 184.67 496.00 181.33 496.00 178.00 C 500.66 178.00 505.33 178.00 510.00 178.00 C 510.00 190.67 510.00 203.33 510.00 216.00 C 505.33 216.00 500.67 216.00 496.00 216.00 C 495.99 210.33 496.00 204.67 496.00 199.00 C 494.33 199.00 492.66 199.00 491.00 199.00 C 491.00 206.33 491.00 213.66 491.00 221.00 C 496.33 221.01 501.66 220.99 507.00 221.00 C 507.00 224.33 507.00 227.66 507.00 230.98 C 507.75 230.99 509.25 231.01 510.00 231.02 C 510.00 237.34 510.00 243.66 510.00 249.98 C 509.25 249.99 507.75 250.01 507.00 250.01 C 507.00 253.01 507.00 256.00 507.00 259.00 C 501.33 259.01 495.66 258.99 490.00 259.00 C 490.00 259.75 490.00 261.25 490.00 262.00 C 497.56 262.09 505.12 261.82 512.67 262.16 C 514.56 265.82 517.25 269.08 518.53 273.04 C 520.71 279.59 522.90 286.19 524.18 292.99 C 524.20 302.49 525.01 312.66 520.48 321.36 C 518.52 327.04 514.57 331.63 511.33 336.58 C 510.60 337.85 509.18 338.35 507.98 339.03 C 505.78 336.67 503.52 334.37 501.29 332.04 C 500.60 332.67 499.21 333.92 498.51 334.55 C 500.76 337.05 503.37 339.18 505.73 341.57 C 498.17 348.54 489.16 354.21 479.09 356.60 C 471.31 358.27 463.33 358.05 455.45 357.39 C 446.58 355.41 438.15 351.97 430.01 348.01 C 428.45 346.82 427.32 345.18 426.01 343.74 C 425.98 337.16 426.01 330.58 426.00 324.00 C 425.25 324.00 423.75 324.00 423.00 324.00 C 422.99 329.33 423.00 334.66 423.00 340.00 C 420.00 340.00 417.01 340.00 414.02 340.00 C 414.01 340.75 413.99 342.25 413.98 343.00 C 406.99 343.00 400.00 343.00 393.02 343.00 C 393.01 342.25 392.99 340.75 392.98 340.00 C 389.99 340.00 386.99 340.00 384.00 340.00 C 384.00 315.67 384.00 291.33 384.00 267.00 C 389.00 266.99 394.00 267.01 399.00 267.00 C 399.00 262.66 399.00 258.33 398.99 254.00 C 398.50 254.00 397.50 254.00 397.00 254.00 C 397.00 257.66 397.00 261.33 397.00 265.00 C 388.33 265.00 379.67 265.00 371.00 265.00 C 371.00 253.00 371.00 241.00 371.00 229.00 C 379.67 229.00 388.33 229.00 397.00 229.00 C 397.00 233.67 396.99 238.33 397.01 243.00 C 397.50 243.00 398.50 243.00 398.99 243.00 C 399.00 237.67 399.00 232.33 399.00 227.00 C 389.67 226.99 380.33 227.01 371.00 227.00 C 371.00 225.35 371.00 223.70 371.00 222.05 C 370.50 222.03 369.50 221.97 369.00 221.95 C 369.00 217.65 369.00 213.35 369.00 209.05 C 369.50 209.03 370.50 208.97 371.00 208.95 C 371.00 198.96 370.99 188.98 371.00 179.00 C 379.67 179.00 388.33 179.00 397.00 179.00 C 397.01 184.67 396.99 190.33 397.00 196.00 C 402.33 196.00 407.67 196.00 413.00 195.99 C 413.00 195.50 413.00 194.50 413.00 194.01 C 408.67 193.99 404.33 194.00 400.00 194.00 C 399.99 188.67 400.00 183.33 400.00 178.00 M 419.00 273.00 C 419.00 274.33 419.00 275.66 419.00 277.00 C 423.00 277.00 427.00 277.00 431.00 277.00 C 430.99 275.66 430.99 274.33 431.00 273.00 C 427.00 273.00 423.00 273.00 419.00 273.00 Z" />
<path fill="#000000" opacity="1.00" d=" M 259.00 244.00 C 281.67 244.00 304.33 244.00 327.00 244.00 C 327.00 247.33 327.00 250.67 327.00 254.00 C 327.50 254.00 328.50 254.00 328.99 254.00 C 329.00 250.67 329.00 247.33 329.00 244.00 C 342.00 244.00 355.00 244.00 368.00 244.00 C 368.00 251.33 368.00 258.66 368.00 266.00 C 355.02 266.01 342.03 265.99 329.05 266.00 C 329.03 265.50 328.97 264.50 328.95 264.00 C 328.46 264.00 327.49 264.00 327.00 264.00 C 327.00 265.33 327.00 266.66 327.00 268.00 C 345.00 268.01 363.00 267.99 381.00 268.00 C 381.00 286.67 381.00 305.33 381.00 324.00 C 376.66 324.00 372.33 323.99 368.00 324.00 C 368.00 325.33 368.00 326.66 368.00 328.00 C 372.00 328.00 376.00 328.00 380.00 328.00 C 380.00 332.67 380.00 337.33 380.00 342.00 C 354.33 342.00 328.67 342.00 303.00 342.00 C 303.00 337.33 303.00 332.67 303.00 328.00 C 306.17 327.99 309.34 328.05 312.51 327.93 C 313.58 326.51 315.47 327.13 316.96 326.97 C 322.81 327.16 328.69 326.73 334.52 327.16 L 335.48 327.93 C 338.99 328.06 342.49 327.98 346.00 328.00 C 345.99 326.66 345.99 325.33 346.00 324.00 C 342.25 324.53 337.79 322.85 334.51 324.93 C 328.68 325.10 322.85 324.93 317.02 325.03 C 315.51 324.85 313.59 325.51 312.52 324.06 C 307.68 323.92 302.84 324.03 298.00 324.00 C 297.99 329.33 298.01 334.66 298.00 340.00 C 295.33 340.00 292.67 340.00 290.02 340.00 C 290.01 340.75 289.99 342.25 289.99 343.00 C 282.33 343.00 274.67 343.00 267.01 343.00 C 267.01 342.25 266.99 340.75 266.98 339.99 C 264.38 339.58 260.79 341.20 259.07 338.57 C 258.91 307.05 259.04 275.52 259.00 244.00 Z" />
</g>
</svg>
