<?xml version="1.0" encoding="UTF-8" ?>
<!DOCTYPE svg PUBLIC "-//W3C//DTD SVG 1.1//EN" "http://www.w3.org/Graphics/SVG/1.1/DTD/svg11.dtd">
<svg width="534pt" height="413pt" viewBox="0 0 534 413" version="1.1" xmlns="http://www.w3.org/2000/svg">
<g id="#000000ff">
<path fill="#000000" opacity="1.00" d=" M 155.85 91.35 C 159.25 87.98 162.61 84.57 166.00 81.20 C 172.05 85.46 178.16 89.65 184.15 93.98 C 200.10 94.02 216.05 93.98 232.00 94.00 C 232.00 101.67 232.00 109.33 232.00 117.00 C 230.33 117.00 228.66 117.00 227.00 117.00 C 227.00 118.67 227.00 120.33 227.00 122.00 C 228.66 122.00 230.33 122.00 232.00 122.00 C 232.00 144.33 232.00 166.67 232.00 189.00 C 215.63 189.02 199.27 188.97 182.90 189.02 C 179.07 185.39 175.39 181.62 171.70 177.86 C 170.82 178.67 169.96 179.48 169.11 180.31 C 172.73 183.53 176.32 186.79 179.95 190.00 C 181.30 190.00 182.65 190.00 184.00 190.01 C 184.00 194.99 184.00 199.97 184.00 204.95 C 183.50 204.97 182.50 205.03 182.00 205.05 C 182.00 207.70 182.00 210.35 182.00 213.00 C 174.98 212.95 167.96 213.10 160.94 212.94 C 157.35 210.52 154.51 207.04 151.18 204.23 C 150.06 205.49 148.95 206.75 147.83 208.00 C 151.60 211.31 155.45 214.53 159.20 217.86 C 159.06 221.40 158.96 224.95 158.77 228.49 C 140.80 246.15 122.93 263.91 104.99 281.59 C 103.07 279.64 101.13 277.69 99.10 275.86 C 98.52 276.24 97.38 277.00 96.80 277.39 C 90.01 270.55 83.23 263.71 76.45 256.86 C 77.01 256.06 77.57 255.26 78.12 254.45 C 76.76 252.93 75.40 251.41 74.03 249.91 C 74.76 249.00 75.51 248.13 76.31 247.29 C 94.89 228.95 113.42 210.55 132.00 192.20 C 133.60 193.79 135.20 195.39 136.81 196.99 C 138.10 195.84 139.41 194.69 140.72 193.54 C 136.93 190.26 133.10 187.02 129.39 183.64 C 128.40 184.76 127.41 185.88 126.42 187.00 C 127.47 188.13 128.52 189.26 129.58 190.39 C 110.26 209.55 90.94 228.72 71.54 247.80 C 68.60 244.85 65.60 241.97 62.64 239.03 C 62.22 239.58 61.37 240.68 60.95 241.23 C 54.51 234.91 48.37 228.30 42.05 221.87 C 42.32 221.39 42.85 220.43 43.12 219.95 C 40.37 217.29 37.58 214.67 34.83 212.01 C 53.70 193.15 72.61 174.33 91.51 155.49 C 99.35 163.03 107.29 170.46 115.15 177.98 C 116.38 176.84 117.63 175.71 118.87 174.57 C 110.91 167.06 103.09 159.40 95.20 151.82 C 103.96 143.17 112.62 134.41 121.47 125.84 C 128.55 133.06 135.70 140.21 142.81 147.40 C 138.65 151.31 134.46 155.18 130.30 159.10 C 131.10 159.89 131.90 160.68 132.70 161.47 C 137.22 156.53 141.74 151.48 147.13 147.47 C 139.53 139.20 131.44 131.38 123.87 123.09 C 133.50 113.78 143.00 104.34 152.61 95.01 C 154.67 97.08 156.74 99.13 158.82 101.18 C 160.15 100.06 161.48 98.93 162.81 97.81 C 160.47 95.67 158.11 93.56 155.85 91.35 M 172.61 115.30 C 174.99 117.58 177.55 119.65 180.01 121.83 C 179.91 127.77 179.91 133.71 179.79 139.65 C 172.04 146.87 164.33 154.14 156.61 161.40 C 155.70 160.43 154.78 159.46 153.87 158.49 C 153.05 159.26 152.23 160.03 151.41 160.81 C 155.78 164.68 160.08 168.64 164.52 172.43 C 164.98 171.91 165.90 170.86 166.36 170.34 C 163.78 167.93 161.22 165.51 158.67 163.06 C 166.80 155.63 174.81 148.07 183.00 140.72 C 183.01 134.48 182.99 128.24 183.00 122.00 C 188.00 121.99 193.00 122.00 198.00 122.00 C 197.99 120.33 197.99 118.67 198.00 117.00 C 192.40 117.00 186.80 117.00 181.20 117.00 C 179.42 115.19 177.62 113.40 175.83 111.61 C 174.76 112.84 173.69 114.07 172.61 115.30 Z" />
<path fill="#000000" opacity="1.00" d=" M 272.02 215.00 C 277.00 215.00 281.99 215.00 286.98 215.00 C 286.99 215.75 287.01 217.25 287.02 218.00 C 299.68 218.00 312.34 218.00 325.00 218.00 C 325.00 227.00 325.00 236.00 325.00 245.00 C 319.00 245.01 313.00 244.99 307.00 245.00 C 307.00 245.75 307.00 247.25 307.00 247.99 C 313.00 248.01 319.00 247.99 325.00 248.00 C 325.00 269.67 325.00 291.33 325.00 313.00 C 322.00 312.99 319.01 313.00 316.02 313.00 C 316.01 313.75 315.99 315.25 315.98 316.00 C 307.66 316.00 299.34 316.00 291.02 316.00 C 291.01 315.25 290.99 313.75 290.98 313.00 C 288.65 313.00 286.33 313.00 284.00 313.00 C 284.00 291.33 284.00 269.67 284.00 248.00 C 286.67 248.00 289.33 248.00 292.00 248.00 C 292.00 247.25 292.00 245.75 292.00 245.01 C 288.33 244.99 284.67 244.99 281.00 245.00 C 280.99 262.00 281.00 279.00 281.00 296.00 C 277.00 296.00 273.00 295.99 269.00 296.00 C 269.00 297.66 269.00 299.33 269.00 301.00 C 272.33 301.00 275.66 301.00 279.00 301.00 C 279.00 310.33 279.00 319.66 279.00 329.00 C 265.00 329.00 251.00 329.00 237.00 329.00 C 237.00 319.67 237.00 310.33 237.00 301.00 C 239.33 301.00 241.67 301.00 244.00 301.00 C 243.99 299.33 243.99 297.66 244.00 296.00 C 241.67 296.00 239.33 296.00 237.00 296.00 C 237.00 281.33 237.00 266.67 237.00 252.00 C 248.67 251.99 260.33 252.01 272.00 252.00 C 272.00 251.25 272.00 249.75 272.00 249.01 C 270.33 249.00 268.66 248.99 267.00 248.99 C 267.00 245.99 266.99 243.00 267.00 240.00 C 266.25 240.00 264.75 240.00 264.00 240.00 C 264.00 243.00 263.99 246.00 264.00 249.00 C 255.00 249.00 246.00 249.00 237.00 249.00 C 237.00 238.66 237.00 228.33 237.00 218.00 C 246.00 218.00 255.00 218.00 264.00 218.00 C 264.00 222.00 263.99 226.00 264.00 230.00 C 264.75 230.00 266.25 230.00 267.00 230.00 C 267.00 226.00 266.99 222.00 267.00 218.00 C 268.66 218.00 270.32 218.00 271.98 218.00 C 271.99 217.25 272.01 215.75 272.02 215.00 Z" />
<path fill="#000000" opacity="1.00" d=" M 190.05 216.00 C 194.68 216.00 199.31 216.00 203.95 216.00 C 203.97 216.50 204.03 217.50 204.05 218.00 C 213.37 218.00 222.68 218.00 232.00 218.00 C 232.00 222.33 232.00 226.66 232.00 231.00 C 222.66 231.01 213.33 230.99 204.00 231.00 C 204.00 231.75 204.00 233.25 204.00 233.99 C 213.33 234.01 222.66 233.99 232.00 234.00 C 232.00 241.00 232.00 248.00 232.00 255.00 C 223.67 255.00 215.33 255.00 207.00 255.00 C 206.99 250.66 207.01 246.33 206.99 242.00 C 206.25 242.00 204.75 242.00 204.00 242.00 C 203.99 246.33 204.00 250.66 204.00 255.00 C 201.66 255.00 199.33 255.00 197.00 255.01 C 197.00 255.75 197.00 257.25 197.00 258.00 C 208.67 258.01 220.33 257.99 232.00 258.00 C 232.00 270.67 232.00 283.33 232.00 296.00 C 229.33 296.00 226.66 296.00 224.00 296.00 C 224.00 297.66 224.00 299.33 224.00 301.00 C 226.66 300.99 229.33 301.00 232.00 301.00 C 232.00 310.33 232.00 319.67 232.00 329.00 C 218.00 329.00 204.00 329.00 190.00 329.00 C 190.00 319.66 190.00 310.33 190.00 301.00 C 193.00 301.00 196.00 300.99 199.00 301.00 C 198.99 299.33 198.99 297.66 199.00 296.00 C 195.33 296.00 191.67 296.00 188.00 296.00 C 187.99 278.66 188.01 261.33 188.00 244.00 C 187.25 244.00 185.75 244.00 185.00 244.00 C 184.99 267.33 185.01 290.67 185.00 314.00 C 182.00 314.00 179.01 314.00 176.02 314.00 C 176.01 314.75 175.99 316.25 175.98 317.00 C 165.99 317.00 156.01 317.00 146.02 317.00 C 146.01 316.25 145.99 314.74 145.98 313.99 C 142.59 313.51 138.19 315.41 135.75 312.25 C 126.17 302.79 116.46 293.48 106.87 284.04 C 122.43 268.46 138.16 253.06 153.83 237.62 C 156.58 240.82 159.18 244.16 162.32 247.00 C 164.54 247.00 166.77 247.00 169.00 247.00 C 169.00 246.25 169.00 244.75 169.00 244.01 C 167.13 244.00 165.25 244.00 163.38 243.99 C 160.93 241.07 158.21 238.39 155.60 235.61 C 157.72 233.40 159.86 231.22 162.00 229.03 C 162.00 225.35 162.00 221.68 162.00 218.00 C 171.32 218.00 180.63 218.00 189.95 218.00 C 189.97 217.50 190.03 216.50 190.05 216.00 Z" />
<path fill="#000000" opacity="1.00" d=" M 349.05 216.00 C 353.68 216.00 358.32 216.00 362.95 216.00 C 362.97 216.50 363.03 217.50 363.05 218.00 C 370.36 218.00 377.68 217.99 385.00 218.00 C 385.00 222.33 384.99 226.67 385.00 231.00 C 385.75 231.00 387.25 231.00 387.99 231.00 C 388.01 226.67 387.99 222.33 388.00 218.00 C 396.67 218.00 405.33 218.00 414.00 218.00 C 414.00 228.33 414.00 238.67 414.00 249.00 C 405.33 249.00 396.67 249.00 388.00 249.00 C 388.00 246.33 387.99 243.66 388.00 241.00 C 387.25 241.00 385.75 241.00 385.00 241.00 C 385.00 243.66 384.99 246.33 385.00 248.99 C 383.66 248.99 382.33 249.00 381.00 249.01 C 381.00 249.76 381.00 251.25 381.00 252.00 C 392.00 252.01 403.00 251.99 414.00 252.00 C 414.00 266.67 414.00 281.33 414.00 296.00 C 411.66 296.00 409.33 296.00 407.00 296.00 C 407.00 297.66 407.00 299.33 407.00 301.00 C 409.33 301.00 411.66 301.00 414.00 301.00 C 414.00 309.67 414.00 318.33 414.00 327.00 C 400.33 327.00 386.67 327.00 373.00 327.00 C 373.00 318.33 373.00 309.67 373.00 301.00 C 377.33 300.99 381.67 301.00 386.00 301.00 C 385.99 299.33 385.99 297.66 386.00 296.00 C 381.00 295.99 376.00 296.01 371.00 296.00 C 370.99 279.00 371.01 262.00 371.00 245.00 C 367.00 245.00 363.00 245.00 359.00 245.00 C 359.00 245.75 359.00 247.25 359.00 248.00 C 362.00 247.99 364.99 248.00 368.00 248.00 C 368.00 269.67 368.00 291.33 368.00 313.00 C 366.33 312.99 364.67 313.00 363.02 313.00 C 363.01 313.75 362.99 315.25 362.98 316.00 C 354.33 316.00 345.67 316.00 337.02 316.00 C 337.01 315.25 336.99 313.75 336.98 313.00 C 333.99 313.00 330.99 313.00 328.00 313.00 C 328.00 291.33 328.00 269.67 328.00 248.00 C 333.67 247.99 339.33 248.01 345.00 248.00 C 345.00 247.25 345.00 245.75 345.00 245.00 C 339.33 244.99 333.67 245.01 328.00 245.00 C 328.00 236.00 328.00 227.00 328.00 218.00 C 334.98 217.99 341.96 218.00 348.95 218.00 C 348.97 217.50 349.03 216.50 349.05 216.00 Z" />
<path fill="#000000" opacity="1.00" d=" M 448.00 216.00 C 452.98 215.99 457.96 216.00 462.95 216.00 C 462.97 216.50 463.03 217.50 463.05 218.00 C 479.03 218.00 495.01 218.00 511.00 218.00 C 511.00 227.00 511.00 236.00 511.00 245.00 C 503.00 245.01 495.00 244.99 487.00 245.01 C 487.00 245.75 487.00 247.25 487.00 248.00 C 495.00 248.01 503.00 247.99 511.00 248.00 C 511.00 269.67 511.00 291.33 511.00 313.00 C 506.67 313.00 502.34 312.99 498.02 313.00 C 498.01 313.75 497.99 315.25 497.98 316.00 C 489.33 316.00 480.67 316.00 472.02 316.00 C 472.01 315.25 471.99 313.75 471.98 313.00 C 467.65 312.99 463.33 313.00 459.00 313.00 C 459.00 291.33 459.00 269.67 459.00 248.00 C 463.67 247.99 468.33 248.01 473.00 247.99 C 473.00 247.25 473.00 245.75 473.00 245.00 C 467.33 244.99 461.67 245.00 456.00 245.00 C 455.99 261.67 456.01 278.33 456.00 295.00 C 452.66 295.00 449.33 295.00 446.00 295.00 C 446.00 296.66 446.00 298.33 446.00 300.00 C 448.66 300.00 451.33 300.00 454.00 300.00 C 454.00 309.00 454.00 318.00 454.00 327.00 C 442.33 327.00 430.67 327.00 419.00 327.00 C 419.00 318.33 419.00 309.67 419.00 301.00 C 421.00 301.00 423.00 300.99 425.00 300.99 C 424.99 299.33 424.99 297.66 425.00 296.00 C 423.00 296.00 421.00 295.99 419.00 296.00 C 419.00 281.33 419.00 266.67 419.00 252.00 C 428.67 251.99 438.33 252.01 448.00 252.00 C 448.00 248.00 448.00 244.00 448.00 240.00 C 447.25 240.00 445.75 240.00 445.00 240.00 C 445.00 243.00 444.99 246.00 445.00 249.00 C 436.33 249.00 427.67 249.00 419.00 249.00 C 419.00 238.66 419.00 228.33 419.00 218.00 C 427.67 218.00 436.33 218.00 445.00 218.00 C 445.00 222.33 444.99 226.67 445.01 231.00 C 445.75 231.00 447.25 231.00 448.00 231.00 C 448.01 226.00 447.99 221.00 448.00 216.00 Z" />
</g>
</svg>
