<?xml version="1.0" encoding="UTF-8" ?>
<!DOCTYPE svg PUBLIC "-//W3C//DTD SVG 1.1//EN" "http://www.w3.org/Graphics/SVG/1.1/DTD/svg11.dtd">
<svg width="534pt" height="413pt" viewBox="0 0 534 413" version="1.1" xmlns="http://www.w3.org/2000/svg">
<g id="#000000ff">
<path fill="#000000" opacity="1.00" d=" M 375.00 91.00 C 386.72 91.00 398.44 91.00 410.17 91.00 C 409.99 99.41 410.50 107.92 409.32 116.26 C 407.24 118.24 405.19 120.24 403.17 122.26 C 406.11 122.56 409.06 122.86 412.02 123.15 C 411.98 138.10 412.00 153.05 412.00 168.00 C 417.66 168.00 423.33 168.00 429.00 168.00 C 429.00 167.25 429.00 165.76 429.00 165.01 C 424.32 165.00 419.67 165.01 415.00 164.99 C 415.00 144.42 414.98 123.85 415.03 103.28 C 431.50 100.16 448.62 98.39 464.95 103.30 C 465.03 123.86 465.00 144.43 465.00 164.99 C 457.99 164.99 450.99 165.00 444.00 165.01 C 444.00 165.76 444.00 167.26 444.00 168.01 C 451.99 167.99 460.00 168.00 468.00 168.00 C 468.00 146.43 467.98 124.87 468.03 103.30 C 482.27 101.16 496.75 100.46 510.98 103.14 C 511.01 126.10 511.00 149.05 511.00 172.01 C 501.33 171.99 491.68 172.01 482.03 171.99 C 482.01 170.25 481.99 166.76 481.97 165.02 C 481.23 165.01 479.74 164.99 479.00 164.99 C 479.00 167.49 479.00 172.49 479.00 174.99 C 489.66 175.00 500.33 175.00 511.00 175.01 C 510.99 187.67 511.00 200.33 511.00 213.00 C 501.33 212.99 491.67 213.01 482.01 213.00 C 481.98 203.62 482.00 194.25 482.00 184.88 C 480.13 185.04 476.39 185.36 474.51 185.52 C 475.92 186.22 477.33 186.90 478.76 187.58 C 478.91 196.05 479.01 204.52 479.04 213.00 C 474.67 212.99 470.35 213.01 466.01 213.00 C 465.99 205.33 465.99 197.66 465.99 190.00 C 455.32 189.99 444.66 190.00 434.00 190.00 C 434.00 190.75 434.00 192.24 434.00 192.99 C 443.66 193.01 453.34 192.99 463.01 193.01 C 462.99 200.78 462.99 208.55 462.98 216.33 C 433.55 211.32 403.65 213.33 373.95 212.98 C 372.45 206.40 371.45 199.72 370.63 193.03 C 387.75 192.98 404.87 193.00 422.00 193.00 C 422.00 192.25 422.00 190.76 422.00 190.01 C 414.00 189.99 406.02 189.99 398.03 189.99 C 398.02 188.25 397.99 184.76 397.98 183.01 C 397.24 183.01 395.77 183.01 395.03 183.00 C 395.01 184.75 394.99 188.24 394.97 189.99 C 388.31 190.00 381.65 190.00 375.00 190.00 C 375.00 182.56 375.00 175.13 375.00 167.70 C 381.24 167.78 387.47 168.13 393.68 168.76 C 394.27 170.06 395.45 172.68 396.03 173.98 C 398.32 170.93 400.85 168.08 403.39 165.24 C 393.92 165.05 384.46 165.01 375.00 164.97 C 375.00 150.98 375.00 137.00 375.00 123.01 C 378.75 123.00 386.25 122.99 390.00 122.98 L 390.00 118.02 C 386.25 118.01 378.75 117.99 375.00 117.98 C 375.00 108.99 375.00 99.99 375.00 91.00 Z" />
</g>
</svg>
