<?xml version="1.0" encoding="UTF-8" ?>
<!DOCTYPE svg PUBLIC "-//W3C//DTD SVG 1.1//EN" "http://www.w3.org/Graphics/SVG/1.1/DTD/svg11.dtd">
<svg width="527pt" height="331pt" viewBox="0 0 527 331" version="1.1" xmlns="http://www.w3.org/2000/svg">
<g id="#000000ff">
<path fill="#000000" opacity="1.00" d=" M 9.00 16.00 C 25.33 16.00 41.67 16.00 58.00 16.00 C 58.00 25.00 58.00 34.00 58.00 43.00 C 55.00 42.99 52.00 43.01 49.00 43.00 C 49.00 46.67 49.00 50.33 49.00 54.00 C 54.00 54.00 59.00 54.00 64.00 54.00 C 63.98 83.53 64.04 113.06 63.97 142.58 C 61.94 145.25 56.72 146.82 58.11 150.91 C 60.77 148.30 63.34 145.59 66.03 143.00 C 68.69 143.00 71.34 143.01 74.00 143.00 C 74.00 148.66 74.00 154.32 74.00 159.99 C 74.75 159.99 76.25 160.01 77.00 160.01 C 77.00 165.34 77.00 170.66 77.00 175.99 C 76.25 175.99 74.75 176.01 74.00 176.01 C 74.00 178.67 74.00 181.34 74.00 184.00 C 62.33 184.00 50.67 184.00 39.00 184.00 C 39.00 181.33 39.00 178.66 39.00 176.00 C 38.50 176.00 37.50 176.00 37.00 176.00 C 37.00 178.67 37.00 181.33 37.00 184.00 C 27.67 184.00 18.33 184.00 9.00 184.00 C 9.00 173.67 9.00 163.33 9.00 153.00 C 18.33 153.00 27.67 153.00 37.00 153.00 C 36.99 156.00 37.01 159.00 37.00 162.00 C 37.50 162.00 38.50 162.00 39.00 162.00 C 39.00 158.33 39.00 154.66 39.00 151.00 C 29.00 151.00 19.00 151.00 9.00 151.00 C 9.00 118.67 9.00 86.33 9.00 54.00 C 17.00 54.00 25.00 54.00 33.00 54.00 C 33.00 53.50 33.00 52.50 33.00 52.00 C 28.00 52.00 23.00 52.00 18.00 52.00 C 18.00 49.33 18.00 46.67 18.00 44.00 C 23.00 44.00 28.00 44.00 33.00 44.00 L 33.00 43.00 C 25.00 43.00 17.00 43.00 9.00 43.00 C 9.00 34.00 9.00 25.00 9.00 16.00 Z" />
<path fill="#000000" opacity="1.00" d=" M 469.00 17.00 C 485.33 17.00 501.67 17.00 518.00 17.00 C 518.00 25.67 518.00 34.33 518.00 43.00 C 509.00 43.00 500.00 43.00 491.00 43.00 L 491.00 44.00 C 496.33 44.00 501.67 44.00 507.00 44.00 C 507.00 47.00 506.99 50.00 507.00 53.00 C 501.67 53.00 496.33 53.00 491.00 53.00 L 490.99 54.00 C 500.00 54.00 509.00 54.00 518.00 54.00 C 518.00 86.00 518.00 118.00 518.00 150.00 C 506.67 150.00 495.33 150.00 484.00 150.00 C 484.00 141.33 484.00 132.67 484.00 124.00 C 483.25 124.00 481.75 124.00 481.00 124.00 C 481.00 133.67 481.00 143.33 481.00 153.00 C 493.33 153.00 505.67 153.00 518.00 153.00 C 518.00 163.33 518.00 173.67 518.00 184.00 C 500.33 184.00 482.67 184.00 465.00 184.00 C 465.00 172.33 465.00 160.67 465.00 149.00 C 462.00 149.00 459.00 149.00 456.01 149.00 C 456.01 149.75 455.99 151.25 455.99 152.00 C 450.66 152.00 445.34 152.00 440.01 152.00 C 440.01 151.25 439.99 149.75 439.99 149.00 C 435.99 149.01 431.99 148.99 428.00 149.00 C 428.00 141.33 428.00 133.67 428.00 126.00 C 439.33 126.00 450.67 126.00 462.00 126.00 C 462.00 102.00 462.00 78.00 462.00 54.00 C 467.33 54.00 472.66 54.00 478.00 54.00 C 478.00 50.33 478.00 46.67 478.00 43.00 C 475.00 43.01 472.00 42.99 469.00 43.00 C 469.00 34.33 469.00 25.67 469.00 17.00 Z" />
<path fill="#000000" opacity="1.00" d=" M 134.00 32.00 C 147.67 32.00 161.33 32.00 175.00 32.00 C 175.00 42.33 175.00 52.67 175.00 63.00 C 168.33 63.00 161.67 63.00 155.00 63.00 L 155.00 64.00 C 159.00 63.99 163.00 64.01 167.00 64.00 C 167.00 66.67 167.00 69.33 167.00 72.00 C 163.00 71.99 159.00 72.01 155.00 72.00 L 155.00 73.00 C 159.18 73.45 163.75 71.96 167.64 73.88 C 170.09 74.04 172.55 74.03 175.00 74.00 C 175.00 88.00 175.00 102.00 175.00 116.00 C 163.33 116.00 151.67 116.00 140.00 116.00 C 140.00 116.74 140.00 118.22 140.00 118.96 C 140.50 118.98 141.50 119.02 142.00 119.04 C 141.99 123.36 142.00 127.68 142.00 132.00 C 142.50 132.00 143.50 132.00 144.00 132.00 C 143.99 127.67 144.01 123.33 144.00 119.00 C 154.33 119.00 164.67 119.00 175.00 119.00 C 175.00 129.00 175.00 139.00 175.00 149.00 C 164.67 149.00 154.34 149.00 144.00 149.00 C 144.00 147.33 144.00 145.66 144.00 144.00 C 143.50 144.00 142.50 144.00 142.00 144.00 C 142.00 145.65 142.00 147.30 142.00 148.96 C 141.50 148.98 140.50 149.02 140.00 149.04 C 140.00 149.78 140.00 151.26 140.00 152.00 C 134.67 152.00 129.34 152.00 124.01 152.00 C 124.01 151.25 123.99 149.75 123.99 149.00 C 108.99 149.00 93.99 149.00 79.00 149.00 C 79.02 145.66 78.98 142.33 79.00 139.00 C 75.33 139.02 71.67 138.98 68.00 139.00 C 68.00 132.00 68.00 125.00 68.00 118.00 C 87.00 118.00 106.00 118.00 125.00 118.00 C 125.00 117.50 125.00 116.50 125.00 116.00 C 106.00 116.00 87.00 116.00 68.00 116.00 C 68.00 95.33 68.00 74.67 68.00 54.00 C 87.00 54.00 106.00 54.00 125.00 54.00 C 125.00 60.67 125.00 67.33 125.00 74.00 C 130.33 74.00 135.67 74.00 141.00 74.00 C 141.00 70.33 141.00 66.67 141.00 63.00 C 138.33 63.00 135.66 63.00 133.00 63.00 C 133.07 56.88 132.85 50.76 133.12 44.64 C 135.03 40.75 133.55 36.18 134.00 32.00 Z" />
<path fill="#000000" opacity="1.00" d=" M 352.00 32.00 C 366.00 32.00 380.00 32.00 394.00 32.00 C 394.00 42.67 394.00 53.33 394.00 64.00 C 391.66 64.00 389.33 64.00 387.00 64.00 C 387.00 66.67 387.00 69.33 387.00 72.00 C 392.00 72.00 397.00 72.00 402.00 72.00 C 402.00 66.00 402.00 60.00 402.00 54.00 C 420.67 54.00 439.33 54.00 458.00 54.00 C 458.00 76.33 458.00 98.67 458.00 121.00 C 440.00 121.00 422.00 121.00 404.00 121.00 C 404.00 121.50 404.00 122.50 404.00 123.00 C 410.67 123.00 417.33 123.00 424.00 123.00 C 424.00 131.67 424.00 140.33 424.00 149.00 C 416.35 149.00 408.70 149.00 401.05 149.00 C 401.02 149.50 400.98 150.50 400.95 151.00 C 395.63 151.00 390.32 151.00 385.00 151.00 C 385.00 149.00 385.00 147.00 385.00 145.00 C 384.25 145.00 382.75 145.00 382.01 145.00 C 382.00 146.33 381.99 147.66 382.00 149.00 C 372.00 149.00 362.00 149.00 352.00 149.00 C 352.00 139.00 352.00 129.00 352.00 119.00 C 362.00 119.00 372.00 119.00 382.00 119.00 C 381.99 123.33 382.01 127.67 382.00 132.00 C 382.75 132.00 384.25 132.00 385.00 132.00 C 385.00 127.00 385.00 122.00 385.00 117.00 C 374.33 117.00 363.67 117.00 353.00 117.00 C 353.00 103.00 353.00 89.00 353.00 75.00 C 359.33 75.00 365.67 75.00 372.00 75.00 C 372.00 74.50 372.00 73.50 372.00 73.00 C 366.66 73.00 361.33 73.00 356.00 73.00 C 356.00 70.33 356.00 67.67 356.00 65.00 C 361.33 65.00 366.66 65.00 372.00 65.00 L 372.00 64.00 C 365.33 64.00 358.67 64.00 352.00 64.00 C 352.00 53.33 352.00 42.67 352.00 32.00 Z" />
<path fill="#000000" opacity="1.00" d=" M 79.00 43.00 C 90.00 43.00 101.00 43.00 112.00 43.00 C 112.00 46.00 112.00 49.00 112.00 52.00 C 101.00 52.00 90.00 52.00 79.00 52.00 C 79.00 49.00 79.00 46.00 79.00 43.00 Z" />
<path fill="#000000" opacity="1.00" d=" M 443.00 186.00 C 448.33 186.00 453.66 186.00 459.00 186.00 C 458.99 188.66 459.00 191.33 459.00 194.00 C 463.33 193.99 467.67 194.01 472.00 194.00 C 472.00 201.67 472.00 209.33 472.00 217.00 C 472.50 217.00 473.50 217.00 474.00 217.00 C 474.00 209.33 474.00 201.67 474.00 194.00 C 488.67 194.00 503.33 194.00 518.00 194.00 C 518.00 231.33 518.00 268.67 518.00 306.00 C 498.33 306.00 478.67 306.00 459.00 306.00 C 459.00 282.00 459.00 258.00 459.00 234.00 C 464.00 234.00 469.00 234.00 474.00 234.00 C 474.00 233.25 474.00 231.75 474.00 231.00 C 467.66 231.00 461.33 231.00 455.00 231.00 C 455.00 249.33 455.00 267.67 455.00 286.00 C 449.67 286.00 444.33 286.00 439.00 286.00 C 439.00 290.00 439.00 294.00 439.00 298.00 C 442.66 297.98 446.33 298.02 450.00 298.00 C 450.00 308.00 450.00 318.00 450.00 328.00 C 436.00 328.00 422.00 328.00 408.00 328.00 C 408.00 318.00 408.00 308.00 408.00 298.00 C 414.00 298.00 420.00 298.00 426.00 298.00 C 426.00 297.50 426.00 296.50 426.00 296.00 C 421.66 296.01 417.33 295.99 413.00 296.00 C 413.00 293.33 413.00 290.66 413.00 288.00 C 417.33 288.01 421.66 287.99 426.00 288.00 C 426.00 287.50 426.00 286.50 426.00 286.00 C 420.00 286.00 414.00 286.00 408.00 286.00 C 408.00 268.67 408.00 251.33 408.00 234.00 C 418.67 234.00 429.33 234.00 440.00 234.00 C 440.00 220.67 440.00 207.34 440.00 194.01 C 440.75 194.01 442.25 193.99 443.00 193.99 C 443.00 191.32 443.00 188.66 443.00 186.00 Z" />
<path fill="#000000" opacity="1.00" d=" M 84.62 188.08 C 89.41 187.91 94.20 188.04 99.00 188.00 C 98.99 189.98 98.99 191.97 99.00 193.96 C 99.50 193.98 100.50 194.02 101.00 194.04 C 101.00 205.69 101.00 217.35 101.00 229.00 C 86.00 229.00 71.00 229.00 56.00 229.00 C 56.00 248.33 56.00 267.67 56.00 287.00 C 47.00 287.00 38.00 287.00 29.00 287.00 L 29.00 288.00 C 34.00 288.00 39.00 288.00 44.00 288.00 C 44.00 290.66 44.00 293.33 44.00 296.00 C 39.00 296.00 34.00 296.00 29.00 296.00 L 29.00 297.00 C 36.67 297.00 44.33 297.00 52.00 297.00 C 52.00 302.66 52.00 308.33 52.00 314.00 C 35.33 314.00 18.67 314.00 2.00 314.00 C 2.00 308.33 2.00 302.67 2.00 297.00 C 6.33 297.01 10.67 296.99 15.00 297.00 C 15.00 293.67 15.00 290.33 15.00 287.00 C 13.00 287.00 11.00 287.00 9.00 287.00 C 9.00 267.00 9.00 247.00 9.00 227.00 C 19.00 227.00 29.00 227.00 39.00 227.00 C 39.00 222.33 39.00 217.67 39.00 213.00 C 38.50 213.00 37.50 213.00 37.00 213.00 C 37.02 216.67 36.98 220.33 37.00 224.00 C 27.67 224.00 18.33 224.00 9.00 224.00 C 9.00 214.00 9.00 204.00 9.00 194.00 C 18.33 194.00 27.67 194.00 37.00 194.00 C 37.00 196.66 37.00 199.33 37.00 202.00 C 37.50 202.00 38.50 202.00 39.00 202.00 C 39.00 199.33 39.00 196.67 39.00 194.00 C 53.33 194.00 67.66 194.00 81.99 194.00 C 82.00 192.46 82.01 190.91 82.00 189.37 C 82.65 189.05 83.96 188.41 84.62 188.08 Z" />
<path fill="#000000" opacity="1.00" d=" M 124.00 189.00 C 129.34 189.00 134.67 189.00 140.00 189.00 C 140.00 190.65 140.00 192.30 140.00 193.96 C 140.50 193.98 141.50 194.02 142.00 194.04 C 141.99 197.70 142.01 201.35 142.00 205.00 C 142.50 205.00 143.50 205.00 144.00 205.00 C 143.98 201.33 144.02 197.67 144.00 194.00 C 154.00 194.00 164.00 194.00 174.00 194.00 C 174.00 206.33 174.00 218.67 174.00 231.00 C 164.00 231.00 154.00 231.00 144.00 231.00 C 144.01 226.67 143.99 222.33 144.00 218.00 C 143.50 218.00 142.50 218.00 142.00 218.00 C 142.00 223.00 142.00 228.00 142.00 233.00 C 152.67 233.00 163.33 233.00 174.00 233.00 C 174.00 251.00 174.00 269.00 174.00 287.00 C 165.67 287.00 157.34 287.00 149.02 287.00 L 148.97 288.00 C 154.65 288.00 160.33 288.00 166.00 288.00 C 166.00 290.66 166.00 293.33 166.00 296.00 C 160.33 296.00 154.67 296.00 149.00 296.00 C 149.00 296.50 149.00 297.50 149.00 298.00 C 154.96 297.88 160.95 298.21 166.90 297.89 C 167.33 297.70 168.20 297.31 168.64 297.11 C 170.42 297.01 172.21 296.98 174.00 296.98 C 174.00 307.32 174.00 317.66 174.00 328.00 C 157.33 328.00 140.67 328.00 124.00 328.00 C 124.00 317.67 124.00 307.33 124.00 297.00 C 127.67 297.01 131.33 296.98 135.00 297.00 C 135.00 293.67 135.00 290.33 135.00 287.00 C 128.67 287.00 122.33 287.00 116.00 287.00 C 116.00 293.33 116.00 299.67 116.00 306.00 C 97.33 306.00 78.67 306.00 60.00 306.00 C 60.00 281.67 60.00 257.33 60.00 233.00 C 81.00 233.00 102.00 233.00 123.00 233.00 C 123.00 232.50 123.00 231.50 123.00 231.00 C 117.33 231.00 111.67 231.00 106.00 231.00 C 106.00 218.33 106.00 205.67 106.00 193.00 C 112.00 193.00 118.00 193.00 123.99 193.00 C 124.00 191.67 124.00 190.33 124.00 189.00 Z" />
<path fill="#000000" opacity="1.00" d=" M 225.00 189.00 C 230.33 189.00 235.66 189.00 241.00 189.00 C 241.00 190.66 241.00 192.33 241.00 194.00 C 244.00 193.99 247.00 194.01 250.00 194.00 C 250.00 207.00 250.00 220.00 250.00 233.00 C 250.75 233.00 252.25 233.00 253.00 233.00 C 253.00 220.00 253.00 207.00 253.00 194.00 C 264.00 194.00 275.00 194.00 286.00 194.00 C 286.00 231.33 286.00 268.67 286.00 306.00 C 270.67 306.00 255.33 306.00 240.00 306.00 C 240.00 299.67 240.00 293.33 240.00 287.00 C 238.00 287.00 236.00 287.00 234.00 287.00 C 234.00 268.33 234.00 249.67 234.00 231.00 C 233.50 231.00 232.50 231.00 232.00 231.00 C 232.00 249.67 232.00 268.33 232.00 287.00 C 227.67 286.99 223.33 287.01 219.00 287.00 C 219.00 290.33 219.00 293.67 219.00 297.00 C 223.00 296.99 227.00 297.01 231.00 297.00 C 231.00 307.33 231.00 317.67 231.00 328.00 C 215.33 328.00 199.67 328.00 184.00 328.00 C 184.00 318.00 184.00 308.00 184.00 298.00 C 189.95 297.88 195.93 298.21 201.87 297.89 C 202.31 297.71 203.19 297.34 203.63 297.15 C 204.22 297.10 205.41 296.99 206.00 296.93 L 206.00 296.00 C 201.33 296.00 196.66 295.99 192.00 296.00 C 192.00 293.33 192.00 290.66 192.00 288.00 C 196.66 288.00 201.33 287.99 206.00 288.00 L 206.00 287.00 C 198.67 287.00 191.33 287.00 184.00 287.00 C 184.00 269.00 184.00 251.00 184.00 233.00 C 195.33 233.00 206.67 233.00 218.00 233.00 C 218.00 228.67 218.00 224.33 218.00 220.00 C 217.25 220.00 215.75 220.00 215.00 220.00 C 215.01 223.67 214.98 227.33 215.00 231.00 C 204.67 231.00 194.33 231.00 184.00 231.00 C 184.00 218.67 184.00 206.33 184.00 194.00 C 194.33 194.00 204.67 194.00 215.00 194.00 C 214.99 198.67 215.00 203.33 215.00 208.00 C 215.75 208.00 217.25 208.00 218.00 208.00 C 217.99 203.33 218.00 198.67 218.00 194.00 C 220.33 194.00 222.66 194.00 225.00 194.00 C 225.00 192.33 225.00 190.66 225.00 189.00 Z" />
<path fill="#000000" opacity="1.00" d=" M 353.00 189.00 C 358.33 189.00 363.67 189.00 369.00 189.00 C 368.99 190.65 368.99 192.30 369.00 193.96 C 369.50 193.98 370.50 194.02 371.00 194.05 C 370.99 198.70 371.00 203.35 371.00 208.00 C 371.75 208.00 373.25 208.00 374.00 208.00 C 373.99 203.33 374.00 198.67 374.00 194.00 C 382.33 194.00 390.67 194.00 399.00 194.00 C 399.00 206.33 399.00 218.67 399.00 231.00 C 388.33 231.00 377.66 231.00 367.00 231.00 C 367.02 227.66 366.98 224.33 367.00 221.00 C 366.50 221.00 365.50 221.00 365.00 221.00 C 365.00 225.33 365.00 229.67 365.00 234.00 C 376.33 234.00 387.67 234.00 399.00 234.00 C 399.00 251.33 399.00 268.67 399.00 286.00 C 392.33 286.00 385.67 286.00 379.00 286.00 C 379.00 286.50 379.00 287.50 379.00 288.00 C 383.00 287.98 387.00 288.01 391.00 288.00 C 390.99 290.66 390.99 293.33 391.00 296.00 C 387.00 295.98 383.00 296.01 379.00 296.00 C 379.00 296.50 379.00 297.50 379.00 298.00 C 385.67 298.00 392.33 298.00 399.00 298.00 C 399.00 308.00 399.00 318.00 399.00 328.00 C 383.00 328.00 367.00 328.00 351.00 328.00 C 351.00 317.67 351.00 307.33 351.00 297.00 C 355.66 297.00 360.33 296.99 365.00 297.00 C 365.00 293.67 365.00 290.33 365.00 287.00 C 359.66 287.00 354.33 287.00 349.00 287.00 C 349.00 268.33 349.00 249.67 349.00 231.00 C 348.50 231.00 347.50 231.00 347.00 231.00 C 347.00 249.66 347.00 268.33 347.00 286.99 C 345.66 286.99 344.33 287.00 343.00 287.01 C 343.00 293.34 343.00 299.67 343.00 306.00 C 325.33 306.00 307.67 306.00 290.00 306.00 C 290.00 268.67 290.00 231.33 290.00 194.00 C 303.00 194.00 316.00 194.00 329.00 194.00 C 329.00 201.00 329.00 208.00 329.00 215.00 C 329.50 215.00 330.50 215.00 331.00 215.00 C 331.00 208.00 331.00 201.00 331.00 194.00 C 338.33 194.00 345.66 194.00 353.00 194.00 C 352.99 192.33 353.00 190.66 353.00 189.00 Z" />
<path fill="#000000" opacity="1.00" d=" M 408.00 194.00 C 418.00 194.00 428.00 194.00 438.00 194.00 C 438.00 206.33 438.00 218.67 438.00 231.00 C 428.00 231.00 418.00 231.00 408.00 231.00 C 408.00 218.67 408.00 206.33 408.00 194.00 Z" />
</g>
</svg>
