<?xml version="1.0" encoding="UTF-8" ?>
<!DOCTYPE svg PUBLIC "-//W3C//DTD SVG 1.1//EN" "http://www.w3.org/Graphics/SVG/1.1/DTD/svg11.dtd">
<svg width="534pt" height="413pt" viewBox="0 0 534 413" version="1.1" xmlns="http://www.w3.org/2000/svg">
<g id="#000000ff">
<path fill="#000000" opacity="1.00" d=" M 142.00 78.00 C 155.67 78.00 169.34 78.00 183.02 78.00 C 183.01 89.24 183.00 100.48 182.83 111.72 C 179.08 112.60 174.88 113.27 172.36 116.59 C 175.84 117.13 179.46 117.76 182.99 118.26 C 183.01 144.84 183.00 171.42 183.00 198.00 C 172.33 198.00 161.67 198.00 151.00 198.00 C 151.00 191.00 151.00 184.00 151.00 177.00 C 150.25 177.00 148.75 177.00 148.01 177.00 C 147.99 185.00 147.99 193.00 148.00 201.00 C 160.81 201.00 173.61 200.99 186.42 201.01 C 185.95 209.43 185.37 217.89 182.80 225.97 C 172.33 225.99 161.87 225.99 151.41 225.96 C 150.69 222.43 150.02 218.92 149.23 215.42 C 148.85 219.31 148.08 227.10 147.69 230.99 C 159.46 231.00 171.23 231.00 183.00 231.00 C 183.00 236.33 183.00 241.66 183.00 247.00 C 171.33 247.00 159.67 247.00 148.00 247.00 C 148.00 247.75 148.00 249.25 148.00 250.00 C 159.66 250.00 171.33 250.00 182.99 250.00 C 183.00 258.66 183.01 267.33 183.00 276.00 C 172.33 276.00 161.67 276.00 151.00 276.00 C 151.00 272.25 151.00 264.75 151.00 261.00 C 150.25 261.00 148.75 261.00 148.00 261.00 C 147.99 266.99 148.00 273.00 148.00 279.00 C 159.66 279.00 171.32 279.00 182.98 279.00 C 182.91 294.16 183.48 309.34 182.71 324.49 C 180.31 324.80 175.51 325.42 173.11 325.73 L 173.14 329.22 C 175.51 329.60 180.24 330.37 182.61 330.76 C 183.41 342.82 183.01 354.92 183.01 367.00 C 165.67 367.00 148.33 367.00 131.00 367.00 C 131.00 354.66 131.00 342.33 131.00 330.01 C 135.00 330.00 139.00 329.99 143.00 329.99 L 143.00 325.01 C 138.33 324.99 133.67 325.00 129.00 325.00 C 129.00 301.33 129.00 277.66 129.00 254.00 C 128.25 254.00 126.75 254.00 126.00 254.00 C 125.99 285.20 126.02 316.40 125.98 347.60 C 114.93 348.31 104.14 351.57 93.00 351.04 C 84.19 351.23 75.66 349.03 67.03 347.66 C 66.96 317.44 67.01 287.23 67.00 257.02 C 79.90 257.00 92.81 257.16 105.71 256.61 C 103.01 254.46 100.29 252.30 97.46 250.35 C 87.91 254.83 77.25 253.96 67.01 254.11 C 66.99 246.40 66.99 238.70 67.00 231.00 C 76.67 231.00 86.33 231.00 95.99 231.00 C 96.00 233.66 96.00 236.33 96.01 239.00 C 96.76 239.00 98.25 239.00 99.00 239.00 C 99.00 232.33 99.00 225.66 99.00 218.99 C 98.26 219.00 96.76 219.01 96.01 219.01 C 96.01 220.76 95.99 224.25 95.99 226.00 C 86.32 225.99 76.66 226.00 67.00 226.00 C 67.00 210.67 67.00 195.33 67.00 180.00 C 76.67 180.00 86.33 180.00 96.00 180.00 C 96.00 189.00 96.00 198.00 96.00 207.00 C 96.75 207.00 98.25 207.00 99.00 207.00 C 99.00 198.00 99.00 189.01 99.00 180.01 C 100.75 180.01 104.25 180.00 105.99 179.99 C 106.00 179.24 106.00 177.75 106.00 177.00 C 93.00 176.99 80.00 177.01 67.00 177.00 C 67.00 149.41 66.99 121.82 67.00 94.23 C 77.35 93.96 87.67 93.05 97.99 92.33 C 111.05 91.44 123.97 93.83 136.99 94.26 C 137.01 121.84 137.00 149.42 137.00 176.99 C 133.00 176.99 129.00 177.00 125.00 177.00 C 125.00 177.75 125.00 179.25 125.00 180.00 C 128.75 180.00 136.25 180.00 140.00 180.00 C 140.00 159.33 140.00 138.67 140.00 118.01 C 144.33 118.00 148.67 118.00 153.00 118.00 L 153.00 113.01 C 150.25 113.01 144.75 113.00 142.00 112.99 C 142.00 101.33 142.00 89.66 142.00 78.00 Z" />
<path fill="#000000" opacity="1.00" d=" M 354.00 78.00 C 368.34 78.00 382.68 78.00 397.02 78.00 C 397.01 88.60 397.00 99.21 396.83 109.81 C 393.75 110.90 390.94 112.45 388.39 114.44 C 391.79 115.05 395.49 115.73 398.99 116.29 C 399.00 134.53 399.00 152.76 399.00 171.00 C 405.99 171.00 412.99 171.00 420.00 171.00 C 420.00 170.25 420.00 168.75 420.00 168.00 C 413.99 168.00 408.00 168.00 402.00 168.00 C 402.00 143.17 401.97 118.34 402.03 93.51 C 413.44 93.02 424.51 89.40 436.00 89.92 C 445.49 89.53 454.65 92.11 463.96 93.38 C 464.03 118.25 463.99 143.12 464.00 168.00 C 455.33 168.00 446.66 168.00 438.00 168.00 C 438.00 168.75 438.00 170.25 438.00 171.00 C 447.66 171.00 457.33 171.00 467.00 171.00 C 467.01 145.09 466.97 119.19 467.02 93.28 C 474.02 92.33 480.95 90.87 488.00 90.26 C 499.09 89.30 510.03 91.93 520.98 93.28 C 521.02 121.19 520.99 149.10 521.00 177.01 C 508.80 177.00 496.60 177.00 484.41 176.95 C 483.68 173.43 483.02 169.93 482.26 166.43 C 481.71 170.94 481.25 175.47 480.79 179.99 C 494.19 180.01 507.59 179.99 521.00 180.00 C 521.00 195.33 521.00 210.67 521.00 226.00 C 508.66 226.00 496.33 226.00 484.00 226.00 C 483.99 216.66 484.00 207.32 484.00 197.98 C 481.30 198.00 478.60 198.03 475.91 198.06 C 482.81 205.78 480.74 216.49 481.30 226.00 C 475.19 225.99 469.10 226.00 463.00 226.00 C 462.99 216.65 463.00 207.30 463.00 197.96 C 436.00 198.21 409.01 198.79 382.02 197.91 C 381.95 194.91 382.02 191.99 381.99 189.01 C 381.25 189.00 379.75 189.00 379.01 189.00 C 378.94 191.97 379.02 195.01 378.99 197.99 C 370.66 198.01 362.33 198.01 354.00 197.99 C 353.99 189.00 353.99 180.00 354.00 171.01 C 362.32 170.98 370.65 170.99 378.98 171.02 C 378.99 172.76 379.00 176.25 379.01 178.00 C 379.75 178.00 381.24 178.00 381.99 178.00 C 381.99 176.25 382.01 172.76 382.02 171.02 C 383.76 171.01 387.25 171.00 388.99 170.99 C 388.99 170.24 389.00 168.75 389.01 168.00 C 377.33 168.00 365.67 168.00 354.00 168.00 C 354.00 138.00 354.00 108.00 354.00 78.00 Z" />
<path fill="#000000" opacity="1.00" d=" M 224.04 231.10 C 231.71 229.54 239.55 227.68 247.42 229.11 C 263.12 231.88 279.13 230.96 295.00 231.01 C 295.00 242.00 295.00 253.00 295.00 264.00 C 287.66 264.00 280.33 264.00 273.00 264.00 C 273.00 264.75 273.00 266.25 273.00 267.00 C 280.33 267.00 287.66 267.00 295.00 267.00 C 294.99 293.91 295.03 320.82 294.97 347.74 C 284.70 349.15 274.44 351.54 264.00 350.91 C 256.55 350.87 249.37 348.67 242.04 347.64 C 241.96 320.76 242.01 293.88 242.00 267.01 C 246.66 266.99 251.33 267.00 256.00 267.00 C 256.00 266.25 256.00 264.75 256.00 264.00 C 250.33 263.99 244.66 264.00 239.00 264.00 C 239.00 284.33 239.00 304.66 239.00 324.99 C 234.32 324.98 229.67 325.00 225.00 325.00 L 225.00 329.99 C 229.00 329.99 233.00 329.99 237.00 330.01 C 237.00 342.33 237.00 354.67 237.00 367.00 C 220.66 367.00 204.33 367.00 188.00 367.00 C 188.04 354.83 187.52 342.64 188.27 330.49 C 190.68 330.18 195.49 329.58 197.89 329.27 L 197.86 325.78 C 195.49 325.40 190.76 324.63 188.39 324.24 C 187.42 306.85 188.16 289.41 188.01 272.00 C 202.36 271.99 216.71 272.05 231.06 271.92 C 230.98 271.45 230.81 270.51 230.72 270.05 C 223.14 270.97 224.25 263.94 223.31 259.12 C 222.77 259.08 221.67 259.01 221.13 258.97 C 221.09 261.48 221.01 266.49 220.97 269.00 C 209.97 268.99 198.99 269.00 188.00 269.00 C 188.00 256.33 188.00 243.66 188.00 231.00 C 199.00 231.00 210.00 231.00 221.00 231.00 C 221.00 236.33 221.00 241.66 221.00 247.00 C 221.75 247.00 223.24 247.00 223.99 247.00 C 224.00 241.70 224.02 236.40 224.04 231.10 Z" />
<path fill="#000000" opacity="1.00" d=" M 298.00 231.26 C 310.06 231.28 322.02 229.70 334.01 228.76 C 345.37 229.22 356.57 231.52 367.99 231.21 C 367.99 236.47 367.99 241.73 368.00 247.00 C 368.75 247.00 370.25 247.00 371.00 247.00 C 370.99 241.66 371.00 236.33 371.00 231.00 C 381.67 231.00 392.33 231.00 403.00 231.00 C 403.00 243.67 403.00 256.35 403.00 269.03 C 392.49 268.99 381.97 269.42 371.48 268.73 C 371.17 266.28 370.55 261.39 370.24 258.94 C 369.97 259.07 369.42 259.32 369.14 259.45 C 367.36 263.99 364.79 268.09 361.65 271.80 C 375.43 272.05 389.22 271.99 403.00 272.01 C 402.99 289.26 402.99 306.50 403.01 323.75 C 400.02 324.03 397.03 324.37 394.06 324.77 C 396.83 326.63 399.76 328.29 402.71 329.88 C 402.99 341.58 403.03 353.29 403.03 365.00 C 386.68 364.99 370.34 365.00 354.00 365.00 C 354.00 353.00 354.00 341.00 354.00 329.01 C 358.32 328.99 362.66 329.00 367.00 329.00 L 367.00 324.01 C 363.25 324.00 355.75 324.00 352.00 323.99 C 352.00 303.99 352.00 284.00 352.00 264.00 C 346.33 263.99 340.66 264.00 335.00 264.00 C 335.00 264.75 335.00 266.25 335.00 266.99 C 339.65 266.99 344.33 267.00 349.00 267.00 C 348.98 293.87 349.04 320.73 348.96 347.59 C 332.17 351.62 314.89 351.45 298.03 347.75 C 297.97 320.83 298.01 293.92 298.00 267.00 C 304.33 266.99 310.66 267.00 317.00 267.00 C 317.00 266.25 317.00 264.75 317.00 264.00 C 310.66 263.99 304.33 264.00 298.00 264.00 C 298.00 253.08 298.00 242.17 298.00 231.26 Z" />
<path fill="#000000" opacity="1.00" d=" M 443.72 228.82 C 469.42 231.11 495.20 231.38 521.00 230.99 C 520.99 241.99 521.00 252.99 521.00 264.00 C 510.99 264.00 500.99 264.00 491.00 264.00 C 491.00 264.75 491.00 266.25 491.00 267.00 C 500.99 267.00 510.99 267.00 521.00 267.00 C 521.00 293.90 521.01 320.79 520.99 347.69 C 512.90 348.01 504.80 348.31 496.87 350.04 C 483.91 352.35 470.76 350.34 458.03 347.72 C 457.96 320.81 458.01 293.91 458.00 267.01 C 463.33 267.00 468.66 267.00 474.00 267.00 C 474.00 266.25 474.00 264.75 474.00 264.00 C 467.65 263.99 461.33 264.00 455.00 264.00 C 455.00 283.99 455.00 303.99 455.00 323.99 C 450.65 323.98 446.33 324.00 442.00 324.00 L 442.00 328.99 C 444.75 328.99 450.25 329.00 453.00 329.01 C 452.99 341.00 453.00 353.00 453.00 365.00 C 438.00 365.00 423.00 365.00 408.00 365.00 C 408.00 353.08 408.00 341.16 407.99 329.25 C 410.97 328.96 413.96 328.62 416.94 328.23 C 414.14 326.35 411.23 324.71 408.29 323.12 C 407.86 306.08 407.99 289.04 408.00 272.00 C 419.66 272.00 431.33 271.99 443.00 272.00 C 442.98 267.32 443.00 262.67 443.00 258.00 C 442.25 258.00 440.76 258.00 440.01 258.00 C 440.00 260.75 440.00 266.25 439.99 269.00 C 429.32 269.00 418.66 269.00 408.00 269.00 C 408.00 256.33 408.00 243.66 408.00 231.00 C 418.66 231.00 429.32 231.00 439.99 231.00 C 439.99 236.33 440.00 241.66 440.02 247.00 C 440.72 247.00 442.12 246.99 442.82 246.99 C 443.07 240.93 443.29 234.87 443.72 228.82 Z" />
</g>
</svg>
