<?xml version="1.0" encoding="UTF-8" ?>
<!DOCTYPE svg PUBLIC "-//W3C//DTD SVG 1.1//EN" "http://www.w3.org/Graphics/SVG/1.1/DTD/svg11.dtd">
<svg width="534pt" height="413pt" viewBox="0 0 534 413" version="1.1" xmlns="http://www.w3.org/2000/svg">
<g id="#000000ff">
<path fill="#000000" opacity="1.00" d=" M 22.03 167.95 C 37.67 168.14 53.34 167.91 69.00 168.00 C 68.99 170.67 69.01 173.33 69.00 176.00 C 70.67 175.99 72.33 175.99 74.00 176.00 C 73.99 173.33 74.00 170.67 74.00 168.00 C 91.00 168.00 108.00 168.00 125.00 168.00 C 125.01 178.00 124.99 188.00 125.00 198.00 C 129.00 198.00 133.00 198.00 137.00 198.00 C 137.00 197.25 137.00 195.75 137.00 195.00 C 134.00 195.00 131.00 194.99 128.00 195.00 C 128.00 186.00 128.00 177.00 128.00 168.00 C 136.67 168.00 145.33 168.00 154.00 168.00 C 154.00 177.00 154.00 186.00 154.00 195.00 C 151.33 194.99 148.66 195.00 146.00 195.00 C 146.00 195.75 146.00 197.25 146.00 198.00 C 150.33 198.00 154.66 198.00 159.00 198.00 C 159.01 188.00 158.99 178.00 159.00 168.00 C 164.33 168.00 169.67 168.00 175.00 168.00 C 175.00 182.99 175.00 197.97 175.00 212.95 C 175.50 212.97 176.50 213.03 177.00 213.05 C 177.00 217.02 177.00 220.98 177.00 224.95 C 176.50 224.98 175.50 225.03 175.00 225.05 C 175.00 229.36 175.00 233.68 175.00 238.00 C 168.00 238.01 161.00 237.99 154.00 238.00 C 153.99 269.00 154.01 300.00 154.00 331.00 C 147.68 331.00 141.37 331.00 135.05 331.00 C 135.03 331.50 134.97 332.50 134.95 333.00 C 124.65 333.00 114.35 333.00 104.05 333.00 C 104.03 332.50 103.97 331.50 103.95 331.00 C 100.97 331.00 97.98 330.99 95.00 331.00 C 95.00 309.67 95.00 288.33 95.00 267.00 C 108.67 266.99 122.33 267.00 136.00 267.00 C 136.00 257.00 136.00 247.00 136.00 237.00 C 135.25 237.00 133.75 237.00 133.01 237.00 C 132.99 246.00 133.01 255.00 133.00 264.00 C 109.00 264.00 85.00 264.00 61.00 264.00 C 61.00 260.66 61.00 257.33 61.00 254.00 C 59.34 254.00 57.68 254.00 56.02 254.00 C 56.01 254.75 55.99 256.25 55.98 257.00 C 49.67 257.10 43.35 256.77 37.04 257.21 C 35.96 252.56 33.91 248.22 32.58 243.65 C 30.62 236.43 28.94 229.14 27.30 221.84 C 24.71 206.43 23.21 190.85 22.65 175.24 C 22.63 172.80 22.54 170.35 22.03 167.95 M 69.00 199.00 C 69.01 202.00 68.99 205.00 69.00 208.00 C 64.67 208.00 60.33 207.99 56.00 208.00 C 56.00 212.67 56.00 217.33 56.00 222.00 C 57.67 221.99 59.33 221.99 61.00 222.00 C 60.99 219.00 61.00 216.00 61.00 213.00 C 85.00 213.00 109.00 213.00 133.00 213.00 C 132.99 215.67 133.00 218.33 133.00 221.00 C 133.75 221.00 135.25 221.00 135.99 221.00 C 136.00 217.33 136.00 213.67 136.00 210.00 C 115.33 210.00 94.67 210.01 74.00 210.00 C 74.00 206.33 74.00 202.66 74.00 199.00 C 72.33 199.00 70.67 199.00 69.00 199.00 Z" />
<path fill="#000000" opacity="1.00" d=" M 189.05 241.00 C 194.02 241.00 198.98 241.00 203.95 241.00 C 203.97 241.50 204.03 242.50 204.05 243.00 C 211.37 243.00 218.68 242.99 226.00 243.00 C 226.00 246.67 226.00 250.33 226.00 254.00 C 226.75 254.00 228.25 254.00 229.00 254.00 C 229.00 250.33 229.00 246.67 229.00 243.00 C 238.33 243.00 247.66 243.00 257.00 243.00 C 257.00 253.67 257.00 264.33 257.00 275.00 C 247.66 275.00 238.33 275.00 229.00 275.00 C 229.00 271.33 229.00 267.67 229.00 264.00 C 228.25 264.00 226.75 264.00 226.00 264.00 C 225.99 268.66 226.00 273.33 226.00 278.00 C 236.33 278.01 246.67 277.99 257.00 278.00 C 257.00 297.00 257.00 316.00 257.00 335.00 C 254.66 335.00 252.33 335.00 250.00 335.00 C 250.00 336.66 250.00 338.33 250.00 340.00 C 252.33 340.00 254.66 340.00 257.00 340.00 C 256.90 355.27 257.23 370.54 256.79 385.81 C 227.35 386.23 197.80 381.58 170.00 371.85 C 170.00 366.24 170.00 360.63 170.00 355.02 C 170.75 355.01 172.25 354.99 173.00 354.98 C 173.00 353.32 172.99 351.66 173.00 350.00 C 168.33 349.99 163.67 350.00 159.00 350.00 C 159.00 326.33 159.00 302.67 159.00 279.00 C 167.67 278.99 176.33 279.01 185.00 279.00 C 185.00 278.25 185.00 276.75 185.00 276.01 C 176.33 275.99 167.67 276.01 159.00 276.00 C 159.00 265.00 159.00 254.00 159.00 243.00 C 168.98 243.00 178.97 243.00 188.95 243.00 C 188.97 242.50 189.03 241.50 189.05 241.00 M 198.00 276.00 C 198.00 276.75 198.00 278.25 198.00 279.00 C 203.33 279.01 208.66 278.99 214.00 279.00 C 214.00 302.67 214.00 326.33 214.00 350.00 C 210.00 350.00 206.00 350.00 202.00 350.00 C 202.00 351.66 202.00 353.33 202.00 355.00 C 207.66 355.00 213.33 355.00 219.00 355.00 C 219.00 350.00 218.99 345.00 219.00 340.00 C 221.33 340.00 223.67 340.00 226.00 340.00 C 225.99 338.33 225.99 336.66 226.00 335.00 C 223.00 335.00 220.00 334.99 217.00 335.00 C 216.99 315.33 217.01 295.67 217.00 276.00 C 210.66 276.00 204.33 276.00 198.00 276.00 Z" />
</g>
</svg>
