<?xml version="1.0" encoding="UTF-8" ?>
<!DOCTYPE svg PUBLIC "-//W3C//DTD SVG 1.1//EN" "http://www.w3.org/Graphics/SVG/1.1/DTD/svg11.dtd">
<svg width="535pt" height="374pt" viewBox="0 0 535 374" version="1.1" xmlns="http://www.w3.org/2000/svg">
<g id="#000000ff">
<path fill="#000000" opacity="1.00" d=" M 365.00 39.00 C 381.67 39.00 398.33 39.00 415.00 39.00 C 415.00 47.67 415.00 56.33 415.00 65.00 C 406.66 65.01 398.33 64.99 390.00 65.00 C 390.00 67.00 390.00 69.00 390.00 71.00 C 402.66 71.00 415.33 71.00 427.99 71.00 C 427.99 69.33 428.00 67.67 428.01 66.00 C 437.33 66.00 446.66 66.00 455.99 66.00 C 455.99 67.67 456.00 69.33 456.01 71.00 C 460.90 71.00 465.79 71.00 470.68 71.00 C 479.41 79.61 488.18 88.19 496.94 96.77 C 498.34 95.32 499.75 93.88 501.15 92.42 C 492.75 84.03 484.46 75.54 476.10 67.11 C 480.60 65.04 484.86 62.10 489.89 61.48 C 497.28 60.45 504.99 59.52 512.27 61.74 C 520.12 63.62 526.66 69.01 531.22 75.52 C 533.00 79.66 534.48 84.02 535.00 88.52 L 535.00 97.29 C 534.09 105.27 530.80 112.70 529.35 120.58 C 523.14 115.28 517.80 109.08 511.94 103.41 C 510.57 104.78 509.21 106.14 507.84 107.50 C 513.25 112.77 518.65 118.05 524.01 123.37 C 524.00 128.24 524.00 133.11 524.00 137.98 C 525.33 137.99 526.66 138.00 528.00 138.01 C 528.00 147.67 528.00 157.33 528.00 166.99 C 526.66 166.99 525.33 167.00 524.00 167.01 C 524.00 176.34 524.00 185.66 524.00 194.99 C 525.33 194.99 526.66 195.00 528.00 195.01 C 528.00 204.67 528.00 214.33 528.00 223.98 C 526.66 223.99 525.33 224.00 524.00 224.01 C 524.00 228.01 524.00 232.00 524.00 236.00 C 487.66 236.00 451.33 236.00 415.00 236.00 C 414.99 224.29 415.01 212.59 415.00 200.88 C 411.93 200.74 409.06 202.04 406.03 202.04 C 391.68 201.95 377.34 202.03 363.00 202.00 C 363.00 191.33 362.99 180.67 363.00 170.00 C 370.67 169.99 378.33 170.01 386.00 169.99 C 386.00 169.25 386.00 167.75 386.00 167.01 C 378.34 166.99 370.67 167.01 363.01 167.00 C 362.99 135.00 363.00 103.00 363.00 71.00 C 367.00 71.00 371.00 71.00 375.00 71.00 C 374.99 69.00 374.99 67.00 375.00 65.00 C 371.66 65.00 368.33 65.00 365.00 65.00 C 365.00 56.33 365.00 47.67 365.00 39.00 Z" />
<path fill="#000000" opacity="1.00" d=" M 33.01 66.00 C 41.67 66.00 50.33 66.00 58.99 66.00 C 59.00 67.33 59.00 68.67 59.01 70.00 C 67.00 70.00 74.99 70.00 82.99 70.00 C 82.99 69.25 83.01 67.75 83.01 67.00 C 94.00 67.00 104.99 67.00 115.98 67.00 C 115.99 67.75 116.01 69.25 116.01 70.00 C 124.00 70.00 131.99 70.00 139.99 70.00 C 139.99 69.25 140.01 67.75 140.01 67.00 C 151.34 67.00 162.67 67.00 174.00 67.00 C 174.00 103.33 174.00 139.66 174.00 175.98 C 174.75 175.99 176.25 176.01 177.00 176.01 C 177.00 184.68 177.00 193.34 177.00 202.00 C 160.00 202.00 143.00 201.99 126.00 202.00 C 126.00 243.00 126.01 284.00 126.00 325.00 C 121.01 325.00 116.03 325.00 111.05 325.00 C 111.03 325.50 110.98 326.50 110.95 327.00 C 101.32 327.00 91.68 327.00 82.05 327.00 C 82.02 326.50 81.98 325.50 81.95 325.00 C 76.65 325.00 71.35 325.00 66.05 325.00 C 66.03 325.50 65.98 326.50 65.95 327.00 C 61.30 327.00 56.65 326.99 52.00 327.01 C 52.00 327.50 52.00 328.50 52.00 329.00 C 56.65 329.00 61.30 329.00 65.95 329.00 C 65.98 329.50 66.03 330.50 66.05 331.00 C 71.35 331.00 76.65 331.00 81.95 331.00 C 81.98 330.50 82.02 329.50 82.05 329.00 C 91.68 329.00 101.32 329.00 110.95 329.00 C 110.97 329.50 111.02 330.50 111.05 331.00 C 115.70 331.00 120.35 330.99 125.00 331.00 C 124.99 337.68 125.01 344.37 125.01 351.05 C 125.25 352.96 124.06 354.58 122.89 355.95 C 111.57 366.07 96.73 371.28 81.93 373.62 C 71.64 373.59 61.06 374.36 51.10 371.24 C 42.88 368.90 34.47 366.48 27.23 361.78 C 23.06 359.58 19.67 356.27 16.00 353.37 C 16.75 353.35 18.25 353.33 19.00 353.31 C 19.01 345.87 18.99 338.44 19.00 331.00 C 23.33 330.99 27.67 331.00 32.00 331.00 C 32.00 329.00 32.00 327.00 32.00 325.00 C 26.33 324.99 20.67 325.00 15.00 325.00 C 15.00 322.00 15.00 319.00 15.00 316.01 C 16.33 316.00 17.67 315.99 19.00 315.99 C 19.01 289.33 18.99 262.67 19.00 236.00 C 30.34 235.99 41.67 236.01 53.00 235.99 C 53.00 235.50 53.00 234.50 53.00 234.01 C 41.67 233.99 30.34 234.01 19.00 234.00 C 19.00 227.33 19.00 220.67 19.00 214.00 C 29.67 214.00 40.33 214.00 51.00 214.00 C 51.00 216.00 51.00 218.00 51.01 220.00 C 51.50 220.00 52.50 220.00 53.00 220.00 C 53.00 213.33 53.00 206.67 53.00 200.00 C 52.50 200.00 51.50 200.00 51.00 200.00 C 51.00 204.00 51.00 208.00 51.00 212.00 C 40.33 212.00 29.67 212.00 19.00 212.00 C 19.00 197.67 19.00 183.33 19.00 169.00 C 29.67 169.00 40.33 169.00 51.00 169.00 C 51.01 174.67 50.99 180.33 51.00 186.00 C 51.50 186.00 52.50 186.00 52.99 186.00 C 53.01 179.67 53.00 173.34 53.00 167.00 C 41.67 166.99 30.33 167.01 19.00 167.00 C 19.00 144.01 19.00 121.03 19.00 98.05 C 19.50 98.02 20.50 97.98 21.00 97.95 C 21.00 88.63 21.00 79.32 21.00 70.00 C 25.00 70.00 29.00 70.00 32.99 70.00 C 33.00 68.67 33.00 67.33 33.01 66.00 Z" />
<path fill="#000000" opacity="1.00" d=" M 207.49 205.92 C 208.64 204.57 210.50 205.09 212.03 204.97 C 216.85 205.07 221.67 204.90 226.49 205.08 C 230.49 207.18 235.57 205.43 240.00 206.00 C 240.00 209.34 240.00 212.67 240.00 216.00 C 240.50 216.00 241.50 216.00 242.00 216.00 C 242.00 212.67 242.00 209.33 242.00 206.00 C 260.33 206.00 278.67 206.00 297.00 206.00 C 297.00 217.00 297.00 228.00 297.00 239.00 C 278.00 239.01 259.00 238.99 240.00 239.00 C 240.00 239.50 240.00 240.50 240.00 241.00 C 259.00 241.01 278.00 240.99 297.00 241.00 C 297.00 269.33 297.00 297.67 297.00 326.00 C 293.00 326.00 289.00 326.00 285.00 326.00 C 285.00 327.66 285.00 329.33 285.00 331.00 C 288.33 331.00 291.66 331.00 295.00 331.00 C 295.00 337.33 295.00 343.66 295.00 350.00 C 279.00 350.00 263.00 350.00 247.00 350.00 C 247.00 343.66 247.00 337.33 247.00 331.00 C 250.33 331.00 253.67 331.00 257.00 331.00 C 257.00 329.33 257.00 327.66 257.00 326.00 C 251.67 326.00 246.33 325.99 241.00 326.00 C 241.00 333.00 241.00 340.00 241.00 347.00 C 237.00 347.00 233.00 347.00 229.01 347.00 C 229.00 348.33 228.99 349.66 228.99 351.00 C 218.33 351.00 207.67 351.00 197.01 351.00 C 197.00 349.66 196.99 348.33 196.99 347.00 C 188.33 347.00 179.67 347.00 171.01 347.00 C 171.00 348.33 171.00 349.66 170.99 351.00 C 161.33 351.00 151.67 351.00 142.01 351.00 C 142.00 349.66 142.00 348.33 141.99 347.00 C 138.00 347.00 134.00 347.00 130.00 347.00 C 130.00 300.00 130.00 253.00 130.00 206.00 C 155.83 205.94 181.66 206.10 207.49 205.92 Z" />
<path fill="#000000" opacity="1.00" d=" M 301.00 206.00 C 320.00 206.00 339.00 206.00 358.00 206.00 C 358.00 217.67 357.99 229.33 358.00 241.00 C 366.00 241.00 374.00 241.01 382.00 240.99 C 382.00 240.50 382.00 239.50 382.00 239.01 C 374.67 238.99 367.34 239.01 360.00 239.00 C 360.00 228.00 360.00 217.00 360.00 206.00 C 376.67 206.00 393.33 206.00 410.00 206.00 C 410.00 217.00 410.00 228.00 410.00 239.00 C 405.33 239.00 400.66 239.00 396.00 239.01 C 396.00 239.50 396.00 240.50 396.00 240.99 C 400.66 241.00 405.33 241.00 409.99 241.00 C 409.99 242.66 410.00 244.33 410.01 246.00 C 411.66 245.99 413.33 245.99 414.99 246.00 C 414.99 244.33 415.00 242.67 415.01 241.00 C 451.34 241.00 487.67 241.00 524.00 241.00 C 524.00 244.66 524.00 248.32 524.00 251.99 C 525.33 251.99 526.66 252.00 528.00 252.01 C 528.00 261.00 528.00 270.00 528.00 278.99 C 526.66 278.99 525.33 279.00 524.00 279.01 C 523.99 284.34 524.00 289.67 524.00 294.99 C 518.70 300.26 513.37 305.50 508.05 310.75 C 509.31 312.18 510.57 313.62 511.83 315.05 C 517.56 309.50 523.03 303.70 528.90 298.31 C 531.94 303.21 533.33 308.88 535.00 314.34 L 535.00 335.63 C 533.27 343.09 527.24 347.97 522.42 353.44 C 519.51 355.82 515.75 356.82 512.33 358.24 C 506.81 360.41 500.82 359.35 495.08 359.15 C 487.55 359.02 480.46 356.04 473.86 352.68 C 479.75 347.06 485.43 341.22 491.25 335.53 C 489.95 334.09 488.65 332.64 487.35 331.20 C 482.62 335.86 477.89 340.52 473.20 345.23 C 472.28 345.94 471.46 347.16 470.14 346.98 C 465.10 347.12 460.06 346.92 455.03 347.00 C 455.01 347.75 454.99 349.25 454.97 350.00 C 444.99 350.00 435.01 350.00 425.03 350.00 C 425.01 349.25 424.98 347.75 424.97 347.00 C 416.32 347.00 407.66 347.00 399.01 347.00 C 399.00 348.33 398.99 349.66 398.99 351.00 C 388.99 351.00 379.00 351.00 369.01 351.00 C 369.00 349.66 368.99 348.33 368.99 347.00 C 360.33 347.00 351.67 347.00 343.01 347.00 C 343.00 348.33 342.99 349.66 342.98 351.00 C 332.99 351.00 323.00 351.00 313.01 351.00 C 313.00 349.66 312.99 348.33 312.99 347.00 C 308.99 347.00 305.00 347.00 301.00 347.00 C 301.00 300.00 301.00 253.00 301.00 206.00 Z" />
</g>
</svg>
