<?xml version="1.0" encoding="UTF-8" ?>
<!DOCTYPE svg PUBLIC "-//W3C//DTD SVG 1.1//EN" "http://www.w3.org/Graphics/SVG/1.1/DTD/svg11.dtd">
<svg width="534pt" height="413pt" viewBox="0 0 534 413" version="1.1" xmlns="http://www.w3.org/2000/svg">
<g id="#000000ff">
<path fill="#000000" opacity="1.00" d=" M 134.97 47.00 C 149.31 47.00 163.65 47.00 178.00 47.00 C 178.00 57.60 178.00 68.20 178.02 78.81 C 176.06 79.03 172.13 79.48 170.17 79.70 C 172.62 81.48 175.11 83.19 177.66 84.84 C 178.26 105.89 177.95 126.94 177.99 148.00 C 166.90 148.00 155.82 147.99 144.73 148.01 C 144.99 151.23 145.29 154.49 145.68 157.71 C 146.68 155.55 147.58 153.35 148.54 151.18 C 158.35 151.03 168.17 150.99 177.99 150.96 C 178.01 157.30 178.02 163.65 177.99 170.00 C 157.76 170.00 137.54 169.98 117.31 170.02 C 119.20 179.63 118.69 189.41 116.84 198.98 C 80.56 199.02 44.28 199.00 8.00 199.00 C 8.00 193.66 8.00 188.34 8.00 183.01 C 21.67 182.99 35.33 183.01 49.00 183.00 C 49.00 182.25 49.00 180.75 49.00 180.01 C 35.33 179.98 21.67 180.01 8.00 179.99 C 8.00 170.66 8.00 161.33 8.00 152.00 C 20.66 152.00 33.33 151.99 45.99 152.00 C 46.00 158.00 46.00 164.00 46.01 170.00 C 46.75 170.00 48.25 170.00 49.00 170.00 C 48.99 164.33 48.99 158.67 48.97 153.01 C 50.89 151.90 52.83 150.84 54.73 149.69 C 39.17 148.74 23.58 148.96 8.01 148.99 C 8.00 120.07 7.98 91.14 8.02 62.22 C 27.28 59.88 46.73 59.47 65.98 62.28 C 66.02 92.18 65.99 122.09 66.00 151.99 C 72.33 152.00 78.66 152.02 85.00 151.99 C 85.00 151.25 85.00 149.76 85.00 149.01 C 79.67 149.00 74.34 148.99 69.01 148.99 C 69.00 120.01 68.98 91.03 69.02 62.06 C 89.24 59.01 109.75 59.76 129.98 62.28 C 130.02 91.18 130.00 120.09 130.00 148.99 C 121.00 148.99 112.00 149.00 103.00 149.00 C 103.00 149.75 103.00 151.25 103.00 152.00 C 113.00 152.00 123.00 152.00 133.00 152.00 C 133.00 129.74 133.00 107.49 133.00 85.24 C 136.30 85.00 139.62 84.76 142.91 84.42 C 140.43 82.59 137.91 80.84 135.34 79.15 C 135.02 68.43 134.98 57.72 134.97 47.00 Z" />
<path fill="#000000" opacity="1.00" d=" M 353.80 47.00 C 368.53 47.00 383.27 47.00 398.00 47.00 C 398.00 57.99 398.00 68.97 398.00 79.96 C 396.22 79.99 392.65 80.05 390.87 80.08 C 391.13 81.50 391.41 82.93 391.69 84.35 C 394.41 84.62 397.22 84.90 399.97 85.16 C 400.01 104.10 400.00 123.05 400.00 142.00 C 407.66 142.00 415.33 142.01 423.00 142.00 C 423.00 141.25 423.00 139.76 423.00 139.01 C 416.33 139.00 409.66 138.99 403.00 138.99 C 403.00 113.73 402.98 88.47 403.02 63.21 C 424.28 60.66 445.73 60.47 466.99 63.19 C 467.01 88.46 467.00 113.73 467.00 138.99 C 458.33 139.00 449.66 139.00 441.00 139.00 C 441.00 139.75 441.00 141.25 441.00 142.00 C 450.66 142.00 460.33 142.00 470.00 142.00 C 470.01 115.74 469.98 89.48 470.01 63.23 C 488.28 61.16 506.75 60.11 524.98 63.15 C 525.02 91.43 525.00 119.72 524.99 148.00 C 512.82 148.01 500.64 148.00 488.48 147.95 C 487.70 144.39 487.01 140.84 486.19 137.31 C 485.64 141.86 485.21 146.42 484.81 150.99 C 498.20 151.02 511.60 150.98 525.00 151.01 C 525.00 167.01 525.00 183.00 525.00 199.00 C 513.00 199.00 501.00 199.00 489.01 199.00 C 488.99 187.22 489.00 175.44 488.99 163.67 C 485.71 163.95 482.54 164.28 479.30 164.69 C 481.45 165.69 483.60 166.58 485.82 167.54 C 485.97 178.02 486.00 188.51 486.02 199.00 C 480.00 199.00 474.00 199.00 468.00 199.00 C 468.00 188.32 467.99 177.64 468.00 166.97 C 451.66 166.67 435.34 167.27 419.04 168.10 C 397.38 166.80 375.69 166.83 354.00 167.00 C 353.99 158.67 353.99 150.34 354.00 142.01 C 366.33 141.98 378.66 142.02 391.00 141.99 C 391.00 141.25 391.00 139.75 391.00 139.01 C 378.68 138.98 366.36 139.02 354.04 138.99 C 354.09 119.97 352.99 100.85 355.59 81.94 C 355.41 70.30 353.40 58.69 353.80 47.00 Z" />
<path fill="#000000" opacity="1.00" d=" M 113.01 203.89 C 122.68 204.19 132.17 200.81 141.83 202.31 C 153.80 204.17 165.93 204.12 178.00 204.12 C 178.00 210.07 178.00 216.03 178.00 221.99 C 166.00 222.01 154.00 221.98 142.00 222.00 C 142.00 222.75 142.00 224.25 142.00 224.99 C 154.00 225.02 166.00 224.98 178.00 225.01 C 178.00 233.67 178.00 242.33 178.00 251.00 C 167.00 251.00 156.01 251.00 145.01 251.00 C 145.00 245.66 145.00 240.33 144.99 235.00 C 144.25 235.00 142.76 235.00 142.01 235.00 C 142.00 240.32 141.99 245.64 141.98 250.97 C 138.97 250.94 136.01 251.02 133.01 251.02 C 133.01 251.76 133.00 253.25 132.99 254.00 C 147.99 254.00 163.00 254.00 178.00 254.00 C 178.00 269.99 178.00 285.98 178.00 301.98 C 174.97 301.94 172.01 302.02 169.01 302.02 L 169.01 306.96 C 171.98 306.93 175.01 307.02 178.00 307.03 C 178.00 319.68 178.00 332.34 178.00 345.00 C 160.33 345.00 142.66 345.00 125.00 345.00 C 125.00 332.33 124.99 319.67 125.00 307.02 C 129.00 307.00 133.00 306.99 137.00 306.98 L 137.00 302.02 C 132.33 302.00 127.67 302.00 123.00 301.99 C 123.00 280.99 123.00 260.00 123.00 239.00 C 122.25 239.00 120.75 239.00 120.00 239.00 C 119.99 267.88 120.03 296.76 119.97 325.64 C 109.31 326.71 98.79 329.55 88.00 329.04 C 78.91 328.92 69.99 327.01 61.03 325.75 C 60.97 297.83 61.00 269.92 61.00 242.00 C 75.34 242.00 89.67 242.00 104.00 242.00 C 104.00 241.25 104.00 239.75 104.00 239.00 C 89.67 238.99 75.34 239.00 61.01 239.00 C 61.00 234.66 61.00 230.33 60.99 226.00 C 60.24 226.00 58.75 226.00 58.00 226.00 C 57.99 252.90 58.04 279.81 57.96 306.72 C 41.47 309.97 24.41 311.38 8.04 306.72 C 7.96 272.48 8.01 238.24 8.00 204.00 C 43.00 203.84 78.01 204.27 113.01 203.89 Z" />
<path fill="#000000" opacity="1.00" d=" M 296.00 204.28 C 308.39 204.28 320.74 203.17 333.01 201.58 C 344.71 201.91 356.21 204.73 367.99 204.22 C 367.99 209.81 367.99 215.40 368.01 221.00 C 368.75 221.00 370.24 221.00 370.99 221.00 C 370.99 215.66 371.00 210.33 371.01 205.00 C 382.01 205.00 393.00 205.00 404.00 205.00 C 403.99 218.00 404.01 231.00 404.00 244.00 C 393.00 244.00 382.01 244.00 371.02 244.00 C 371.01 241.25 370.99 235.75 370.98 233.00 C 370.25 233.00 368.79 233.02 368.06 233.03 C 367.99 235.66 367.83 240.92 367.76 243.55 C 365.90 244.41 364.07 245.31 362.27 246.24 C 376.15 247.19 390.08 247.07 403.99 247.02 C 404.01 266.01 404.00 284.99 403.99 303.98 C 400.93 303.94 398.03 304.02 395.01 304.02 L 395.01 308.96 C 397.94 308.93 401.03 309.02 404.00 309.03 C 404.00 321.01 403.99 333.00 404.00 345.00 C 386.66 345.00 369.33 345.00 352.00 345.00 C 352.00 333.00 352.00 321.01 352.00 309.01 C 357.33 309.00 362.66 308.99 368.00 308.99 L 368.00 304.02 C 361.99 304.00 356.00 304.00 350.00 303.99 C 350.00 282.33 350.00 260.66 350.00 239.00 C 345.32 238.99 340.67 239.00 336.00 239.00 C 336.00 239.74 336.00 241.24 336.00 241.98 C 338.75 241.99 344.25 242.01 346.99 242.02 C 346.99 269.62 347.04 297.23 346.97 324.83 C 330.29 329.31 312.75 328.65 296.04 324.70 C 295.96 297.14 296.01 269.57 296.00 242.01 C 303.00 242.00 310.00 241.99 317.00 241.99 C 317.00 241.25 317.00 239.75 317.00 239.01 C 309.99 239.00 303.00 238.99 296.00 238.99 C 296.00 227.42 296.00 215.85 296.00 204.28 Z" />
<path fill="#000000" opacity="1.00" d=" M 446.03 200.61 C 454.09 200.97 462.20 201.37 470.14 202.98 C 488.34 205.09 506.72 203.69 525.00 203.98 C 525.00 215.65 525.00 227.32 525.00 238.99 C 514.99 238.99 505.00 239.00 495.00 239.00 C 495.00 239.75 495.00 241.25 495.00 242.00 C 504.99 242.00 514.99 242.00 524.99 242.01 C 525.00 269.59 525.01 297.17 524.99 324.76 C 517.29 325.07 509.60 325.38 501.95 326.31 C 487.96 327.89 473.92 326.39 460.02 324.85 C 459.98 297.24 460.00 269.62 460.00 242.01 C 465.99 242.00 471.99 242.00 478.00 241.99 C 478.00 241.25 478.00 239.75 478.00 239.01 C 471.00 238.98 464.00 238.98 457.00 239.01 C 457.00 260.66 457.00 282.31 457.00 303.97 C 452.99 303.98 448.99 303.99 445.00 304.02 L 445.01 308.95 C 447.94 308.93 451.03 309.02 454.00 309.03 C 454.00 321.02 453.99 333.01 454.00 345.00 C 439.00 345.00 424.00 345.00 409.00 345.00 C 409.00 333.01 409.00 321.02 409.00 309.03 C 411.93 308.97 415.02 309.01 417.99 308.98 L 417.99 304.04 C 414.93 303.97 412.03 304.01 409.01 303.97 C 408.99 284.98 408.99 266.00 409.00 247.01 C 421.33 246.98 433.66 247.02 446.00 246.99 C 445.99 241.32 446.00 235.66 446.00 230.00 C 445.25 230.00 443.76 230.00 443.01 230.00 C 442.99 234.66 443.00 239.33 442.99 244.00 C 431.65 243.99 420.33 244.00 409.00 244.00 C 409.00 230.66 409.00 217.33 409.00 204.00 C 420.33 204.00 431.66 203.99 442.99 204.00 C 442.99 209.66 442.99 215.33 443.01 221.00 C 443.75 221.00 445.24 221.00 445.99 221.00 C 445.99 214.20 446.01 207.40 446.03 200.61 Z" />
<path fill="#000000" opacity="1.00" d=" M 221.03 203.80 C 229.17 202.74 237.43 201.97 245.63 202.75 C 261.36 204.54 277.20 204.02 293.00 204.01 C 293.00 215.66 293.00 227.32 293.00 238.99 C 285.99 238.99 279.00 239.00 272.00 239.01 C 272.00 239.75 272.00 241.25 272.00 241.99 C 278.99 241.99 285.99 242.00 293.00 242.01 C 292.99 269.58 293.03 297.14 292.97 324.71 C 275.50 328.23 257.45 329.23 240.04 324.77 C 239.96 297.18 240.01 269.60 240.00 242.01 C 244.32 241.99 248.66 242.00 253.00 241.99 C 253.00 241.24 253.00 239.75 253.00 239.00 C 247.67 238.99 242.33 238.99 237.00 239.00 C 237.00 260.66 237.00 282.32 237.00 303.98 C 232.32 303.97 227.67 304.00 223.00 304.01 L 223.00 308.97 C 227.00 308.98 231.00 309.00 235.00 309.02 C 235.00 320.64 235.00 332.26 235.00 343.89 C 217.65 343.85 200.34 345.13 183.00 345.06 C 183.00 332.38 182.99 319.70 183.00 307.02 C 185.97 306.96 189.01 307.01 191.99 306.98 L 191.99 302.04 C 188.96 301.97 186.01 302.01 183.01 301.97 C 182.99 283.65 182.99 265.32 183.01 247.00 C 197.82 246.97 212.64 247.16 227.45 246.78 C 225.75 245.41 223.91 244.15 222.28 242.74 C 221.82 240.33 220.90 235.52 220.44 233.11 C 219.86 233.07 218.69 233.01 218.11 232.97 C 218.07 235.73 218.00 241.24 217.96 244.00 C 206.31 244.00 194.65 244.00 183.00 244.00 C 183.00 230.66 183.00 217.33 183.00 204.00 C 194.66 204.00 206.32 204.00 217.98 204.00 C 217.99 209.99 218.00 216.00 218.01 222.00 C 218.75 222.00 220.24 222.00 220.99 222.00 C 220.99 215.93 221.01 209.87 221.03 203.80 Z" />
</g>
</svg>
