<?xml version="1.0" encoding="UTF-8" ?>
<!DOCTYPE svg PUBLIC "-//W3C//DTD SVG 1.1//EN" "http://www.w3.org/Graphics/SVG/1.1/DTD/svg11.dtd">
<svg width="534pt" height="413pt" viewBox="0 0 534 413" version="1.1" xmlns="http://www.w3.org/2000/svg">
<g id="#000000ff">
<path fill="#000000" opacity="1.00" d=" M 135.99 61.00 C 151.01 61.00 166.02 61.00 181.04 61.00 C 181.08 69.35 181.25 77.70 181.03 86.05 C 181.69 89.65 180.58 93.20 177.92 95.65 C 184.03 117.85 179.85 141.27 180.98 164.00 C 169.56 163.98 158.14 164.01 146.72 164.00 C 146.99 167.22 147.32 170.46 147.71 173.67 C 148.69 171.53 149.56 169.33 150.49 167.17 C 160.66 167.03 170.83 166.99 181.00 166.98 C 180.99 173.31 180.99 179.66 181.00 186.00 C 169.35 186.00 157.70 186.00 146.05 186.01 C 152.98 195.91 149.25 208.58 145.27 219.00 C 157.18 218.99 169.09 219.01 181.00 219.00 C 181.00 224.66 181.00 230.33 181.00 236.00 C 169.00 235.99 157.00 236.01 145.00 236.00 C 145.00 236.75 145.00 238.25 145.00 239.00 C 157.00 238.99 169.00 239.01 181.00 239.00 C 181.00 247.66 181.00 256.33 181.00 265.00 C 169.67 265.00 158.34 265.00 147.01 265.00 C 147.00 260.32 147.00 255.67 147.00 251.00 C 146.25 251.00 144.76 251.00 144.01 251.00 C 144.00 255.65 144.00 260.32 143.99 264.99 C 141.33 264.99 138.67 265.00 136.01 265.01 C 136.00 265.76 136.00 267.25 135.99 268.00 C 151.00 268.00 166.00 267.99 181.00 268.00 C 181.00 285.66 181.00 303.33 181.00 320.99 C 177.00 320.99 173.00 321.00 169.00 321.01 L 169.00 325.99 C 173.00 325.99 177.00 325.99 181.00 326.01 C 181.00 337.34 181.00 348.67 181.00 360.00 C 163.00 360.00 145.00 360.00 127.00 360.00 C 127.00 348.67 127.00 337.34 127.00 326.01 C 129.75 326.00 135.25 325.99 138.00 325.99 L 138.00 321.01 C 133.66 320.99 129.33 321.00 125.00 320.99 C 125.00 294.99 125.00 269.00 125.00 243.00 C 124.25 243.00 122.75 243.00 122.00 243.00 C 121.99 275.22 122.03 307.43 121.98 339.65 C 111.31 340.74 100.79 343.46 90.00 343.08 C 80.56 343.14 71.28 341.33 62.03 339.74 C 61.97 308.50 62.01 277.26 62.00 246.02 C 74.86 246.01 87.72 246.12 100.58 245.66 C 97.96 243.70 95.22 241.90 92.71 239.80 C 83.38 244.93 72.21 242.54 62.00 243.07 C 62.00 235.37 62.00 227.69 62.00 220.00 C 71.66 220.00 81.32 220.00 90.98 220.00 C 90.99 221.75 91.01 225.24 91.01 226.99 C 91.76 226.99 93.25 227.00 94.00 227.01 C 94.00 220.33 94.00 213.66 94.00 206.99 C 93.26 207.00 91.76 207.01 91.02 207.01 C 91.00 209.67 90.99 212.33 90.99 215.00 C 81.32 214.99 71.66 215.00 62.00 215.00 C 62.00 199.00 62.00 183.00 62.00 167.00 C 71.67 167.00 81.33 167.00 91.00 167.00 C 91.00 176.33 91.00 185.66 91.00 195.00 C 91.75 195.00 93.25 195.00 94.00 195.00 C 94.00 185.67 94.00 176.34 94.01 167.01 C 95.75 167.01 99.24 166.99 100.99 166.99 C 100.99 166.24 101.00 164.75 101.01 164.00 C 88.00 164.01 75.00 163.99 62.00 164.00 C 62.00 135.12 61.99 106.24 62.01 77.36 C 77.05 76.79 91.90 73.03 107.01 74.11 C 115.09 74.44 122.99 76.16 130.97 77.29 C 131.01 106.05 131.04 134.81 130.95 163.56 C 127.42 164.26 123.90 164.97 120.39 165.77 C 124.91 166.28 129.46 166.76 133.99 167.21 C 134.00 144.53 134.01 121.86 133.99 99.19 C 136.99 98.91 142.98 98.35 145.98 98.08 C 142.85 96.15 139.58 94.50 136.22 93.05 C 136.01 82.37 135.97 71.68 135.99 61.00 Z" />
<path fill="#000000" opacity="1.00" d=" M 355.88 61.00 C 370.59 61.00 385.30 61.00 400.01 61.00 C 400.01 71.64 400.00 82.27 399.89 92.91 C 396.63 93.80 393.47 94.83 390.59 96.60 C 393.34 97.43 398.84 99.08 401.58 99.91 C 402.66 119.25 401.76 138.64 402.00 158.00 C 408.99 157.99 415.99 157.99 423.00 158.00 C 423.00 157.25 423.00 155.75 423.00 155.00 C 416.99 155.00 411.00 155.00 405.00 154.99 C 405.00 129.46 404.98 103.93 405.02 78.40 C 416.45 78.12 427.51 74.30 439.00 74.98 C 449.08 75.21 458.96 77.38 468.96 78.43 C 469.03 103.95 468.99 129.47 469.00 155.00 C 459.99 155.00 450.99 155.00 442.00 155.00 C 442.00 155.75 442.00 157.25 442.00 158.00 C 451.99 158.00 461.99 158.00 472.00 158.00 C 472.01 131.40 471.96 104.80 472.04 78.20 C 489.43 74.26 507.63 73.77 524.96 78.25 C 525.04 106.83 524.98 135.42 525.00 164.00 C 513.00 164.00 501.01 164.00 489.02 164.00 C 488.93 160.97 489.03 158.01 488.99 155.00 C 488.24 155.00 486.75 155.00 486.00 155.00 C 485.99 158.99 485.99 163.00 486.00 167.00 C 499.00 166.99 512.00 167.01 525.00 167.00 C 525.00 182.67 525.00 198.33 525.00 214.00 C 513.00 214.00 501.00 214.00 489.00 214.00 C 489.00 202.21 489.00 190.43 488.99 178.65 C 485.72 178.95 482.56 179.31 479.33 179.73 C 481.48 180.69 483.62 181.56 485.83 182.49 C 485.97 192.99 486.00 203.49 486.02 214.00 C 480.00 213.99 474.00 214.00 468.00 214.00 C 467.99 202.33 468.00 190.66 468.00 178.99 C 467.26 179.00 465.77 179.01 465.02 179.02 C 465.01 180.75 464.99 184.21 464.98 185.94 C 437.99 186.38 411.01 186.69 384.02 185.94 C 384.00 183.29 383.99 180.65 383.99 178.01 C 383.25 178.01 381.76 178.00 381.01 178.00 C 381.00 180.66 380.99 183.33 380.99 186.00 C 372.65 186.00 364.32 186.00 356.00 186.00 C 356.00 176.66 356.00 167.33 356.00 158.00 C 364.32 158.00 372.64 158.00 380.97 158.01 C 380.98 159.76 381.00 163.25 381.01 164.99 C 381.75 164.99 383.24 164.99 383.98 164.99 C 383.99 163.25 384.02 159.77 384.03 158.03 C 385.77 158.02 389.25 157.99 390.99 157.98 C 390.99 157.24 391.00 155.75 391.01 155.00 C 379.34 155.00 367.68 155.00 356.02 155.00 C 356.04 136.00 355.17 116.93 357.52 98.02 C 357.21 85.70 355.52 73.38 355.88 61.00 Z" />
<path fill="#000000" opacity="1.00" d=" M 222.04 219.11 C 229.71 217.54 237.55 215.66 245.41 217.11 C 261.45 219.93 277.80 218.95 294.00 219.00 C 294.00 230.66 294.00 242.33 294.00 253.99 C 286.66 253.99 279.33 254.00 272.00 254.00 C 272.00 254.75 272.00 256.25 272.00 257.00 C 279.33 257.00 286.66 257.00 294.00 257.00 C 294.00 284.62 294.01 312.23 293.99 339.84 C 276.75 341.99 259.23 342.92 242.03 339.95 C 241.97 312.30 242.01 284.66 242.00 257.01 C 244.75 257.00 250.25 257.00 253.00 256.99 C 253.00 256.24 253.00 254.75 253.00 254.00 C 248.32 253.99 243.67 254.00 239.00 254.00 C 239.00 276.33 239.00 298.66 239.00 320.99 C 234.32 320.98 229.67 321.00 225.00 321.00 L 225.00 325.99 C 229.00 325.99 233.00 325.99 237.00 326.01 C 237.00 337.34 237.00 348.67 237.00 360.00 C 220.00 360.00 203.00 360.00 186.00 360.00 C 186.00 348.75 186.00 337.51 185.99 326.27 C 188.98 325.96 191.97 325.62 194.96 325.24 C 192.14 323.38 189.23 321.72 186.30 320.09 C 185.80 300.74 186.02 281.38 186.00 262.02 C 200.23 262.02 214.46 262.24 228.67 261.37 C 226.56 260.36 224.38 259.42 222.26 258.49 C 222.19 255.87 222.03 250.64 221.96 248.02 C 221.22 248.01 219.75 248.00 219.01 247.99 C 219.01 250.75 218.99 256.25 218.99 259.00 C 207.99 259.00 196.99 259.00 186.00 259.00 C 186.00 245.66 186.00 232.33 186.00 219.00 C 197.00 219.00 207.99 219.00 219.00 219.00 C 218.99 224.66 219.00 230.33 219.00 236.00 C 219.75 236.00 221.24 236.00 221.99 236.00 C 222.00 230.36 222.01 224.74 222.04 219.11 Z" />
<path fill="#000000" opacity="1.00" d=" M 297.00 219.19 C 311.35 219.36 325.64 217.66 339.97 217.57 C 349.62 218.39 359.29 219.07 368.99 219.17 C 368.99 224.77 368.99 230.38 369.00 236.00 C 369.75 236.00 371.25 236.00 371.99 236.00 C 371.99 230.33 372.00 224.66 372.01 219.00 C 382.67 219.00 393.33 219.00 404.00 219.00 C 404.00 232.33 404.00 245.66 404.00 259.00 C 393.33 259.00 382.67 259.00 372.01 259.00 C 372.00 256.25 371.99 250.75 371.99 248.00 C 371.25 248.00 369.78 248.02 369.05 248.03 C 368.98 250.63 368.85 255.83 368.78 258.43 C 366.41 259.14 364.41 260.09 362.19 260.97 C 376.09 262.27 390.06 262.07 404.00 262.03 C 404.00 281.60 403.99 301.16 404.01 320.73 C 401.01 321.03 398.02 321.37 395.04 321.76 C 397.84 323.59 400.76 325.28 403.70 326.91 C 403.98 337.93 404.02 348.97 404.02 360.00 C 387.34 360.00 370.67 360.00 354.00 360.00 C 353.99 348.66 354.00 337.34 354.00 326.01 C 357.75 326.00 365.25 325.99 369.00 325.99 L 369.00 321.01 C 363.32 321.00 357.66 320.99 352.00 320.99 C 352.00 298.66 352.00 276.33 352.00 254.00 C 346.66 253.99 341.33 253.99 336.00 254.00 C 336.00 254.75 336.00 256.24 336.00 256.99 C 340.32 256.99 344.67 257.00 349.00 257.01 C 348.99 284.61 349.02 312.22 348.98 339.83 C 331.77 342.44 314.22 342.70 297.02 339.84 C 296.98 312.22 297.00 284.61 297.00 257.00 C 303.66 257.00 310.33 257.00 317.00 257.00 C 317.00 256.25 317.00 254.75 317.00 254.00 C 310.33 254.00 303.66 253.99 297.00 253.99 C 297.00 242.39 297.00 230.79 297.00 219.19 Z" />
<path fill="#000000" opacity="1.00" d=" M 447.01 216.77 C 472.98 218.46 498.95 219.76 525.00 218.99 C 525.00 230.65 525.00 242.32 525.00 254.00 C 514.99 254.00 505.00 254.00 495.00 254.00 C 495.00 254.75 495.00 256.25 495.00 257.00 C 504.99 257.00 514.99 257.00 525.00 257.00 C 524.99 284.54 525.01 312.09 524.99 339.63 C 510.92 340.03 497.12 344.08 482.99 342.91 C 475.24 342.62 467.66 340.95 460.03 339.74 C 459.97 312.16 460.01 284.58 460.00 257.01 C 465.66 257.00 471.33 257.00 477.00 257.00 C 477.00 256.25 477.00 254.75 477.00 254.00 C 470.33 254.00 463.66 254.00 457.00 254.00 C 457.00 276.28 456.99 298.56 457.00 320.84 C 452.73 321.05 448.47 321.30 444.22 321.59 C 446.66 323.11 451.53 326.16 453.97 327.68 C 455.78 338.34 454.93 349.23 455.02 360.00 C 439.68 360.00 424.34 360.00 409.00 360.00 C 409.00 348.67 409.00 337.34 409.00 326.01 C 411.93 325.95 415.02 326.02 418.00 325.99 L 417.99 321.02 C 414.93 320.96 412.02 321.02 409.00 320.99 C 409.00 301.32 409.00 281.66 409.00 262.00 C 421.66 262.01 434.33 261.98 447.00 262.00 C 446.98 257.32 447.00 252.67 447.00 248.00 C 446.25 248.00 444.76 248.00 444.01 248.00 C 444.00 250.75 443.99 256.25 443.99 259.00 C 432.32 259.00 420.66 259.00 409.00 259.00 C 409.00 245.66 409.00 232.33 409.00 219.00 C 420.66 219.00 432.32 219.00 443.99 219.00 C 443.99 224.66 443.99 230.33 444.00 236.00 C 444.75 236.00 446.25 236.00 446.99 236.00 C 446.99 229.58 447.00 223.18 447.01 216.77 Z" />
</g>
</svg>
