<?xml version="1.0" encoding="UTF-8" ?>
<!DOCTYPE svg PUBLIC "-//W3C//DTD SVG 1.1//EN" "http://www.w3.org/Graphics/SVG/1.1/DTD/svg11.dtd">
<svg width="534pt" height="413pt" viewBox="0 0 534 413" version="1.1" xmlns="http://www.w3.org/2000/svg">
<g id="#000000ff">
<path fill="#000000" opacity="1.00" d=" M 135.99 61.00 C 151.04 61.00 166.10 61.00 181.16 61.00 C 181.29 73.44 180.76 85.87 179.48 98.23 C 181.88 120.08 180.89 142.07 180.98 164.00 C 169.55 163.99 158.13 164.00 146.71 164.01 C 146.99 167.21 147.33 170.45 147.73 173.66 C 148.69 171.52 149.55 169.33 150.47 167.17 C 160.65 167.03 170.82 166.98 181.00 166.98 C 181.00 173.32 181.00 179.66 181.00 186.00 C 160.07 186.00 139.15 185.98 118.22 186.02 C 118.70 195.34 118.56 204.67 118.13 213.99 C 102.42 214.01 86.71 214.00 71.00 214.00 C 70.99 204.67 70.99 195.33 71.00 186.00 C 75.00 186.00 79.00 186.00 83.00 186.00 C 83.00 185.25 83.00 183.75 83.00 183.00 C 79.25 183.00 71.75 183.00 68.00 183.00 C 68.00 193.33 68.00 203.66 68.00 214.00 C 48.33 214.00 28.67 214.01 9.00 214.00 C 9.00 210.25 9.00 202.76 9.00 199.01 C 24.00 198.97 39.00 199.03 54.00 198.99 C 54.00 198.25 54.00 196.75 54.00 196.01 C 39.00 195.97 24.00 196.03 9.00 195.99 C 9.00 186.32 9.00 176.66 9.00 167.00 C 23.00 167.00 36.99 167.00 50.99 167.00 C 51.00 173.33 51.00 179.67 51.02 186.00 C 51.69 186.00 53.02 185.99 53.69 185.99 C 54.12 178.66 53.63 171.15 55.68 164.02 C 40.12 163.97 24.56 164.02 9.00 164.00 C 9.01 135.13 8.98 106.27 9.02 77.40 C 15.43 76.96 21.82 76.19 28.12 74.92 C 41.44 72.41 54.75 76.11 67.96 77.42 C 68.04 107.28 67.98 137.14 68.00 167.00 C 74.67 167.00 81.33 167.00 88.00 167.00 C 88.00 166.25 88.00 164.75 88.00 164.00 C 82.33 164.00 76.67 164.00 71.00 164.00 C 71.01 135.09 70.97 106.18 71.02 77.27 C 90.82 73.22 111.19 73.06 130.97 77.29 C 131.03 106.19 130.99 135.09 131.00 164.00 C 122.33 164.00 113.67 164.00 105.00 164.00 C 105.00 164.75 105.00 166.25 105.00 167.00 C 114.67 167.00 124.33 167.00 134.00 167.00 C 134.00 144.40 134.01 121.80 133.99 99.20 C 136.98 98.90 142.94 98.31 145.92 98.02 C 142.76 96.22 139.55 94.54 136.24 93.04 C 136.01 82.36 135.97 71.68 135.99 61.00 Z" />
<path fill="#000000" opacity="1.00" d=" M 355.89 61.00 C 370.59 61.01 385.30 61.00 400.01 61.00 C 400.01 71.64 400.00 82.28 399.88 92.92 C 396.68 93.86 393.56 94.87 390.64 96.49 C 393.38 97.35 398.84 99.07 401.58 99.93 C 402.67 119.26 401.75 138.64 402.00 158.00 C 408.99 158.00 415.99 158.00 423.00 158.00 C 423.00 157.25 423.00 155.75 423.00 155.00 C 416.99 155.00 411.00 155.00 405.00 155.00 C 405.00 129.46 404.98 103.93 405.02 78.40 C 411.42 77.96 417.82 77.19 424.12 75.93 C 439.09 73.22 454.11 76.70 468.97 78.42 C 469.03 103.95 468.99 129.47 469.00 155.00 C 459.99 155.00 450.99 155.00 442.00 155.00 C 442.00 155.75 442.00 157.25 442.00 158.00 C 451.99 158.00 461.99 158.00 472.00 158.00 C 472.02 131.39 471.95 104.79 472.05 78.19 C 489.43 74.26 507.63 73.77 524.96 78.25 C 525.04 106.83 524.98 135.41 525.00 164.00 C 513.00 164.00 501.00 164.00 489.01 164.00 C 488.93 160.97 489.03 158.01 488.99 155.00 C 488.25 155.00 486.75 155.00 486.00 155.00 C 485.99 158.99 485.99 162.99 486.00 166.99 C 499.00 167.03 512.00 166.97 525.00 167.01 C 525.00 182.67 525.00 198.33 525.00 214.00 C 512.99 214.00 500.99 214.00 489.00 214.00 C 489.00 202.21 489.00 190.43 488.98 178.64 C 485.72 178.95 482.57 179.32 479.34 179.74 C 481.48 180.69 483.62 181.55 485.83 182.47 C 485.97 192.98 486.01 203.49 486.02 214.00 C 480.00 213.99 474.00 214.00 468.00 214.00 C 467.99 202.33 468.00 190.66 468.00 179.00 C 467.25 179.00 465.76 179.01 465.01 179.01 C 465.01 180.74 465.00 184.21 464.99 185.94 C 437.99 186.38 411.01 186.69 384.01 185.94 C 384.00 183.29 383.99 180.65 383.99 178.00 C 383.25 178.00 381.75 178.00 381.01 178.00 C 381.00 180.66 380.99 183.32 380.99 185.99 C 372.66 186.02 364.33 186.01 356.00 185.99 C 355.99 176.66 355.99 167.34 356.00 158.01 C 364.33 157.98 372.65 157.98 380.99 158.02 C 380.99 159.76 381.00 163.25 381.01 165.00 C 381.75 165.00 383.24 165.00 383.99 165.00 C 384.00 163.25 384.01 159.76 384.01 158.01 C 385.76 158.01 389.25 158.00 390.99 157.99 C 391.00 157.24 391.00 155.75 391.00 155.00 C 379.34 155.00 367.68 155.00 356.02 155.00 C 356.03 136.01 355.20 116.94 357.51 98.04 C 357.24 85.71 355.46 73.38 355.89 61.00 Z" />
<path fill="#000000" opacity="1.00" d=" M 114.00 218.90 C 124.36 219.31 134.51 215.25 144.84 217.09 C 156.75 219.39 168.93 219.07 181.00 219.12 C 181.00 224.74 181.00 230.37 181.00 236.00 C 169.00 236.00 157.00 236.00 145.00 236.00 C 145.00 236.75 145.00 238.25 145.00 239.00 C 157.00 239.00 168.99 239.00 180.99 239.00 C 181.01 247.66 181.01 256.33 181.00 265.00 C 169.66 265.00 158.33 265.00 147.00 265.00 C 146.99 260.32 147.00 255.67 147.00 251.00 C 146.25 251.00 144.75 251.00 144.00 251.00 C 144.00 255.65 144.00 260.33 144.00 264.99 C 141.33 264.99 138.66 265.00 136.00 265.00 C 136.00 265.75 136.00 267.25 136.00 267.99 C 151.00 268.03 166.00 267.97 181.00 268.01 C 181.00 285.67 181.00 303.33 181.00 321.00 C 177.00 320.99 173.00 320.99 169.00 321.00 L 169.00 325.99 C 173.00 325.99 177.00 325.99 181.00 326.00 C 181.00 337.33 181.00 348.66 181.00 360.00 C 163.00 360.00 145.00 360.00 127.00 360.00 C 127.00 348.66 127.00 337.33 127.00 326.00 C 129.75 326.00 135.25 326.00 138.00 325.99 L 138.00 321.01 C 133.66 320.99 129.33 321.00 125.00 321.00 C 125.00 298.00 125.00 275.00 125.00 252.00 C 124.25 252.00 122.75 252.00 122.00 252.00 C 121.99 281.26 122.02 310.52 121.99 339.78 C 102.06 342.01 81.91 343.03 62.01 339.85 C 61.99 311.57 62.00 283.29 62.00 255.01 C 76.33 254.96 90.67 255.04 105.00 254.99 C 105.00 250.32 105.00 245.67 105.00 241.00 C 104.25 241.00 102.75 241.00 102.01 241.00 C 102.00 243.75 102.00 249.25 101.99 252.00 C 88.66 252.00 75.34 252.00 62.01 252.00 C 62.01 249.25 62.00 243.75 62.00 241.00 C 61.25 241.00 59.75 241.00 59.00 241.00 C 58.98 267.60 59.05 294.21 58.95 320.81 C 42.52 325.05 25.53 323.86 9.03 320.68 C 8.97 286.79 9.01 252.90 9.00 219.00 C 44.00 218.85 79.01 219.26 114.00 218.90 Z" />
<path fill="#000000" opacity="1.00" d=" M 222.03 219.11 C 229.70 217.53 237.55 215.69 245.41 217.11 C 261.46 219.93 277.80 218.95 294.00 219.00 C 294.00 230.67 294.00 242.33 294.00 254.00 C 286.66 254.00 279.33 254.00 272.00 254.00 C 272.00 254.75 272.00 256.25 272.00 257.00 C 279.33 256.99 286.66 257.00 294.00 257.00 C 293.99 284.62 294.01 312.23 293.99 339.84 C 276.74 341.98 259.23 342.92 242.03 339.95 C 241.97 312.30 242.01 284.65 242.00 257.00 C 244.75 257.00 250.25 257.00 253.00 257.00 C 253.00 256.25 253.00 254.75 253.00 254.00 C 248.32 253.99 243.67 254.00 239.00 254.00 C 239.00 276.33 239.00 298.66 239.00 321.00 C 234.32 320.99 229.67 321.00 225.00 321.00 L 225.00 325.99 C 229.00 325.99 233.00 325.99 237.00 326.00 C 237.00 337.33 237.00 348.67 237.00 360.00 C 220.00 360.00 203.00 360.00 186.00 360.00 C 186.00 348.75 186.00 337.51 185.99 326.27 C 188.98 325.95 191.97 325.61 194.95 325.23 C 192.14 323.38 189.24 321.72 186.30 320.11 C 185.81 300.75 186.01 281.38 186.01 262.02 C 200.14 261.95 214.27 262.13 228.39 261.75 C 226.73 260.39 224.91 259.16 223.33 257.74 C 222.85 255.33 221.90 250.52 221.42 248.12 C 220.84 248.08 219.68 248.01 219.10 247.97 C 219.07 250.72 219.01 256.24 218.98 259.00 C 207.98 259.00 196.99 259.00 186.00 259.00 C 186.00 245.66 186.00 232.33 186.00 219.00 C 197.00 219.00 208.00 219.00 219.00 219.00 C 218.99 224.66 219.00 230.33 219.00 236.00 C 219.75 236.00 221.24 236.00 221.99 236.00 C 222.00 230.36 222.01 224.73 222.03 219.11 Z" />
<path fill="#000000" opacity="1.00" d=" M 297.00 219.19 C 311.35 219.36 325.64 217.66 339.97 217.57 C 349.63 218.39 359.29 219.06 368.99 219.17 C 368.99 224.77 368.99 230.39 369.00 236.00 C 369.75 236.00 371.25 236.00 372.00 236.00 C 371.99 230.33 371.99 224.66 372.00 219.00 C 382.66 219.00 393.33 219.00 404.00 219.00 C 404.00 232.33 404.00 245.66 404.00 259.00 C 393.33 259.00 382.67 259.00 372.01 259.00 C 372.00 256.25 372.00 250.75 371.99 248.00 C 371.25 248.00 369.78 248.02 369.04 248.02 C 368.98 250.64 368.86 255.86 368.80 258.47 C 366.42 259.15 364.44 260.09 362.22 260.94 C 376.10 262.29 390.06 262.05 404.00 262.04 C 404.00 281.60 404.00 301.17 404.00 320.73 C 401.01 321.04 398.02 321.39 395.05 321.77 C 397.84 323.59 400.76 325.28 403.71 326.89 C 403.98 337.92 404.02 348.96 404.02 360.00 C 387.34 360.00 370.67 360.00 354.00 360.00 C 354.00 348.66 354.00 337.33 354.00 326.00 C 357.75 326.00 365.25 326.00 369.00 326.00 L 369.00 321.00 C 363.32 320.99 357.66 320.99 352.00 321.00 C 352.00 298.66 352.00 276.33 352.00 254.00 C 346.66 254.00 341.33 254.00 336.00 254.00 C 336.00 254.75 336.00 256.25 336.00 256.99 C 340.32 256.99 344.67 257.00 349.00 257.00 C 348.99 284.61 349.02 312.22 348.99 339.84 C 331.77 342.43 314.22 342.69 297.01 339.84 C 296.98 312.22 297.00 284.61 297.00 257.00 C 303.66 257.00 310.33 257.00 317.00 257.00 C 317.00 256.25 317.00 254.75 317.00 254.00 C 310.33 254.00 303.66 254.00 297.00 254.00 C 297.00 242.39 297.00 230.79 297.00 219.19 Z" />
<path fill="#000000" opacity="1.00" d=" M 447.01 216.77 C 472.98 218.46 498.95 219.76 525.00 218.99 C 524.99 230.66 524.99 242.32 525.00 254.00 C 514.99 254.00 504.99 254.00 495.00 254.00 C 495.00 254.75 495.00 256.25 495.00 257.00 C 504.99 257.00 514.99 257.00 525.00 257.00 C 524.99 284.55 525.01 312.09 524.99 339.63 C 510.92 340.04 497.12 344.06 482.99 342.92 C 475.24 342.62 467.66 340.94 460.03 339.74 C 459.97 312.16 460.01 284.58 460.00 257.00 C 465.66 256.99 471.33 257.00 477.00 257.00 C 477.00 256.25 477.00 254.75 477.00 254.00 C 470.33 254.00 463.66 254.00 457.00 254.00 C 457.00 276.28 456.99 298.56 457.00 320.85 C 452.73 321.06 448.47 321.31 444.22 321.59 C 446.66 323.11 451.52 326.15 453.96 327.67 C 455.77 338.33 454.94 349.22 455.02 360.00 C 439.68 360.00 424.34 360.00 409.00 360.00 C 409.00 348.66 408.99 337.33 409.00 326.01 C 411.93 325.95 415.02 326.02 418.00 326.00 L 418.00 321.01 C 414.93 320.95 412.03 321.02 409.01 320.99 C 408.99 301.33 408.99 281.66 409.00 262.00 C 421.67 261.99 434.33 262.01 447.00 262.00 C 446.98 257.32 447.00 252.67 447.00 248.00 C 446.25 248.00 444.75 248.00 444.01 248.00 C 444.00 250.75 444.00 256.25 443.99 259.00 C 432.32 259.00 420.66 259.00 409.00 259.00 C 409.00 245.66 409.00 232.33 409.00 219.00 C 420.66 219.00 432.33 219.00 444.00 219.00 C 443.99 224.66 443.99 230.33 444.00 236.00 C 444.75 236.00 446.25 236.00 447.00 236.00 C 446.99 229.58 447.00 223.18 447.01 216.77 Z" />
</g>
</svg>
