<?xml version="1.0" encoding="UTF-8" ?>
<!DOCTYPE svg PUBLIC "-//W3C//DTD SVG 1.1//EN" "http://www.w3.org/Graphics/SVG/1.1/DTD/svg11.dtd">
<svg width="534pt" height="413pt" viewBox="0 0 534 413" version="1.1" xmlns="http://www.w3.org/2000/svg">
<g id="#000000ff">
<path fill="#000000" opacity="1.00" d=" M 117.05 19.00 C 126.02 19.00 134.98 19.00 143.95 19.00 C 143.97 19.50 144.03 20.50 144.05 21.00 C 147.37 21.00 150.68 21.00 154.00 21.00 C 154.01 46.33 153.99 71.67 154.00 97.00 C 160.67 97.00 167.33 97.00 174.00 96.99 C 174.00 96.25 174.00 94.75 174.00 94.01 C 169.00 93.99 164.00 94.01 159.00 94.00 C 159.00 69.67 159.00 45.33 159.00 21.00 C 162.32 21.00 165.63 21.00 168.95 21.00 C 168.97 20.50 169.03 19.50 169.05 19.00 C 179.35 19.00 189.65 19.00 199.95 19.00 C 199.97 19.50 200.03 20.50 200.05 21.00 C 204.03 21.00 208.01 20.99 212.00 21.00 C 212.00 45.33 212.00 69.67 212.00 94.00 C 203.33 94.01 194.67 93.99 186.00 94.00 C 186.00 94.75 186.00 96.25 186.00 96.99 C 194.67 97.01 203.33 96.99 212.00 97.00 C 212.00 129.34 212.00 161.67 212.00 194.00 C 208.67 194.00 205.34 194.00 202.02 194.00 C 202.01 194.75 201.99 196.25 201.98 197.00 C 197.33 197.00 192.67 197.00 188.02 197.00 C 188.01 196.25 187.99 194.75 187.98 194.00 C 184.66 194.00 181.33 194.00 178.00 194.00 C 177.99 174.00 178.01 154.00 178.00 134.00 C 177.25 134.00 175.75 134.00 175.01 134.00 C 174.99 143.66 175.01 153.33 175.00 163.00 C 169.66 163.00 164.33 163.00 159.00 163.00 C 158.99 153.66 159.01 144.33 159.00 135.00 C 157.33 135.00 155.67 135.00 154.00 135.00 C 153.99 144.33 154.01 153.66 154.00 163.00 C 145.33 163.00 136.67 163.00 128.00 163.00 C 128.00 154.33 128.00 145.67 128.00 137.00 C 130.67 137.00 133.33 136.99 136.00 137.00 C 136.00 136.25 136.00 134.75 136.00 134.00 C 132.33 133.99 128.67 134.00 125.00 134.00 C 124.99 143.67 125.01 153.33 125.00 163.00 C 108.00 163.00 91.00 163.00 74.00 163.00 C 74.00 160.66 74.00 158.33 74.00 156.00 C 72.33 156.00 70.67 156.00 69.00 156.00 C 69.00 158.33 69.00 160.66 69.00 163.00 C 53.67 162.91 38.34 163.21 23.02 162.81 C 22.60 146.16 23.82 129.44 27.21 113.13 C 29.48 100.28 32.86 87.63 37.40 75.40 C 43.38 74.46 49.82 75.27 55.98 75.00 C 55.99 75.75 56.01 77.25 56.02 78.00 C 57.68 78.00 59.34 78.00 61.00 78.00 C 61.01 73.33 60.99 68.67 61.00 64.00 C 85.00 64.00 109.00 64.00 133.00 64.00 C 133.01 72.67 132.99 81.33 133.00 90.00 C 133.75 90.00 135.25 90.00 135.99 90.00 C 136.01 80.33 136.00 70.67 136.00 61.00 C 122.33 60.99 108.67 61.01 95.00 61.00 C 95.00 47.67 95.00 34.33 95.00 21.00 C 102.32 20.99 109.63 21.00 116.95 21.00 C 116.97 20.50 117.03 19.50 117.05 19.00 M 133.00 106.00 C 132.99 110.00 133.01 114.00 133.00 118.00 C 109.00 118.00 85.00 118.00 61.00 118.00 C 61.00 115.00 61.00 112.00 61.00 109.00 C 59.33 109.00 57.67 109.00 56.00 109.00 C 56.00 113.66 56.00 118.33 56.00 123.00 C 60.33 123.01 64.67 122.99 69.00 123.00 C 69.00 126.00 69.00 129.00 69.00 132.00 C 70.67 132.00 72.33 132.00 74.00 132.00 C 74.00 128.33 74.00 124.67 74.00 121.00 C 94.67 120.99 115.33 121.01 136.00 121.00 C 136.00 116.00 136.00 111.00 135.99 106.00 C 135.25 106.00 133.75 106.00 133.00 106.00 Z" />
<path fill="#000000" opacity="1.00" d=" M 420.02 78.00 C 430.67 78.00 441.33 78.00 451.98 78.00 C 451.99 78.75 452.01 80.25 452.02 81.00 C 456.01 81.00 460.00 80.99 464.00 81.00 C 464.01 108.00 463.99 135.00 464.01 162.00 C 464.75 162.00 466.25 162.00 466.99 162.00 C 467.01 135.00 466.99 108.00 467.00 81.00 C 469.33 81.00 471.65 81.00 473.98 81.00 C 473.99 80.25 474.01 78.75 474.02 78.00 C 484.34 78.00 494.66 78.00 504.98 78.00 C 504.99 78.75 505.01 80.25 505.02 81.00 C 507.34 81.00 509.67 81.00 512.00 81.00 C 512.00 108.00 512.00 135.00 512.00 162.00 C 501.66 162.01 491.33 161.99 481.00 162.00 C 481.00 168.67 480.99 175.33 481.01 182.00 C 481.75 182.00 483.25 182.00 483.99 182.00 C 484.01 177.00 483.99 172.00 484.00 167.00 C 493.33 167.00 502.66 167.00 512.00 167.00 C 512.00 180.00 512.00 193.00 512.00 206.00 C 502.66 206.00 493.33 206.00 484.00 206.00 C 483.99 201.33 484.01 196.66 483.99 192.00 C 483.25 192.00 481.75 192.00 481.00 192.00 C 480.99 198.33 481.00 204.66 481.00 211.00 C 491.33 211.01 501.66 210.99 512.00 211.00 C 512.00 230.67 512.00 250.33 512.00 270.00 C 509.66 269.99 507.33 270.00 505.00 270.00 C 505.00 271.66 505.00 273.33 505.00 275.00 C 507.33 275.00 509.66 275.00 512.00 275.00 C 512.00 283.00 512.00 291.00 512.00 299.00 C 497.00 299.00 482.00 299.00 467.00 299.00 C 467.00 291.00 467.00 283.00 467.00 275.00 C 470.33 275.00 473.66 275.00 477.00 275.00 C 476.99 273.33 476.99 271.66 477.00 270.00 C 473.00 269.99 469.00 270.01 465.00 270.00 C 464.99 248.66 465.01 227.33 465.00 206.00 C 431.67 205.99 398.33 206.01 365.00 206.00 C 364.99 201.34 365.00 196.68 365.00 192.02 C 364.25 192.01 362.75 191.99 362.00 191.98 C 362.00 186.66 362.00 181.34 362.00 176.02 C 362.75 176.01 364.25 175.99 365.00 175.98 C 364.99 172.99 365.00 170.00 365.00 167.00 C 374.33 166.99 383.67 167.01 393.00 167.00 C 392.99 165.33 392.99 163.67 393.00 162.00 C 383.67 161.99 374.34 162.01 365.00 162.00 C 365.00 143.67 365.00 125.33 365.00 107.00 C 368.33 107.00 371.66 107.00 375.00 107.00 C 374.99 105.33 374.99 103.67 375.00 102.00 C 371.00 101.99 367.00 102.01 363.00 102.00 C 363.00 94.33 363.00 86.67 363.00 79.00 C 379.00 79.00 395.00 79.00 411.00 79.00 C 411.00 86.67 411.00 94.33 411.00 102.00 C 406.33 102.01 401.66 101.99 397.00 102.00 C 397.00 103.67 397.00 105.33 397.00 107.00 C 402.33 107.01 407.66 106.99 413.00 107.00 C 413.00 125.33 413.00 143.66 413.00 162.00 C 411.32 162.00 409.66 162.00 408.00 162.00 C 408.00 163.67 408.00 165.33 408.00 167.00 C 421.00 167.00 434.00 167.00 447.00 167.00 C 446.99 165.33 446.99 163.67 447.00 162.00 C 436.67 161.99 426.34 162.01 416.00 162.00 C 416.00 135.00 416.00 108.00 416.00 81.00 C 417.33 81.00 418.65 81.00 419.98 81.00 C 419.99 80.25 420.01 78.75 420.02 78.00 Z" />
<path fill="#000000" opacity="1.00" d=" M 365.00 211.00 C 379.33 211.00 393.67 211.00 408.00 211.00 C 408.01 216.00 407.99 221.00 408.01 226.00 C 408.75 226.00 410.25 226.00 410.99 226.00 C 411.01 221.00 410.99 216.00 411.00 211.00 C 428.00 211.00 445.00 211.00 462.00 211.00 C 462.00 239.00 462.00 267.00 462.00 295.00 C 459.99 295.00 457.99 295.00 456.00 295.00 C 456.00 296.66 456.00 298.33 456.00 300.00 C 457.99 300.00 459.99 300.00 462.00 300.00 C 462.00 308.00 462.00 316.00 462.00 324.00 C 449.66 324.00 437.33 324.00 425.00 324.00 C 425.00 316.00 425.00 308.01 425.00 300.02 C 425.75 300.01 427.25 299.99 428.00 299.98 C 427.99 298.31 427.99 296.64 428.00 294.97 C 426.22 295.00 424.45 295.04 422.69 295.13 C 419.51 290.29 416.79 285.17 413.77 280.23 C 412.50 278.02 410.75 275.82 410.99 273.11 C 411.00 261.74 411.01 250.37 410.99 239.00 C 410.25 239.00 408.75 239.00 408.00 239.00 C 408.00 251.01 408.00 263.02 408.00 275.04 C 407.90 277.18 409.57 278.79 410.51 280.57 C 413.62 285.93 417.14 291.08 419.99 296.58 C 420.02 308.05 419.99 319.52 420.00 331.00 C 414.35 331.00 408.70 331.00 403.05 331.00 C 403.03 331.50 402.97 332.50 402.95 333.00 C 393.65 333.00 384.35 333.00 375.05 333.00 C 375.03 332.50 374.97 331.50 374.95 331.00 C 371.63 331.00 368.32 331.00 365.00 331.00 C 365.00 313.33 365.00 295.67 365.00 278.00 C 375.00 277.99 385.00 278.01 395.00 278.00 C 395.00 270.33 395.00 262.67 395.00 255.00 C 394.25 255.00 392.75 255.00 392.01 255.00 C 391.99 261.66 392.01 268.33 392.00 275.00 C 383.00 275.00 374.00 275.00 365.00 275.00 C 365.00 264.67 365.00 254.33 365.00 244.00 C 373.98 243.99 382.97 244.00 391.95 244.00 C 391.97 244.50 392.03 245.50 392.05 246.00 C 392.79 246.00 394.26 246.00 395.00 246.00 C 394.99 244.33 394.99 242.66 395.00 241.00 C 385.00 240.99 375.00 241.01 365.00 241.00 C 365.00 238.67 364.99 236.34 365.00 234.02 C 364.25 234.01 362.75 233.99 362.00 233.98 C 362.00 228.33 362.00 222.67 362.00 217.02 C 362.75 217.01 364.25 216.99 365.00 216.98 C 365.00 214.99 365.00 212.99 365.00 211.00 Z" />
<path fill="#000000" opacity="1.00" d=" M 328.05 241.00 C 333.35 241.00 338.65 241.00 343.95 241.00 C 343.97 241.50 344.03 242.50 344.05 243.00 C 349.37 243.00 354.68 242.99 360.00 243.00 C 360.00 253.67 360.00 264.33 360.00 275.00 C 351.33 275.01 342.67 274.99 334.00 275.00 C 334.00 275.75 334.00 277.25 334.00 277.99 C 342.66 278.01 351.33 277.99 360.00 278.00 C 360.00 302.00 360.00 326.00 360.00 350.00 C 355.33 350.01 350.66 349.99 346.00 350.00 C 346.00 351.66 346.00 353.32 346.00 354.98 C 346.75 354.99 348.25 355.01 349.00 355.02 C 349.00 360.76 349.00 366.51 349.00 372.26 C 336.45 377.18 323.10 379.64 309.90 382.17 C 294.13 385.16 278.08 386.21 262.05 385.82 C 261.95 370.55 262.02 355.27 262.00 340.00 C 264.33 340.00 266.67 339.99 269.00 340.00 C 268.99 338.33 268.99 336.66 269.00 335.00 C 266.66 335.00 264.33 334.99 262.00 335.00 C 262.00 316.00 262.00 297.00 262.00 278.00 C 272.33 277.99 282.66 278.01 293.00 278.00 C 293.00 273.33 293.00 268.67 293.00 264.00 C 292.25 264.00 290.75 264.00 290.01 264.00 C 289.99 267.66 290.00 271.33 290.00 275.00 C 280.67 275.00 271.33 275.00 262.00 275.00 C 262.00 264.33 262.00 253.67 262.00 243.00 C 271.33 243.00 280.66 243.00 290.00 243.00 C 290.00 246.67 289.99 250.33 290.01 254.00 C 290.75 254.00 292.25 254.00 293.00 254.00 C 293.00 250.33 292.99 246.67 293.00 243.00 C 304.65 242.99 316.30 243.00 327.95 243.00 C 327.97 242.50 328.03 241.50 328.05 241.00 M 302.00 275.00 C 301.99 295.00 302.01 315.00 302.00 335.00 C 299.00 334.99 296.00 335.00 293.00 335.00 C 293.00 336.66 293.00 338.33 293.00 340.00 C 295.33 339.99 297.66 340.00 300.00 340.00 C 300.01 345.00 299.99 350.00 300.00 355.00 C 305.67 355.00 311.33 355.00 317.00 355.00 C 316.99 353.33 316.99 351.66 317.00 350.00 C 313.00 349.99 309.00 350.00 305.00 350.00 C 305.00 326.00 305.00 302.00 305.00 278.00 C 310.33 277.99 315.67 278.01 321.00 277.99 C 321.00 277.25 321.00 275.75 321.00 275.01 C 314.67 275.00 308.33 275.00 302.00 275.00 Z" />
</g>
</svg>
