<?xml version="1.0" encoding="UTF-8" ?>
<!DOCTYPE svg PUBLIC "-//W3C//DTD SVG 1.1//EN" "http://www.w3.org/Graphics/SVG/1.1/DTD/svg11.dtd">
<svg width="534pt" height="413pt" viewBox="0 0 534 413" version="1.1" xmlns="http://www.w3.org/2000/svg">
<g id="#000000ff">
<path fill="#000000" opacity="1.00" d=" M 135.99 61.00 C 151.04 61.00 166.10 61.00 181.16 61.00 C 181.32 73.44 180.77 85.87 179.47 98.23 C 181.90 120.08 180.89 142.07 180.98 164.00 C 169.55 164.00 158.13 163.99 146.71 164.01 C 147.00 167.21 147.33 170.45 147.73 173.65 C 148.69 171.51 149.55 169.33 150.47 167.19 C 160.65 167.03 170.82 166.97 181.00 166.98 C 181.00 173.32 181.01 179.66 181.00 186.00 C 160.07 186.00 139.15 185.98 118.22 186.02 C 118.70 195.33 118.56 204.67 118.13 213.99 C 102.42 214.01 86.71 214.00 71.00 214.00 C 70.99 204.67 71.00 195.34 71.00 186.01 C 73.75 186.00 79.25 186.00 82.00 186.00 C 82.00 185.25 82.00 183.75 82.00 183.00 C 72.67 182.99 63.33 183.00 54.00 183.00 C 54.00 183.75 54.00 185.25 54.00 186.00 C 58.66 185.99 63.33 186.01 68.00 186.00 C 68.00 195.33 68.00 204.66 68.00 214.00 C 56.67 214.00 45.34 214.00 34.00 214.00 C 33.99 204.68 34.00 195.36 34.00 186.04 C 37.01 185.97 40.03 185.97 43.04 185.90 C 42.98 185.44 42.85 184.51 42.79 184.04 C 37.77 184.14 34.17 181.26 31.21 177.67 C 30.98 189.78 31.00 201.88 30.98 213.99 C 23.65 214.01 16.33 214.01 9.00 213.99 C 9.00 198.33 9.00 182.67 9.00 167.01 C 24.67 166.98 40.33 167.02 56.00 167.00 C 56.00 166.25 56.00 164.75 56.00 164.01 C 40.33 163.98 24.67 164.02 9.00 164.00 C 9.00 135.13 8.98 106.27 9.02 77.41 C 15.44 76.97 21.82 76.18 28.13 74.92 C 41.44 72.40 54.75 76.12 67.96 77.43 C 68.04 107.28 67.98 137.14 68.00 167.00 C 74.67 167.00 81.33 167.00 88.00 167.00 C 88.00 166.25 88.00 164.75 88.00 164.00 C 82.33 164.00 76.67 164.00 71.00 164.00 C 71.01 135.09 70.97 106.18 71.03 77.27 C 90.82 73.21 111.19 73.06 130.97 77.29 C 131.03 106.19 130.99 135.09 131.00 164.00 C 122.33 164.00 113.67 164.00 105.00 164.00 C 105.00 164.75 105.00 166.25 105.00 167.00 C 114.66 167.00 124.33 167.00 134.00 167.00 C 134.00 144.40 134.01 121.80 133.99 99.20 C 136.99 98.91 142.98 98.34 145.97 98.05 C 142.80 96.22 139.53 94.59 136.24 92.99 C 135.99 82.33 135.98 71.66 135.99 61.00 Z" />
<path fill="#000000" opacity="1.00" d=" M 114.00 218.90 C 124.36 219.32 134.51 215.24 144.84 217.09 C 156.75 219.39 168.93 219.08 181.00 219.11 C 181.00 224.74 180.99 230.36 181.00 236.00 C 169.00 236.01 157.00 235.99 145.00 236.00 C 145.00 236.75 145.00 238.25 145.00 239.00 C 156.99 239.01 168.99 238.99 180.99 239.00 C 181.01 247.67 181.01 256.33 180.99 265.00 C 169.66 265.00 158.33 265.00 147.01 265.00 C 147.00 260.32 147.00 255.67 147.00 251.00 C 146.25 251.00 144.76 251.00 144.01 251.00 C 144.00 255.65 143.99 260.33 144.00 264.99 C 141.33 264.99 138.67 265.00 136.00 265.01 C 136.00 265.75 136.00 267.24 136.00 267.99 C 151.00 268.03 166.00 267.96 181.00 268.01 C 181.00 285.67 181.00 303.33 181.00 320.99 C 177.00 320.99 173.00 321.00 169.00 321.00 L 169.00 325.99 C 173.00 325.99 177.00 326.00 181.00 326.01 C 181.00 337.33 181.00 348.66 181.00 359.99 C 163.00 360.00 145.00 360.00 127.00 360.00 C 127.00 348.66 127.00 337.33 127.00 326.01 C 129.75 326.00 135.25 326.00 137.99 325.99 L 138.00 321.01 C 133.66 320.99 129.33 321.00 125.00 320.99 C 125.00 297.99 125.00 275.00 125.00 252.00 C 124.25 252.00 122.75 252.00 122.00 252.00 C 121.99 281.26 122.02 310.52 121.99 339.78 C 102.06 342.01 81.91 343.03 62.01 339.85 C 61.99 311.57 62.00 283.29 62.00 255.01 C 76.33 254.95 90.67 255.05 105.00 254.99 C 105.00 250.32 105.00 245.67 105.00 241.00 C 104.25 241.00 102.76 241.00 102.01 241.00 C 102.00 243.75 102.00 249.25 101.99 252.00 C 88.66 251.99 75.34 252.00 62.01 252.00 C 62.01 249.25 62.00 243.75 61.99 241.00 C 61.25 241.00 59.75 241.00 59.01 241.00 C 58.97 267.60 59.05 294.20 58.95 320.81 C 42.52 325.05 25.53 323.86 9.03 320.68 C 8.97 286.79 9.01 252.90 9.00 219.00 C 44.00 218.85 79.01 219.26 114.00 218.90 Z" />
<path fill="#000000" opacity="1.00" d=" M 222.03 219.11 C 229.71 217.54 237.55 215.67 245.41 217.11 C 261.46 219.93 277.80 218.95 294.00 219.00 C 294.00 230.66 294.00 242.33 294.00 254.00 C 286.66 253.99 279.33 254.01 272.00 254.00 C 272.00 254.75 272.00 256.25 272.00 257.00 C 279.33 256.99 286.66 257.00 294.00 257.00 C 294.00 284.62 294.01 312.23 293.99 339.84 C 276.75 341.98 259.23 342.92 242.03 339.95 C 241.97 312.30 242.01 284.65 242.00 257.01 C 244.75 257.00 250.25 257.00 253.00 256.99 C 253.00 256.24 253.00 254.75 253.00 254.00 C 248.32 253.99 243.67 254.01 239.00 254.00 C 239.00 276.33 239.00 298.66 239.00 320.99 C 234.32 320.98 229.67 321.00 225.00 321.00 L 225.00 325.99 C 229.00 325.99 233.00 326.00 237.00 326.01 C 237.00 337.33 237.00 348.67 237.00 360.00 C 220.00 360.00 203.00 360.00 186.00 360.00 C 186.00 348.75 185.99 337.51 185.99 326.27 C 188.99 325.95 191.98 325.61 194.98 325.25 C 192.14 323.41 189.24 321.73 186.31 320.09 C 185.79 300.73 186.02 281.37 186.01 262.02 C 200.14 261.96 214.27 262.13 228.39 261.75 C 226.73 260.39 224.92 259.14 223.32 257.74 C 222.84 255.34 221.90 250.52 221.43 248.12 C 220.85 248.08 219.68 248.01 219.10 247.97 C 219.07 250.72 219.01 256.24 218.98 259.00 C 207.98 259.00 196.99 259.00 186.00 259.00 C 186.00 245.66 186.00 232.33 186.00 219.00 C 197.00 219.00 208.00 219.00 219.00 219.00 C 218.99 224.66 219.00 230.33 219.00 236.00 C 219.75 236.00 221.24 236.00 221.99 236.00 C 222.00 230.36 222.01 224.74 222.03 219.11 Z" />
<path fill="#000000" opacity="1.00" d=" M 297.00 219.19 C 311.35 219.35 325.64 217.66 339.97 217.57 C 349.63 218.39 359.29 219.06 368.99 219.17 C 368.99 224.77 368.99 230.39 369.00 236.00 C 369.75 236.00 371.25 236.00 372.00 236.00 C 371.99 230.33 372.00 224.66 372.00 219.00 C 382.67 219.00 393.33 219.00 404.00 219.00 C 404.00 232.33 404.00 245.67 404.00 259.00 C 393.33 259.00 382.67 258.99 372.01 259.00 C 372.00 256.25 371.99 250.75 371.99 248.00 C 371.25 248.00 369.78 248.02 369.05 248.02 C 368.98 250.64 368.85 255.87 368.79 258.48 C 366.42 259.16 364.43 260.09 362.22 260.95 C 376.10 262.29 390.06 262.06 403.99 262.04 C 404.01 281.60 404.00 301.16 404.00 320.73 C 401.00 321.04 398.01 321.38 395.02 321.75 C 397.84 323.57 400.76 325.26 403.70 326.92 C 404.01 337.94 404.00 348.97 404.02 360.00 C 387.34 360.00 370.67 360.00 354.00 360.00 C 354.00 348.66 354.00 337.33 354.00 326.00 C 357.75 326.00 365.25 326.00 369.00 325.99 L 369.00 321.01 C 363.32 320.99 357.66 320.99 352.00 321.00 C 352.00 298.66 352.00 276.33 352.00 254.00 C 346.66 254.00 341.33 254.00 336.00 254.00 C 336.00 254.75 336.00 256.24 336.00 256.99 C 340.32 256.99 344.67 257.00 349.00 257.01 C 348.99 284.61 349.02 312.22 348.99 339.83 C 331.77 342.44 314.22 342.69 297.02 339.84 C 296.98 312.22 297.00 284.61 297.00 257.00 C 303.66 257.00 310.33 257.00 317.00 257.00 C 317.00 256.25 317.00 254.75 317.00 254.00 C 310.33 254.00 303.66 253.99 297.00 253.99 C 297.00 242.39 297.00 230.79 297.00 219.19 Z" />
<path fill="#000000" opacity="1.00" d=" M 447.01 216.77 C 472.98 218.46 498.95 219.75 525.00 218.99 C 524.99 230.66 524.99 242.33 525.00 254.00 C 514.99 253.99 505.00 254.00 495.00 254.00 C 495.00 254.75 495.00 256.25 495.00 257.00 C 504.99 256.99 514.99 257.00 525.00 257.00 C 525.00 284.55 525.01 312.09 524.99 339.63 C 510.92 340.04 497.12 344.06 482.99 342.92 C 475.24 342.62 467.66 340.94 460.03 339.74 C 459.97 312.16 460.01 284.58 460.00 257.00 C 465.66 257.00 471.33 257.00 477.00 257.00 C 477.00 256.25 477.00 254.75 477.00 254.00 C 470.33 253.99 463.66 253.99 457.00 254.00 C 457.00 276.28 456.99 298.56 457.00 320.85 C 452.73 321.05 448.47 321.30 444.21 321.59 C 446.65 323.11 451.52 326.16 453.96 327.68 C 455.78 338.34 454.94 349.23 455.02 360.00 C 439.68 360.00 424.34 360.00 409.00 360.00 C 409.00 348.67 408.99 337.34 409.00 326.01 C 411.94 325.95 415.02 326.02 418.00 325.99 L 418.00 321.02 C 414.93 320.96 412.03 321.02 409.01 320.99 C 408.99 301.33 408.99 281.67 409.01 262.01 C 421.67 261.96 434.33 262.03 447.00 261.99 C 446.98 257.32 447.00 252.67 447.00 248.00 C 446.25 248.00 444.76 248.00 444.01 248.00 C 444.00 250.75 444.00 256.25 443.99 259.00 C 432.32 259.00 420.66 259.00 409.00 259.00 C 409.00 245.66 409.00 232.33 409.00 219.00 C 420.66 219.00 432.32 219.00 443.99 219.00 C 443.99 224.66 443.99 230.33 444.00 236.00 C 444.75 236.00 446.25 236.00 447.00 236.00 C 446.99 229.58 446.99 223.18 447.01 216.77 Z" />
</g>
</svg>
