<?xml version="1.0" encoding="UTF-8" ?>
<!DOCTYPE svg PUBLIC "-//W3C//DTD SVG 1.1//EN" "http://www.w3.org/Graphics/SVG/1.1/DTD/svg11.dtd">
<svg width="490pt" height="229pt" viewBox="0 0 490 229" version="1.1" xmlns="http://www.w3.org/2000/svg">
<g id="#000000ff">
<path fill="#000000" opacity="1.00" d=" M 117.00 9.00 C 125.33 9.00 133.66 9.00 142.00 9.00 C 142.00 13.33 142.00 17.66 142.00 22.00 C 140.66 22.00 139.33 22.00 138.00 22.00 C 138.00 24.00 138.00 26.00 138.00 28.00 C 141.33 28.00 144.66 28.00 148.00 28.00 C 148.00 23.34 148.00 18.67 148.00 14.01 C 148.75 14.01 150.24 14.00 150.99 13.99 C 151.00 13.24 151.01 11.75 151.01 11.00 C 157.67 11.00 164.33 11.00 170.99 11.00 C 170.99 11.75 171.01 13.25 171.01 14.00 C 172.67 14.00 174.33 14.00 176.00 14.00 C 176.00 37.00 176.00 60.00 176.00 83.00 C 172.66 83.00 169.33 83.00 166.00 83.00 C 166.00 83.50 166.00 84.50 166.00 85.00 C 169.33 85.00 172.66 85.00 176.00 85.00 C 176.00 90.67 176.00 96.33 176.00 102.00 C 172.00 102.00 168.01 102.00 164.01 102.00 C 164.01 102.75 163.99 104.25 163.98 105.00 C 159.66 105.00 155.34 105.00 151.01 105.00 C 151.01 104.25 150.99 102.74 150.99 101.99 C 148.13 101.97 145.27 102.15 142.42 101.92 C 139.97 100.46 141.31 97.31 140.98 95.00 C 140.49 95.00 139.50 95.00 139.01 95.00 C 139.00 97.33 139.00 99.66 139.00 102.00 C 131.66 102.00 124.33 102.00 117.00 102.00 C 117.00 92.67 117.00 83.33 117.00 74.00 C 124.33 74.00 131.67 74.00 139.00 74.00 C 139.01 78.10 138.97 82.20 139.04 86.30 C 139.67 86.00 140.92 85.40 141.55 85.09 C 144.03 84.99 146.51 84.98 149.00 84.99 C 149.00 84.50 149.00 83.50 149.00 83.01 C 146.33 83.00 143.67 83.00 141.00 83.00 C 141.00 79.33 141.00 75.67 141.00 72.00 C 133.00 72.00 125.00 72.00 117.00 72.00 C 117.00 58.33 117.00 44.67 117.00 31.00 C 118.66 31.00 120.32 31.00 121.98 31.00 C 121.99 30.25 122.01 28.75 122.02 28.00 C 124.34 28.00 126.67 28.00 129.00 28.00 C 129.00 27.50 129.00 26.51 129.00 26.01 C 126.85 26.02 124.71 26.01 122.56 25.89 C 121.00 24.54 118.86 25.11 117.00 24.94 C 117.00 19.63 117.00 14.32 117.00 9.00 Z" />
<path fill="#000000" opacity="1.00" d=" M 23.03 11.00 C 30.34 11.00 37.66 11.00 44.97 11.00 C 44.98 11.75 45.02 13.25 45.03 14.00 C 47.35 14.00 49.67 14.00 52.00 14.00 C 52.01 23.34 51.99 32.67 52.01 42.00 C 52.50 42.00 53.50 42.00 54.00 42.00 C 54.01 32.67 53.99 23.34 54.00 14.00 C 62.66 14.00 71.31 14.00 79.97 14.00 C 79.99 13.25 80.02 11.75 80.03 11.00 C 87.34 11.00 94.66 11.00 101.97 11.00 C 101.98 11.75 102.02 13.25 102.03 14.00 C 105.02 14.00 108.01 14.00 111.00 14.00 C 111.00 30.33 111.00 46.67 111.00 63.00 C 100.33 63.01 89.67 62.99 79.00 63.01 C 79.00 63.50 79.00 64.50 79.00 64.99 C 81.66 65.00 84.33 65.00 87.00 65.00 C 87.00 68.67 87.00 72.33 87.00 76.00 C 87.50 76.00 88.50 76.00 88.99 76.00 C 89.00 72.34 89.00 68.67 89.00 65.00 C 96.33 65.00 103.67 65.00 111.00 65.00 C 111.00 72.67 111.00 80.33 111.00 88.00 C 103.68 88.00 96.35 88.00 89.03 88.00 C 89.02 87.25 88.98 85.75 88.97 85.00 C 88.48 85.00 87.50 85.00 87.01 85.00 C 87.00 86.66 87.00 88.33 87.00 90.00 C 95.00 90.01 103.00 89.99 111.00 90.00 C 111.00 94.00 111.00 98.00 111.00 102.00 C 103.68 102.00 96.35 102.00 89.03 102.00 C 89.02 101.25 88.98 99.75 88.97 99.00 C 88.48 99.00 87.51 99.00 87.02 99.00 C 87.02 99.73 87.00 101.18 87.00 101.91 C 86.50 101.95 85.50 102.05 85.00 102.10 C 85.00 103.39 84.99 104.70 84.99 106.00 C 80.67 106.00 76.34 106.00 72.01 106.00 C 72.00 104.67 71.99 103.33 71.99 102.00 C 69.32 102.00 66.66 102.00 64.00 102.00 C 64.00 96.00 64.01 90.00 63.99 84.00 C 63.50 84.00 62.50 84.00 62.01 84.00 C 61.99 89.67 62.00 95.33 62.00 101.00 C 43.33 101.00 24.67 101.00 6.00 101.00 C 6.00 98.66 6.00 96.33 6.00 94.00 C 4.00 94.00 2.00 94.00 0.00 94.00 L 0.00 72.00 C 2.00 72.00 4.00 72.00 6.00 72.00 C 6.00 69.33 6.00 66.67 6.00 64.00 C 24.67 64.00 43.33 64.00 61.99 64.00 C 62.00 66.33 62.00 68.67 62.01 71.00 C 62.50 71.00 63.48 71.00 63.97 71.00 C 64.00 68.87 64.02 66.74 64.07 64.61 C 64.38 63.96 65.00 62.67 65.31 62.02 C 61.54 62.00 57.77 62.00 54.00 62.00 C 54.00 59.33 54.00 56.66 53.99 54.00 C 53.50 54.00 52.50 54.00 52.01 54.00 C 52.00 56.67 52.00 59.33 52.00 62.00 C 36.33 62.00 20.67 62.00 5.00 62.00 C 5.00 46.00 5.00 30.00 5.00 14.00 C 10.99 14.00 16.98 14.00 22.97 14.00 C 22.98 13.25 23.02 11.75 23.03 11.00 Z" />
<path fill="#000000" opacity="1.00" d=" M 389.01 11.00 C 395.67 11.00 402.33 11.00 409.00 11.00 C 408.99 12.33 409.00 13.67 409.01 15.00 C 417.67 15.00 426.33 15.00 435.00 15.00 C 435.01 23.33 434.99 31.67 435.00 40.00 C 435.50 40.00 436.50 40.00 437.00 40.00 C 437.01 31.67 436.99 23.33 437.00 15.00 C 439.66 15.00 442.33 15.00 444.99 15.00 C 444.99 13.67 445.00 12.33 445.01 11.00 C 452.00 11.00 459.00 11.00 465.99 11.00 C 465.99 12.33 466.00 13.67 466.01 15.00 C 471.67 15.00 477.33 15.00 483.00 15.00 C 483.00 30.00 483.00 45.00 483.00 60.00 C 467.66 60.00 452.33 60.00 437.00 60.00 C 437.00 57.00 437.00 54.00 437.00 51.00 C 436.50 51.00 435.50 51.00 435.00 51.00 C 435.00 54.00 435.00 57.00 435.00 60.00 C 431.27 60.00 427.54 59.99 423.82 60.01 C 423.87 61.30 424.23 62.48 424.90 63.56 C 425.01 65.70 425.01 67.85 425.01 70.00 C 425.76 70.00 427.25 70.00 428.00 70.00 C 428.00 67.33 428.00 64.67 428.00 62.00 C 446.67 62.00 465.33 62.00 484.00 62.00 C 484.00 64.67 484.00 67.33 484.00 69.99 C 485.33 70.00 486.66 70.00 488.00 70.01 C 488.00 77.00 488.00 84.00 488.00 90.99 C 486.66 91.00 485.33 91.00 484.00 91.01 C 484.00 94.00 484.00 97.00 484.00 100.00 C 465.33 100.00 446.67 100.00 428.00 100.00 C 427.99 94.00 428.00 88.00 428.00 82.00 C 427.25 82.00 425.75 82.00 425.00 82.00 C 424.99 88.00 425.00 94.00 425.00 100.00 C 422.00 100.00 419.01 100.00 416.02 100.00 C 416.01 100.75 415.99 102.25 415.98 103.00 C 411.99 103.00 408.00 103.00 404.00 103.00 C 404.00 102.26 404.00 100.78 404.00 100.05 C 403.50 100.02 402.50 99.98 402.00 99.95 C 401.99 98.63 401.99 97.32 402.00 96.00 C 401.25 96.00 399.76 96.00 399.01 96.00 C 399.00 97.33 398.99 98.67 398.99 100.00 C 392.33 100.00 385.66 100.00 379.00 100.00 C 379.00 95.66 379.00 91.33 379.00 87.00 C 386.67 87.00 394.33 87.00 402.00 87.00 C 401.99 85.33 401.99 83.67 402.00 82.00 C 401.25 82.00 399.76 82.00 399.02 82.00 C 399.01 82.75 398.99 84.25 398.98 85.00 C 392.32 85.00 385.66 85.00 379.00 85.00 C 379.00 77.67 379.00 70.33 379.00 63.00 C 385.67 63.00 392.33 63.00 399.00 63.00 C 399.00 66.33 399.00 69.67 399.00 73.00 C 399.75 73.00 401.25 73.00 402.00 73.00 C 402.00 69.67 402.00 66.33 402.00 63.00 C 405.67 63.00 409.33 63.00 413.00 63.00 C 413.00 62.25 413.00 60.75 413.00 60.00 C 401.67 59.99 390.33 60.01 379.00 60.00 C 379.00 45.00 379.00 30.00 379.00 15.00 C 382.33 15.00 385.66 15.00 388.99 15.00 C 388.99 13.67 389.00 12.33 389.01 11.00 Z" />
<path fill="#000000" opacity="1.00" d=" M 429.00 107.00 C 447.33 107.00 465.67 107.00 484.00 107.00 C 484.00 115.67 484.00 124.33 484.00 133.00 C 474.33 133.00 464.67 133.00 455.00 133.00 C 455.00 128.33 455.00 123.67 455.00 119.00 C 454.50 119.00 453.50 119.00 453.00 119.00 C 452.99 123.66 453.00 128.33 453.00 133.00 C 450.99 133.00 449.00 133.00 447.00 133.00 C 447.00 141.34 446.99 149.67 447.00 158.00 C 447.50 158.00 448.50 158.00 448.99 158.00 C 449.01 152.00 448.99 146.00 449.00 140.00 C 460.67 140.00 472.33 140.00 484.00 140.00 C 484.00 148.00 483.99 156.00 484.00 164.00 C 485.33 164.00 486.66 164.00 488.00 164.01 C 488.00 170.33 488.00 176.66 488.00 182.99 C 486.66 183.00 485.33 183.00 484.01 183.01 C 484.00 184.33 483.99 185.67 483.99 187.00 C 470.33 187.00 456.67 187.00 443.00 187.00 C 442.99 181.33 443.01 175.67 443.00 170.00 C 442.50 170.00 441.50 170.00 441.00 170.00 C 440.95 175.48 441.11 180.97 440.91 186.46 C 440.60 187.08 440.00 188.33 439.70 188.96 C 454.46 189.06 469.23 188.97 484.00 189.00 C 484.00 200.33 484.00 211.66 484.00 223.00 C 477.33 223.00 470.67 223.00 464.01 223.00 C 464.00 224.33 463.99 225.66 463.99 227.00 C 457.33 227.00 450.67 227.00 444.00 227.00 C 444.00 225.66 443.99 224.33 444.00 223.00 C 438.00 222.99 432.00 223.00 426.00 223.00 C 426.00 195.33 426.00 167.67 426.00 140.00 C 429.00 140.00 432.00 140.00 435.00 140.00 C 435.00 137.67 435.00 135.33 435.00 133.00 C 433.00 133.00 431.00 133.00 429.00 133.00 C 429.00 124.33 429.00 115.67 429.00 107.00 Z" />
<path fill="#000000" opacity="1.00" d=" M 283.01 136.00 C 287.00 136.00 290.99 136.00 294.99 136.00 C 294.99 137.33 295.00 138.67 295.01 140.00 C 299.34 140.00 303.67 140.00 308.00 140.00 C 308.00 145.33 308.00 150.67 308.00 156.00 C 303.66 156.00 299.33 156.00 295.00 156.01 C 295.00 156.50 295.00 157.50 295.00 158.00 C 299.33 158.00 303.66 158.00 308.00 158.00 C 308.00 179.67 308.00 201.33 308.00 223.00 C 305.66 223.00 303.33 223.00 301.00 223.00 C 301.00 225.00 301.00 227.00 301.00 229.00 L 281.00 229.00 C 281.00 227.00 281.00 225.01 281.00 223.01 C 279.66 223.00 278.33 222.99 277.00 222.99 C 277.00 218.32 277.00 213.66 277.00 209.00 C 274.29 209.00 271.58 209.00 268.88 209.00 C 269.48 215.33 270.50 221.60 269.98 228.00 C 261.66 228.00 253.33 228.00 245.00 228.00 C 245.00 223.67 245.00 219.33 245.00 215.00 C 247.33 215.00 249.66 215.00 252.00 215.00 C 252.00 213.00 252.00 211.00 252.00 209.01 C 250.33 209.00 248.67 209.00 247.00 208.99 C 247.00 195.66 247.00 182.33 247.00 169.00 C 255.00 169.00 263.00 169.00 271.00 169.00 C 271.00 165.33 271.00 161.67 271.00 158.00 C 273.67 158.00 276.33 158.00 279.00 157.99 C 279.00 157.50 279.00 156.50 279.00 156.00 C 276.36 156.00 273.73 156.00 271.10 156.00 C 271.05 155.50 270.95 154.50 270.90 154.00 C 270.43 154.00 269.48 154.00 269.00 154.00 C 269.00 158.33 269.00 162.66 269.00 167.00 C 261.67 167.00 254.33 167.00 247.00 167.00 C 247.00 158.00 247.00 149.00 247.00 140.00 C 254.33 140.00 261.66 140.00 268.99 140.00 C 269.00 142.00 269.00 144.00 269.01 146.00 C 269.51 146.00 270.50 146.00 270.99 146.00 C 270.99 144.00 271.00 142.00 271.01 140.00 C 275.00 140.00 278.99 140.00 282.99 140.00 C 282.99 138.66 283.00 137.33 283.01 136.00 Z" />
<path fill="#000000" opacity="1.00" d=" M 151.03 137.00 C 155.01 137.00 158.99 137.00 162.97 137.00 C 162.98 137.75 163.02 139.25 163.03 140.00 C 168.02 140.00 173.01 140.00 178.00 140.00 C 178.00 145.33 178.00 150.67 178.00 156.00 C 173.66 156.00 169.33 156.00 165.00 156.01 C 165.00 156.50 165.00 157.50 165.00 158.00 C 169.33 158.00 173.66 158.00 178.00 158.00 C 178.00 179.67 178.00 201.33 178.00 223.00 C 175.66 223.00 173.33 223.00 171.00 223.00 C 171.00 225.00 171.00 227.00 171.00 229.00 L 150.00 229.00 C 150.00 227.01 150.00 225.02 150.00 223.03 C 149.25 223.02 147.75 222.98 147.00 222.97 C 147.00 217.98 147.00 212.99 147.00 208.00 C 144.00 208.00 141.00 208.00 138.00 208.00 C 138.00 210.32 138.00 212.64 138.00 214.97 C 138.75 214.98 140.25 215.02 141.00 215.03 C 141.00 219.35 141.00 223.68 141.00 228.00 C 133.66 228.00 126.33 228.00 119.00 228.00 C 119.00 223.66 119.00 219.33 119.00 215.00 C 122.33 215.00 125.67 215.00 129.00 214.99 C 129.00 214.50 129.00 213.50 129.00 213.01 C 126.67 213.00 124.34 213.00 122.01 212.99 C 122.00 211.33 122.00 209.67 122.00 208.01 C 120.66 208.00 119.33 207.99 118.00 207.99 C 118.00 194.99 118.00 182.00 118.00 169.00 C 125.33 168.99 132.66 169.00 140.00 169.00 C 140.00 165.33 140.00 161.67 140.00 158.00 C 142.67 158.00 145.33 158.00 148.00 157.99 C 148.00 157.50 148.00 156.50 148.00 156.01 C 145.33 156.00 142.67 156.00 140.00 156.00 C 140.00 150.66 140.00 145.33 140.00 140.00 C 143.66 140.00 147.31 140.00 150.97 140.00 C 150.98 139.25 151.02 137.75 151.03 137.00 Z" />
<path fill="#000000" opacity="1.00" d=" M 193.03 137.00 C 197.34 137.00 201.65 137.00 205.97 137.00 C 205.98 137.75 206.02 139.25 206.03 140.00 C 210.02 140.00 214.00 140.00 217.99 140.00 C 218.00 142.00 218.00 144.00 218.01 146.00 C 218.50 146.00 219.50 146.00 219.99 146.00 C 219.99 144.00 220.00 142.00 220.01 140.00 C 227.00 140.00 234.00 140.00 241.00 140.00 C 241.00 149.00 241.00 158.00 241.00 167.00 C 234.00 167.00 227.00 167.00 220.00 167.00 C 220.00 162.97 219.99 158.95 220.01 154.93 C 216.49 156.29 212.69 156.08 209.00 156.00 C 209.00 156.50 209.00 157.50 209.00 157.99 C 212.00 158.00 215.00 158.00 218.00 158.00 C 218.00 161.67 218.00 165.33 218.00 169.00 C 225.67 169.01 233.33 168.99 241.00 169.00 C 241.00 182.33 241.00 195.66 241.00 208.99 C 239.33 208.99 237.66 209.00 236.00 209.01 C 236.00 211.00 236.00 213.00 236.00 214.99 C 238.33 215.00 240.66 215.00 243.00 215.01 C 243.00 219.34 243.00 223.67 243.00 228.00 C 234.33 228.00 225.67 228.00 217.00 228.00 C 217.00 223.70 217.00 219.39 217.00 215.10 C 217.50 215.05 218.50 214.95 219.01 214.90 C 219.00 212.93 219.00 210.97 219.00 209.00 C 216.00 209.00 213.00 209.00 210.00 209.00 C 210.00 213.32 210.00 217.64 210.00 221.97 C 209.25 221.98 207.75 222.02 207.00 222.03 C 207.00 224.35 207.00 226.67 207.00 229.00 L 186.00 229.00 C 186.00 226.67 186.00 224.33 186.00 222.01 C 184.00 222.00 182.00 222.00 180.00 221.99 C 180.00 200.66 180.00 179.33 180.00 158.00 C 184.33 158.00 188.67 158.00 193.00 157.99 C 193.00 157.50 193.00 156.50 193.00 156.00 C 188.67 156.00 184.33 156.00 180.00 156.00 C 180.00 150.67 180.00 145.33 180.00 140.00 C 184.32 140.00 188.64 140.00 192.97 140.00 C 192.98 139.25 193.02 137.75 193.03 137.00 Z" />
<path fill="#000000" opacity="1.00" d=" M 404.01 137.00 C 408.00 137.00 411.99 137.00 415.99 137.00 C 415.99 137.75 416.01 139.25 416.01 140.00 C 418.67 140.00 421.33 140.00 424.00 140.00 C 424.00 145.33 424.00 150.66 424.00 156.00 C 421.33 156.00 418.66 156.00 416.00 156.01 C 416.00 156.50 416.00 157.50 416.00 158.00 C 418.66 158.00 421.33 158.00 424.00 158.00 C 424.00 175.00 424.00 192.00 424.00 209.00 C 418.66 209.00 413.33 209.00 408.00 209.00 C 408.00 211.00 408.00 213.00 408.00 215.00 C 412.00 215.00 416.00 215.00 420.00 215.00 C 420.00 219.33 420.00 223.67 420.00 228.00 C 404.33 228.00 388.67 228.00 373.00 228.00 C 373.00 224.00 373.00 220.00 373.00 216.00 C 377.66 216.00 382.33 216.00 387.00 216.00 C 387.00 213.66 387.00 211.33 387.00 209.00 C 383.66 209.00 380.33 209.00 377.00 209.00 C 377.00 195.67 377.00 182.33 377.00 169.00 C 385.00 168.99 393.00 169.00 401.00 169.00 C 401.00 165.34 401.00 161.68 401.00 158.02 C 401.75 158.01 403.25 157.99 404.00 157.98 C 404.00 157.50 404.00 156.54 404.00 156.06 C 403.38 156.01 402.15 155.92 401.54 155.87 C 400.91 155.57 399.67 154.99 399.04 154.70 C 398.96 158.80 399.01 162.90 399.00 167.00 C 391.67 167.00 384.33 167.00 377.00 167.00 C 377.00 158.00 377.00 149.00 377.00 140.00 C 384.33 140.00 391.66 140.00 399.00 140.00 C 398.99 142.00 399.00 144.00 399.01 146.00 C 399.50 146.00 400.50 146.00 401.00 146.00 C 400.99 144.00 401.00 142.01 401.00 140.01 C 401.75 140.01 403.24 140.00 403.99 139.99 C 404.00 139.24 404.01 137.75 404.01 137.00 Z" />
<path fill="#000000" opacity="1.00" d=" M 42.00 138.02 C 48.75 137.24 55.29 139.22 62.00 139.03 C 62.00 167.02 62.00 195.01 62.00 223.00 C 56.00 223.00 50.00 222.99 44.00 223.00 C 44.00 225.00 44.00 227.00 44.00 229.00 L 21.00 229.00 C 21.00 227.00 21.00 225.00 21.00 223.00 C 16.00 223.00 11.00 223.00 6.00 223.00 C 6.00 211.33 6.00 199.67 6.00 188.00 C 20.11 187.98 34.21 188.03 48.31 187.98 C 48.00 187.33 47.38 186.03 47.06 185.38 C 46.94 179.59 47.03 173.79 46.99 168.00 C 46.50 168.00 45.50 168.00 45.01 168.00 C 44.99 174.00 45.01 180.00 45.00 186.00 C 32.03 186.00 19.06 186.00 6.10 186.00 C 6.05 185.50 5.95 184.50 5.90 184.00 C 3.94 184.00 1.97 184.00 0.00 184.00 L 0.00 162.00 C 2.00 162.00 4.00 162.00 6.00 162.00 C 6.01 154.66 5.99 147.33 6.00 140.00 C 17.33 140.00 28.67 140.00 40.00 140.00 C 40.00 145.67 39.99 151.33 40.00 157.00 C 40.50 157.00 41.50 157.00 41.99 157.00 C 42.01 150.67 41.99 144.35 42.00 138.02 Z" />
<path fill="#000000" opacity="1.00" d=" M 73.05 138.00 C 77.02 138.00 80.99 138.00 84.96 138.00 C 84.98 138.49 85.01 139.48 85.03 139.97 C 85.52 139.99 86.51 140.02 87.00 140.04 C 87.00 141.69 87.00 143.35 87.01 145.00 C 87.50 145.00 88.50 145.00 88.99 145.00 C 89.00 143.33 89.00 141.67 89.00 140.00 C 96.34 140.00 103.67 140.00 111.00 140.00 C 111.00 149.00 111.00 158.00 111.00 167.00 C 103.67 167.00 96.33 167.00 89.00 167.00 C 89.00 162.93 89.01 158.86 88.99 154.79 C 87.65 155.25 86.33 155.76 85.00 156.22 C 85.00 156.66 85.00 157.52 84.99 157.95 C 85.50 157.97 86.50 158.02 87.00 158.05 C 87.00 161.70 87.00 165.35 87.00 169.00 C 95.00 169.00 103.00 169.00 111.00 169.00 C 111.00 182.33 111.00 195.66 111.00 209.00 C 107.68 209.00 104.37 209.00 101.05 209.00 C 101.02 209.50 100.97 210.50 100.95 211.00 C 96.63 211.00 92.32 211.00 88.00 211.00 C 88.00 211.50 88.00 212.50 88.00 212.99 C 92.32 213.00 96.63 213.00 100.95 213.00 C 100.98 213.50 101.02 214.50 101.05 215.00 C 106.36 215.00 111.68 215.00 117.00 215.00 C 117.00 219.33 117.00 223.66 117.00 228.00 C 101.00 228.00 85.00 228.00 69.00 228.00 C 69.00 223.66 69.00 219.33 69.00 215.00 C 72.33 215.00 75.67 215.00 79.00 215.00 C 79.00 213.00 79.00 211.00 79.00 209.00 C 74.00 209.00 69.00 209.00 64.00 209.00 C 64.00 192.00 64.00 175.00 64.00 158.00 C 66.67 158.00 69.33 158.00 72.00 158.00 C 72.00 157.50 72.00 156.50 72.00 156.01 C 69.33 156.00 66.67 156.00 64.00 156.00 C 64.00 150.67 64.00 145.33 64.00 140.00 C 66.98 140.00 69.97 140.00 72.95 140.00 C 72.98 139.50 73.02 138.50 73.05 138.00 Z" />
<path fill="#000000" opacity="1.00" d=" M 325.05 138.00 C 329.01 138.00 332.98 138.00 336.95 138.00 C 336.98 138.50 337.02 139.50 337.05 140.00 C 340.69 140.00 344.34 140.00 347.99 140.00 C 347.99 142.00 348.00 144.00 348.01 146.00 C 348.50 146.00 349.50 146.00 350.00 146.00 C 349.99 144.00 350.00 142.00 350.00 140.00 C 356.67 140.00 363.33 140.00 370.00 140.00 C 370.00 149.00 370.00 158.00 370.00 167.00 C 363.33 167.00 356.67 167.00 350.00 167.00 C 349.99 162.89 350.03 158.79 349.96 154.69 C 349.33 155.00 348.08 155.60 347.46 155.91 C 344.64 156.03 341.82 156.02 339.00 156.00 C 339.00 156.50 339.00 157.50 339.00 157.99 C 342.00 158.00 345.00 158.00 348.00 158.00 C 348.00 161.67 348.00 165.33 348.00 169.00 C 355.33 169.01 362.67 168.99 370.00 169.00 C 370.00 182.33 370.00 195.66 370.00 209.00 C 368.66 209.00 367.33 209.00 366.00 209.00 C 366.00 211.33 366.00 213.66 366.00 216.00 C 367.66 216.00 369.33 216.00 371.00 216.00 C 371.00 220.00 371.00 224.00 371.00 228.00 C 363.00 228.00 355.00 228.00 347.00 228.00 C 347.00 224.01 347.00 220.03 347.00 216.05 C 347.50 216.03 348.50 215.98 349.00 215.95 C 349.00 213.63 349.00 211.31 349.00 209.00 C 346.33 209.00 343.66 209.00 341.00 209.00 C 341.00 213.66 341.00 218.32 341.00 222.99 C 340.25 222.99 338.75 223.01 338.00 223.01 C 338.00 224.34 337.99 225.67 337.99 227.00 C 331.00 227.00 324.00 227.00 317.01 227.00 C 317.00 225.66 316.99 224.33 316.99 223.00 C 314.66 223.00 312.33 223.00 310.00 223.00 C 310.00 201.33 310.00 179.67 310.00 158.00 C 314.67 158.00 319.33 158.00 324.00 158.00 C 324.00 157.50 324.00 156.50 324.00 156.01 C 319.33 155.99 314.67 156.00 310.00 156.00 C 310.00 150.67 310.00 145.33 310.00 140.00 C 314.98 140.00 319.97 140.00 324.95 140.00 C 324.98 139.50 325.02 138.50 325.05 138.00 Z" />
<path fill="#000000" opacity="1.00" d=" M 117.00 140.00 C 124.00 140.00 131.00 140.00 138.00 140.00 C 138.00 149.00 138.00 158.00 138.00 167.00 C 131.00 167.00 124.00 167.00 117.00 167.00 C 117.00 158.00 117.00 149.00 117.00 140.00 Z" />
</g>
</svg>
