<?xml version="1.0" encoding="UTF-8" ?>
<!DOCTYPE svg PUBLIC "-//W3C//DTD SVG 1.1//EN" "http://www.w3.org/Graphics/SVG/1.1/DTD/svg11.dtd">
<svg width="534pt" height="413pt" viewBox="0 0 534 413" version="1.1" xmlns="http://www.w3.org/2000/svg">
<g id="#000000ff">
<path fill="#000000" opacity="1.00" d=" M 117.01 17.00 C 126.00 17.00 135.00 17.00 144.00 17.00 C 144.00 18.33 144.00 19.67 144.00 21.00 C 147.33 20.99 150.67 21.01 154.00 21.00 C 154.00 46.33 154.00 71.67 154.00 97.00 C 160.67 97.00 167.33 97.00 174.00 97.00 C 174.00 96.25 174.00 94.75 174.00 94.00 C 169.00 94.00 164.00 94.00 159.00 94.00 C 159.00 69.67 159.00 45.33 159.00 21.00 C 162.33 21.01 165.66 20.99 168.99 21.00 C 169.00 19.67 169.00 18.33 169.01 17.00 C 179.34 17.00 189.66 17.00 199.99 17.00 C 199.99 18.33 200.00 19.67 200.01 21.00 C 204.00 21.00 208.00 21.00 212.00 21.00 C 212.00 45.33 212.00 69.67 212.00 94.00 C 203.33 94.00 194.67 94.00 186.00 94.00 C 186.00 94.75 186.00 96.25 186.00 97.00 C 194.67 97.01 203.33 97.00 212.00 97.00 C 212.00 129.33 212.00 161.67 212.00 194.00 C 208.67 193.99 205.34 194.00 202.01 194.00 C 202.01 194.75 201.99 196.25 201.99 197.00 C 197.33 197.00 192.67 197.00 188.01 197.00 C 188.01 196.25 187.99 194.75 187.99 194.00 C 184.66 194.00 181.33 193.99 178.00 194.00 C 178.00 174.00 178.00 154.00 178.00 134.00 C 177.25 134.00 175.75 134.00 175.00 134.00 C 174.99 143.67 175.00 153.33 175.00 163.00 C 169.67 163.00 164.33 163.00 159.00 163.00 C 159.00 153.67 159.00 144.33 159.00 135.00 C 157.33 135.00 155.66 135.00 154.00 135.00 C 154.00 144.33 154.00 153.66 154.00 163.00 C 145.33 163.00 136.67 163.00 128.00 163.00 C 128.00 154.33 128.00 145.67 128.00 137.00 C 130.67 137.00 133.33 137.00 136.00 137.00 C 136.00 136.25 136.00 134.75 136.00 134.00 C 132.33 134.00 128.67 134.00 125.00 134.00 C 125.00 143.67 125.00 153.33 125.00 163.00 C 108.00 163.00 91.00 163.00 74.00 163.00 C 74.00 160.66 74.00 158.33 74.00 156.00 C 72.33 156.00 70.67 156.00 69.00 156.00 C 69.00 158.33 69.00 160.66 69.00 163.00 C 52.68 163.00 36.36 163.00 20.05 163.00 C 20.02 163.50 19.98 164.50 19.95 165.00 C 14.69 165.07 9.43 164.94 4.18 164.76 C 3.61 145.03 5.31 125.23 9.50 105.94 C 12.94 95.17 14.59 83.75 19.39 73.47 C 24.32 72.33 29.81 73.33 34.95 73.00 C 34.98 73.50 35.02 74.50 35.05 75.00 C 42.03 75.00 49.01 75.00 55.99 75.00 C 55.99 75.75 56.01 77.25 56.01 78.00 C 57.67 78.00 59.34 78.00 61.00 78.00 C 61.00 73.33 61.00 68.67 61.00 64.00 C 85.00 64.00 109.00 64.00 133.00 64.00 C 133.00 72.67 132.99 81.33 133.00 90.00 C 133.75 90.00 135.25 90.00 136.00 90.00 C 136.00 80.33 136.00 70.67 136.00 61.00 C 122.33 61.00 108.67 61.00 95.00 61.00 C 95.00 47.67 95.00 34.33 95.00 21.00 C 102.33 21.00 109.66 21.00 116.99 21.00 C 117.00 19.67 117.00 18.33 117.01 17.00 M 133.00 106.00 C 133.00 110.00 133.00 114.00 133.00 118.00 C 109.00 118.00 85.00 118.00 61.00 118.00 C 61.00 115.00 60.99 112.00 61.00 109.00 C 59.33 109.00 57.67 109.00 56.00 109.00 C 56.00 113.67 56.00 118.33 56.00 123.00 C 60.33 123.00 64.67 123.00 69.00 123.00 C 68.99 126.00 69.00 129.00 69.00 132.00 C 70.67 131.99 72.33 132.00 74.00 132.00 C 73.99 128.33 74.00 124.67 74.00 121.00 C 94.67 121.00 115.33 121.00 136.00 121.00 C 136.00 116.00 136.00 111.00 136.00 106.00 C 135.25 106.00 133.75 106.00 133.00 106.00 Z" />
<path fill="#000000" opacity="1.00" d=" M 420.01 77.00 C 430.34 77.00 440.66 77.00 451.00 77.00 C 450.99 78.33 451.00 79.67 451.00 81.00 C 455.33 81.00 459.66 81.00 464.00 81.00 C 464.00 108.00 463.99 135.00 464.00 162.00 C 464.75 162.00 466.25 162.00 467.00 162.00 C 467.01 135.00 466.99 108.00 467.00 81.00 C 469.33 81.00 471.66 81.00 473.99 81.00 C 473.99 79.67 474.00 78.33 474.01 77.00 C 484.33 77.00 494.66 77.00 504.99 77.00 C 504.99 78.33 505.00 79.66 505.01 81.00 C 507.33 81.00 509.66 81.00 512.00 81.00 C 512.00 108.00 512.00 135.00 512.00 162.00 C 501.67 162.00 491.33 162.00 481.00 162.00 C 481.00 168.67 481.00 175.33 481.00 182.00 C 481.75 182.00 483.25 182.00 484.00 182.00 C 484.00 177.00 483.99 172.00 484.00 167.00 C 493.33 167.00 502.67 167.00 512.00 167.00 C 512.00 180.00 512.00 193.00 512.00 206.00 C 502.67 206.00 493.33 206.00 484.00 206.00 C 484.00 201.33 484.00 196.67 484.00 192.00 C 483.25 192.00 481.75 192.00 481.00 192.00 C 481.00 198.33 481.00 204.67 481.00 211.00 C 491.33 211.00 501.67 211.00 512.00 211.00 C 512.00 230.67 512.00 250.33 512.00 270.00 C 509.66 270.00 507.33 270.00 505.00 270.00 C 505.00 271.66 505.00 273.33 505.00 275.00 C 507.33 275.00 509.66 275.00 512.00 275.00 C 512.00 283.00 512.00 291.00 512.00 299.00 C 497.00 299.00 482.00 299.00 467.00 299.00 C 467.00 291.00 467.00 283.00 467.00 275.00 C 470.33 275.00 473.66 274.99 477.00 275.00 C 476.99 273.33 476.99 271.66 477.00 270.00 C 473.00 270.00 469.00 269.99 465.00 270.00 C 464.99 248.67 465.00 227.33 465.00 206.00 C 431.67 206.00 398.33 206.00 365.00 206.00 C 365.00 201.35 365.00 196.70 365.00 192.05 C 364.50 192.02 363.50 191.98 363.00 191.95 C 363.00 186.65 363.00 181.35 363.00 176.05 C 363.50 176.03 364.50 175.97 365.00 175.95 C 364.99 172.97 365.00 169.98 365.00 167.00 C 374.33 167.00 383.67 167.00 393.00 167.00 C 392.99 165.33 392.99 163.66 393.00 162.00 C 383.67 162.00 374.33 162.00 365.00 162.00 C 365.00 143.67 365.00 125.33 365.00 107.00 C 368.31 107.00 371.63 106.99 374.95 107.00 C 374.98 106.50 375.02 105.50 375.05 105.00 C 382.35 105.00 389.65 105.00 396.95 105.00 C 396.98 105.50 397.02 106.50 397.05 107.00 C 402.36 107.00 407.68 107.00 413.00 107.00 C 413.00 125.33 413.00 143.67 413.00 162.00 C 411.33 162.00 409.66 162.00 408.00 162.00 C 408.00 163.67 408.00 165.33 408.00 167.00 C 421.00 167.00 434.00 167.00 447.00 167.00 C 446.99 165.33 446.99 163.67 447.00 162.00 C 436.67 162.00 426.33 162.00 416.00 162.00 C 416.00 135.00 416.00 108.00 416.00 81.01 C 417.33 81.00 418.66 81.00 419.99 80.99 C 419.99 79.66 420.00 78.33 420.01 77.00 Z" />
<path fill="#000000" opacity="1.00" d=" M 365.00 211.00 C 379.33 211.00 393.67 211.00 408.00 211.00 C 408.00 216.00 408.00 221.00 408.00 226.00 C 408.75 226.00 410.25 226.00 411.00 226.00 C 411.00 221.00 410.99 216.00 411.00 211.00 C 428.00 211.00 445.00 211.00 462.00 211.00 C 462.00 239.00 462.00 267.00 462.00 295.00 C 459.99 295.00 457.99 295.00 456.00 295.00 C 456.00 296.66 456.00 298.33 456.00 300.00 C 457.99 300.00 459.99 300.00 462.00 300.00 C 462.00 308.00 462.00 316.00 462.00 324.00 C 449.67 324.00 437.33 324.00 425.00 324.00 C 424.99 316.00 425.00 308.01 425.00 300.01 C 425.75 300.01 427.25 299.99 428.00 299.99 C 427.99 298.33 427.99 296.67 428.00 295.02 C 426.04 294.99 424.09 294.97 422.14 294.95 C 418.85 288.95 415.51 282.98 412.17 277.01 C 410.99 275.23 410.97 273.06 410.97 271.02 C 411.02 260.34 410.99 249.67 411.00 239.00 C 410.25 239.00 408.75 239.00 408.00 239.00 C 407.99 250.67 408.02 262.34 407.98 274.02 C 407.79 277.73 410.80 280.44 412.34 283.57 C 414.74 288.07 418.04 292.17 419.91 296.91 C 420.14 308.26 419.93 319.63 420.00 331.00 C 414.35 331.00 408.70 331.00 403.05 331.00 C 403.02 331.50 402.98 332.50 402.95 333.00 C 393.65 333.00 384.35 333.00 375.05 333.00 C 375.02 332.50 374.98 331.50 374.95 331.00 C 371.63 331.00 368.32 330.99 365.00 331.00 C 365.00 313.33 365.00 295.67 365.00 278.00 C 375.00 278.00 385.00 278.00 395.00 278.00 C 395.00 270.33 395.00 262.67 395.00 255.00 C 394.25 255.00 392.75 255.00 392.00 255.00 C 391.99 261.67 392.00 268.33 392.00 275.00 C 383.00 275.00 374.00 275.00 365.00 275.00 C 365.00 264.67 365.00 254.33 365.00 244.00 C 373.98 244.00 382.97 244.00 391.95 244.00 C 391.98 244.50 392.02 245.50 392.05 246.00 C 392.79 246.00 394.26 246.00 395.00 246.00 C 394.99 244.33 394.99 242.66 395.00 241.00 C 385.00 240.99 375.00 241.00 365.00 241.00 C 365.00 238.67 365.00 236.34 365.00 234.02 C 364.25 234.01 362.75 233.99 362.00 233.98 C 362.00 228.33 362.00 222.67 362.00 217.01 C 362.75 217.01 364.25 216.99 365.00 216.99 C 365.00 214.99 365.00 212.99 365.00 211.00 Z" />
<path fill="#000000" opacity="1.00" d=" M 328.05 241.00 C 333.35 241.00 338.65 241.00 343.95 241.00 C 343.98 241.50 344.02 242.50 344.05 243.00 C 349.36 243.00 354.68 243.00 360.00 243.00 C 360.00 253.67 360.00 264.33 360.00 275.00 C 351.33 275.00 342.67 274.99 334.00 275.00 C 334.00 275.75 334.00 277.25 334.00 278.00 C 342.67 278.00 351.33 278.00 360.00 278.00 C 360.00 302.00 360.00 326.00 360.00 350.00 C 355.33 350.00 350.66 350.00 346.00 350.00 C 346.00 351.66 346.00 353.32 346.00 354.99 C 346.75 354.99 348.25 355.01 349.00 355.02 C 349.00 361.60 349.00 368.18 349.00 374.76 C 349.50 374.58 350.50 374.22 350.99 374.03 C 351.07 379.14 351.11 384.26 351.20 389.37 C 321.77 400.08 290.26 404.55 259.01 403.81 C 258.99 398.87 259.00 393.94 259.00 389.01 C 259.75 389.01 261.25 388.99 262.00 388.99 C 262.00 372.66 262.00 356.33 262.00 340.00 C 264.33 340.00 266.67 340.00 269.00 340.00 C 268.99 338.33 268.99 336.66 269.00 335.00 C 266.67 335.00 264.33 335.00 262.00 335.00 C 262.00 316.00 262.00 297.00 262.00 278.00 C 272.33 278.00 282.66 278.00 293.00 278.00 C 293.00 273.33 293.00 268.67 293.00 264.00 C 292.25 264.00 290.75 264.00 290.00 264.00 C 290.00 267.66 289.99 271.33 290.00 275.00 C 280.67 275.00 271.33 275.00 262.00 275.00 C 262.00 264.33 262.00 253.67 262.00 243.00 C 271.33 243.00 280.67 243.00 290.00 243.00 C 289.99 246.67 290.00 250.33 290.00 254.00 C 290.75 254.00 292.25 254.00 293.00 254.00 C 292.99 250.33 293.00 246.67 293.00 243.00 C 304.65 243.00 316.30 243.00 327.95 243.00 C 327.98 242.50 328.02 241.50 328.05 241.00 M 302.00 275.00 C 302.00 295.00 302.00 315.00 302.00 335.00 C 299.00 334.99 296.00 335.00 293.00 335.00 C 293.00 336.66 293.00 338.33 293.00 340.00 C 295.33 340.00 297.66 340.00 300.00 340.00 C 300.00 345.00 300.00 350.00 300.00 355.00 C 305.67 355.00 311.33 355.00 317.00 355.00 C 316.99 353.33 316.99 351.66 317.00 350.00 C 313.00 350.00 309.00 349.99 305.00 350.00 C 305.00 326.00 305.00 302.00 305.00 278.00 C 310.33 278.00 315.67 278.00 321.00 278.00 C 321.00 277.25 321.00 275.75 321.00 275.00 C 314.67 275.00 308.33 275.00 302.00 275.00 Z" />
</g>
</svg>
