<?xml version="1.0" encoding="UTF-8" ?>
<!DOCTYPE svg PUBLIC "-//W3C//DTD SVG 1.1//EN" "http://www.w3.org/Graphics/SVG/1.1/DTD/svg11.dtd">
<svg width="535pt" height="221pt" viewBox="0 0 535 221" version="1.1" xmlns="http://www.w3.org/2000/svg">
<g id="#000000ff">
<path fill="#000000" opacity="1.00" d=" M 372.00 1.00 C 379.67 1.00 387.33 1.00 395.00 1.00 C 395.00 5.33 395.00 9.67 395.00 14.00 C 391.33 14.00 387.66 14.00 384.00 14.00 C 384.00 14.75 384.00 16.25 384.00 17.00 C 385.99 17.00 387.99 17.00 390.00 17.00 C 389.99 18.33 390.00 19.67 390.01 21.00 C 391.66 21.00 393.33 21.00 395.00 21.00 C 395.00 35.00 395.00 49.00 395.00 63.00 C 387.00 63.00 379.00 63.00 371.00 63.00 C 371.00 66.00 371.00 69.00 371.00 72.00 C 368.00 72.00 365.00 72.00 362.00 72.00 C 362.00 72.50 362.00 73.50 362.00 74.00 C 364.98 74.00 367.97 74.00 370.95 74.00 C 370.98 74.50 371.02 75.50 371.05 76.00 C 371.53 76.00 372.51 76.00 373.00 76.00 C 373.00 72.33 373.00 68.67 373.00 65.00 C 380.33 65.00 387.67 65.00 395.00 65.00 C 395.00 74.00 395.00 83.00 395.00 92.00 C 387.67 92.00 380.33 92.00 373.00 92.00 C 373.00 89.33 373.00 86.66 373.00 84.00 C 372.50 84.00 371.50 84.00 371.00 84.00 C 371.00 86.67 371.00 89.33 371.00 92.00 C 367.66 92.00 364.33 92.00 361.00 92.00 C 361.00 93.67 360.99 95.33 361.00 97.00 C 356.66 97.00 352.33 97.00 348.00 97.00 C 348.00 95.33 347.99 93.67 348.00 92.00 C 344.00 92.00 340.00 92.00 336.00 92.00 C 336.00 86.00 336.00 80.00 336.00 74.00 C 339.33 74.00 342.67 74.00 346.00 74.00 C 346.00 73.50 346.00 72.50 346.00 72.00 C 342.67 72.00 339.33 72.00 336.00 72.00 C 336.00 50.33 336.00 28.67 336.00 7.01 C 337.33 7.00 338.66 7.00 340.00 7.00 C 339.99 5.66 340.00 4.33 340.00 3.00 C 347.33 3.00 354.66 3.00 362.00 3.00 C 361.99 4.33 361.99 5.66 362.00 6.99 C 362.75 6.99 364.25 7.01 365.00 7.01 C 365.00 11.68 365.00 16.34 365.00 21.00 C 368.00 21.00 371.00 21.00 374.00 21.00 C 374.00 18.68 374.00 16.36 374.00 14.04 C 373.50 14.02 372.50 13.98 372.00 13.96 C 372.00 9.64 372.00 5.32 372.00 1.00 Z" />
<path fill="#000000" opacity="1.00" d=" M 141.00 2.00 C 148.67 2.00 156.33 2.00 164.00 2.00 C 164.00 6.00 164.00 9.99 164.00 13.99 C 163.25 13.99 161.75 14.01 161.00 14.01 C 161.00 16.01 161.00 18.00 161.00 20.00 C 164.33 20.00 167.67 20.00 171.00 20.00 C 171.00 15.67 171.00 11.34 171.00 7.01 C 171.75 7.01 173.25 6.99 174.00 6.99 C 174.00 5.66 174.00 4.33 174.00 3.00 C 180.67 3.00 187.33 3.00 193.99 3.00 C 194.00 4.33 194.00 5.66 194.01 7.00 C 195.67 7.00 197.33 7.00 199.00 7.00 C 199.00 29.67 199.00 52.33 199.00 75.00 C 195.33 75.00 191.66 75.00 188.00 75.00 C 188.00 75.50 188.00 76.50 188.00 77.00 C 191.67 77.00 195.33 77.00 199.00 77.00 C 199.00 82.67 199.00 88.33 199.00 94.00 C 195.00 94.00 191.01 94.00 187.01 94.00 C 187.01 94.75 186.99 96.25 186.99 97.00 C 182.66 97.00 178.34 97.00 174.01 97.00 C 174.01 96.25 173.99 94.75 173.99 94.00 C 170.66 94.00 167.33 94.00 164.00 94.00 C 164.00 91.67 164.00 89.33 164.00 87.00 C 163.50 87.00 162.50 87.00 162.00 87.00 C 162.00 89.33 162.00 91.67 162.00 94.00 C 155.00 94.00 148.00 94.00 141.00 94.00 C 141.00 84.67 141.00 75.33 141.00 66.00 C 148.00 66.00 155.00 66.00 162.00 66.00 C 162.00 70.11 161.98 74.21 162.03 78.32 C 162.67 78.01 163.93 77.39 164.56 77.08 C 167.04 77.00 169.52 76.98 172.00 76.99 C 172.00 76.49 172.00 75.50 172.00 75.00 C 169.33 75.00 166.67 75.00 164.00 75.00 C 164.00 71.33 164.00 67.67 164.00 64.00 C 156.33 64.00 148.67 64.00 141.00 64.00 C 141.00 50.67 141.00 37.34 141.00 24.00 C 142.33 24.00 143.66 24.00 144.99 24.00 C 145.00 22.67 145.00 21.33 145.00 20.00 C 147.34 20.00 149.67 20.00 152.00 20.00 C 152.00 19.50 152.00 18.51 152.00 18.02 C 149.46 17.88 146.68 18.56 144.38 17.16 C 143.25 17.07 142.13 17.00 141.00 16.94 C 141.00 11.96 141.00 6.98 141.00 2.00 Z" />
<path fill="#000000" opacity="1.00" d=" M 47.01 3.00 C 54.00 3.00 61.00 3.00 67.99 3.00 C 68.00 4.33 68.00 5.67 68.01 7.00 C 70.34 7.00 72.67 7.00 75.00 7.00 C 75.00 16.00 74.99 25.00 75.00 34.00 C 75.50 34.00 76.50 34.00 77.00 34.00 C 77.01 25.00 76.99 16.00 77.00 7.00 C 86.00 7.00 94.99 7.00 103.99 7.00 C 103.99 5.67 104.00 4.33 104.01 3.00 C 110.67 3.00 117.33 3.00 123.99 3.00 C 123.99 4.33 124.00 5.67 124.01 7.00 C 127.34 7.00 130.67 7.00 134.00 7.00 C 134.00 23.00 134.00 39.00 134.00 55.00 C 122.33 55.00 110.67 54.99 99.00 55.00 C 99.00 55.50 99.00 56.50 99.00 57.00 C 102.66 57.00 106.33 57.00 110.00 57.00 C 110.00 60.67 110.00 64.33 110.00 68.00 C 110.50 68.00 111.50 68.00 112.00 68.00 C 112.00 64.33 112.00 60.67 112.00 57.00 C 119.33 57.00 126.67 57.00 134.00 57.00 C 134.00 64.67 134.00 72.33 134.00 80.00 C 126.67 80.00 119.34 80.00 112.01 80.00 C 112.00 78.67 111.99 77.33 111.98 76.00 C 111.49 76.00 110.50 76.00 110.00 76.00 C 110.00 78.00 110.00 80.00 110.00 82.00 C 118.00 82.00 126.00 82.00 134.00 82.00 C 134.00 86.00 134.00 90.00 134.00 94.00 C 126.68 94.00 119.35 94.00 112.03 94.00 C 112.02 93.25 111.98 91.75 111.97 91.00 C 111.48 91.00 110.51 91.00 110.02 91.00 C 110.01 91.73 110.00 93.18 110.00 93.91 C 109.50 93.95 108.50 94.05 108.00 94.09 C 108.00 95.73 108.00 97.36 108.00 99.00 C 103.67 99.00 99.34 99.00 95.01 99.00 C 95.00 97.33 95.00 95.67 94.99 94.00 C 92.33 94.00 89.66 94.00 87.00 94.00 C 87.00 88.00 87.00 82.00 87.00 76.00 C 86.50 76.00 85.50 76.00 85.00 76.00 C 85.00 82.00 85.00 88.00 85.00 94.00 C 66.33 94.00 47.67 94.00 29.00 94.00 C 29.00 91.33 29.00 88.67 29.00 86.01 C 27.33 86.00 25.67 86.00 24.00 85.99 C 24.00 81.66 24.00 77.33 24.00 73.00 C 23.50 73.00 22.50 73.00 22.00 73.00 C 21.99 86.00 22.01 99.00 22.00 112.00 C 14.67 112.00 7.33 112.00 0.00 112.00 L 0.00 45.00 C 7.33 45.00 14.67 45.00 22.00 45.00 C 22.00 51.33 22.00 57.67 22.00 64.00 C 24.33 64.00 26.66 64.00 29.00 64.00 C 29.00 61.33 29.00 58.67 29.00 56.00 C 47.67 56.00 66.33 56.00 85.00 56.00 C 85.00 58.33 85.00 60.67 85.01 63.00 C 85.50 63.00 86.50 63.00 87.00 63.00 C 87.00 60.70 87.00 58.40 87.00 56.09 C 87.50 56.05 88.50 55.95 89.01 55.91 C 89.00 55.18 89.00 53.73 89.00 53.00 C 85.00 53.00 81.00 53.00 77.00 53.00 C 77.00 50.33 77.00 47.67 76.99 45.00 C 76.50 45.00 75.50 45.00 75.01 45.00 C 75.00 47.66 75.00 50.33 75.00 53.00 C 59.66 53.00 44.33 53.00 29.00 53.00 C 29.00 37.67 29.00 22.33 29.00 7.00 C 35.00 7.00 40.99 7.00 46.99 7.00 C 47.00 5.67 47.00 4.33 47.01 3.00 Z" />
<path fill="#000000" opacity="1.00" d=" M 412.01 3.00 C 418.67 3.00 425.33 3.00 431.99 3.00 C 431.99 4.33 432.00 5.67 432.01 7.00 C 440.67 7.00 449.34 7.00 458.00 7.00 C 458.00 15.33 457.99 23.67 458.00 32.00 C 458.50 32.00 459.50 32.00 460.00 32.00 C 460.01 23.67 459.99 15.33 460.00 7.00 C 462.66 7.00 465.32 7.00 467.99 7.00 C 467.99 5.67 468.00 4.33 468.01 3.00 C 475.00 3.00 482.00 3.00 488.99 3.00 C 488.99 4.33 489.00 5.67 489.01 7.00 C 494.67 7.00 500.33 7.00 506.00 7.00 C 506.00 22.00 506.00 37.00 506.00 52.00 C 490.67 52.00 475.33 52.00 460.00 52.00 C 460.00 49.00 459.99 46.00 460.00 43.00 C 459.50 43.00 458.50 43.00 458.01 43.00 C 458.00 46.00 458.00 49.00 458.00 52.00 C 454.27 52.00 450.55 52.00 446.83 52.00 C 447.73 55.26 448.15 58.62 448.10 62.00 C 448.82 62.00 450.27 62.00 450.99 62.00 C 450.99 59.67 451.00 57.33 451.00 55.00 C 469.67 55.00 488.33 55.00 507.00 55.00 C 506.99 57.33 507.00 59.67 507.00 62.00 C 509.00 62.00 510.99 62.00 513.00 62.00 C 513.00 56.67 513.00 51.33 513.00 46.00 C 520.33 46.00 527.67 46.00 535.00 46.00 L 535.00 113.00 C 527.67 113.00 520.33 113.00 513.00 113.00 C 513.00 103.00 513.00 93.00 513.00 83.00 C 510.99 83.00 509.00 83.00 507.00 83.00 C 507.00 86.00 507.00 89.00 507.00 92.00 C 488.33 92.00 469.67 92.00 451.00 92.00 C 451.00 86.00 451.00 80.00 451.00 74.00 C 450.25 74.00 448.75 74.00 448.00 74.00 C 448.00 80.00 448.00 86.00 448.00 92.00 C 445.01 92.00 442.02 92.00 439.03 92.00 C 439.01 92.75 438.99 94.25 438.97 95.00 C 434.98 95.00 431.00 95.00 427.02 95.00 C 427.01 94.27 427.00 92.82 427.00 92.09 C 426.50 92.05 425.50 91.95 425.00 91.91 C 424.99 90.60 424.99 89.30 424.99 88.00 C 424.25 88.00 422.77 88.00 422.03 88.00 C 422.01 88.75 421.99 90.25 421.97 91.00 C 415.31 91.00 408.66 91.00 402.00 91.00 C 402.00 87.00 402.00 83.00 402.00 79.00 C 409.67 79.00 417.33 79.00 425.00 79.00 C 424.99 77.33 424.99 75.67 425.00 74.00 C 424.26 74.00 422.77 74.00 422.03 74.00 C 422.02 74.75 421.98 76.25 421.97 77.00 C 415.31 77.00 408.66 77.00 402.00 77.00 C 402.00 69.67 402.00 62.33 402.00 55.00 C 408.67 55.00 415.33 55.00 422.00 55.00 C 422.00 58.33 422.00 61.67 422.00 65.00 C 422.75 65.00 424.25 65.00 425.00 65.00 C 425.00 61.67 425.00 58.33 425.00 55.00 C 428.67 55.00 432.33 55.00 436.00 55.00 C 436.00 54.25 436.00 52.75 436.00 52.00 C 424.67 51.99 413.33 52.01 402.00 52.00 C 402.00 37.00 402.00 22.00 402.00 7.00 C 405.33 7.00 408.66 7.00 411.99 7.00 C 411.99 5.67 412.00 4.33 412.01 3.00 Z" />
<path fill="#000000" opacity="1.00" d=" M 452.00 99.00 C 470.33 99.00 488.67 99.00 507.00 99.00 C 507.00 107.67 507.00 116.33 507.00 125.00 C 497.33 125.00 487.67 125.00 478.00 125.00 C 478.00 120.33 478.00 115.66 478.00 111.00 C 477.50 111.00 476.50 111.00 476.00 111.00 C 476.00 115.66 476.00 120.33 476.00 125.00 C 473.99 125.00 472.00 125.00 470.00 125.00 C 470.00 133.34 469.99 141.67 470.00 150.00 C 470.50 150.00 471.50 150.00 472.00 150.00 C 472.00 144.00 472.00 138.00 472.00 132.00 C 483.67 132.00 495.33 132.00 507.00 132.00 C 507.00 140.00 506.99 148.00 507.00 156.00 C 508.99 156.00 510.99 156.00 513.00 156.00 C 513.00 142.00 513.00 128.00 513.00 114.00 C 520.33 114.00 527.67 114.00 535.00 114.00 L 535.00 181.00 C 527.67 181.00 520.33 181.00 513.00 181.00 C 513.00 179.00 512.99 177.00 513.00 175.00 C 510.99 175.00 509.00 175.00 507.01 175.00 C 507.00 176.33 506.99 177.66 506.99 179.00 C 493.33 179.00 479.66 179.00 466.00 179.00 C 466.00 173.33 466.00 167.67 466.00 162.00 C 465.50 162.00 464.50 162.00 464.00 162.00 C 463.68 168.33 464.89 174.85 462.98 181.02 C 477.65 180.98 492.32 181.01 507.00 181.00 C 507.00 192.33 507.00 203.67 507.00 215.00 C 500.34 215.00 493.68 215.00 487.03 215.00 C 487.01 215.75 486.99 217.25 486.97 218.00 C 480.32 218.00 473.68 218.00 467.03 218.00 C 467.01 217.25 466.99 215.75 466.97 215.00 C 460.98 215.00 454.99 215.00 449.00 215.00 C 449.00 187.33 449.00 159.67 449.00 132.00 C 452.00 132.00 455.00 132.00 458.00 132.00 C 458.00 129.66 458.00 127.33 458.00 125.00 C 456.00 125.00 454.00 125.00 452.00 125.00 C 452.00 116.33 452.00 107.67 452.00 99.00 Z" />
<path fill="#000000" opacity="1.00" d=" M 0.00 113.00 C 7.33 113.00 14.67 113.00 22.00 113.00 C 22.00 130.67 21.99 148.34 22.00 166.00 C 22.50 166.00 23.50 166.00 24.00 166.00 C 24.00 162.00 24.00 158.00 24.00 154.01 C 25.67 154.00 27.33 154.00 29.00 153.99 C 29.00 146.66 29.00 139.33 29.00 132.00 C 40.00 132.00 51.00 132.00 62.00 132.00 C 62.00 137.67 62.00 143.33 62.00 149.00 C 62.75 149.00 64.25 149.00 65.00 149.00 C 65.00 142.67 65.00 136.33 65.00 130.00 C 68.97 130.00 72.94 130.00 76.90 130.00 C 76.95 130.50 77.05 131.50 77.10 132.00 C 79.73 132.00 82.36 132.00 85.00 132.00 C 85.00 159.33 85.00 186.67 85.00 214.00 C 78.67 214.00 72.34 214.00 66.01 214.00 C 66.00 215.33 66.00 216.66 65.99 218.00 C 59.00 218.00 52.00 218.00 45.01 218.00 C 45.00 216.66 45.00 215.33 44.99 214.00 C 39.66 214.00 34.33 214.00 29.00 214.00 C 29.00 202.67 29.00 191.33 29.00 180.00 C 43.01 180.01 57.01 179.98 71.02 180.01 C 69.07 173.52 70.36 166.66 69.99 160.00 C 69.50 160.00 68.50 160.00 68.00 160.00 C 68.00 166.00 68.00 172.00 68.00 178.00 C 55.03 178.00 42.06 178.00 29.10 178.00 C 29.05 177.50 28.95 176.50 28.90 176.00 C 26.63 176.00 24.36 176.00 22.09 176.00 C 22.05 176.50 21.95 177.50 21.91 178.00 C 14.60 178.00 7.30 178.00 0.00 178.00 L 0.00 113.00 Z" />
<path fill="#000000" opacity="1.00" d=" M 306.01 128.00 C 310.00 128.00 313.99 128.00 317.99 128.00 C 317.99 129.33 318.00 130.67 318.01 132.00 C 322.34 132.00 326.67 132.00 331.00 132.00 C 331.00 137.33 331.00 142.67 331.00 148.00 C 326.66 148.00 322.33 148.00 318.00 148.00 C 318.00 148.50 318.00 149.50 318.00 150.00 C 322.33 150.00 326.66 150.00 331.00 150.00 C 331.00 171.33 331.00 192.66 331.00 214.00 C 328.66 214.00 326.33 214.00 324.00 214.00 C 324.00 216.33 324.00 218.67 324.00 221.00 L 304.00 221.00 C 304.00 218.67 304.00 216.34 304.00 214.01 C 302.66 214.00 301.33 213.99 300.00 213.99 C 300.00 209.32 300.00 204.66 300.00 200.00 C 297.00 200.00 294.00 200.00 291.00 200.00 C 291.00 202.30 291.00 204.60 290.99 206.91 C 291.50 206.95 292.50 207.05 293.00 207.09 C 293.00 211.39 293.00 215.70 293.00 220.00 C 284.67 220.00 276.33 220.00 268.00 220.00 C 268.00 215.67 268.00 211.33 268.00 207.00 C 273.00 207.00 278.00 207.00 283.00 207.00 C 283.00 206.50 283.00 205.50 283.00 205.01 C 280.33 205.00 277.67 205.00 275.00 205.00 C 275.00 203.33 275.00 201.67 275.00 200.01 C 273.66 200.00 272.33 199.99 271.00 199.99 C 271.00 186.99 271.00 174.00 271.00 161.00 C 278.67 161.00 286.33 161.00 294.00 161.00 C 294.00 157.33 294.00 153.67 294.00 150.00 C 297.00 150.00 300.00 150.00 303.00 150.00 C 303.00 149.50 303.00 148.50 303.00 148.00 C 300.03 148.00 297.06 148.00 294.09 148.00 C 294.05 147.50 293.95 146.50 293.91 146.00 C 293.43 146.00 292.48 146.00 292.00 146.00 C 292.00 150.33 292.00 154.66 292.00 159.00 C 285.00 159.00 278.00 159.00 271.00 159.00 C 271.00 150.00 271.00 141.00 271.00 132.00 C 278.00 132.00 285.00 132.00 291.99 132.00 C 292.00 134.00 292.00 136.00 292.01 138.00 C 292.50 138.00 293.50 138.00 293.99 138.00 C 293.99 136.00 294.00 134.00 294.01 132.00 C 298.00 132.00 301.99 132.00 305.99 132.00 C 305.99 130.67 306.00 129.33 306.01 128.00 Z" />
<path fill="#000000" opacity="1.00" d=" M 174.03 129.00 C 178.01 129.00 181.99 129.00 185.97 129.00 C 185.99 129.75 186.01 131.25 186.03 132.00 C 191.02 132.00 196.01 132.00 201.00 132.00 C 201.00 137.33 201.00 142.67 201.00 148.00 C 196.66 148.00 192.33 148.00 188.00 148.00 C 188.00 148.50 188.00 149.50 188.00 150.00 C 192.33 150.00 196.66 150.00 201.00 150.00 C 201.00 171.33 201.00 192.66 201.00 214.00 C 198.66 214.00 196.33 214.00 194.00 214.00 C 194.00 216.33 194.00 218.67 194.00 221.00 L 173.00 221.00 C 173.00 218.67 173.00 216.35 173.00 214.03 C 172.25 214.01 170.75 213.98 170.00 213.97 C 170.00 209.31 170.00 204.66 170.00 200.00 C 167.00 200.00 164.00 200.00 161.00 200.00 C 161.00 202.32 161.00 204.65 161.00 206.97 C 161.75 206.99 163.25 207.01 164.00 207.03 C 164.00 211.35 164.00 215.67 164.00 220.00 C 156.33 220.00 148.67 220.00 141.00 220.00 C 141.00 215.67 141.00 211.33 141.00 207.00 C 144.67 207.00 148.33 207.00 152.00 207.00 C 152.00 206.50 152.00 205.50 152.00 205.01 C 149.67 205.00 147.34 205.00 145.00 205.00 C 145.00 203.33 145.00 201.67 145.00 200.01 C 143.66 200.00 142.33 199.99 141.00 199.99 C 141.00 186.99 141.00 174.00 141.00 161.00 C 148.33 161.00 155.67 161.00 163.00 161.00 C 163.00 157.33 163.00 153.67 163.00 150.00 C 166.00 150.00 169.00 150.00 172.00 149.99 C 172.00 149.50 172.00 148.52 172.00 148.02 C 168.30 148.11 164.54 148.18 160.98 146.98 C 161.01 150.98 161.00 154.99 161.00 159.00 C 154.33 159.00 147.67 159.00 141.00 159.00 C 141.00 150.00 141.00 141.00 141.00 132.00 C 147.67 132.00 154.33 132.00 160.99 132.00 C 161.00 134.00 161.00 136.00 161.01 138.00 C 161.50 138.00 162.50 138.00 162.99 138.00 C 162.99 136.00 163.00 134.00 163.01 132.00 C 166.66 132.00 170.31 132.00 173.97 132.00 C 173.99 131.25 174.02 129.75 174.03 129.00 Z" />
<path fill="#000000" opacity="1.00" d=" M 216.03 129.00 C 220.01 129.00 223.99 129.00 227.97 129.00 C 227.99 129.75 228.01 131.25 228.03 132.00 C 232.35 132.00 236.67 132.00 240.99 132.00 C 241.00 134.00 241.00 136.00 241.01 138.00 C 241.50 138.00 242.50 138.00 242.99 138.00 C 242.99 136.00 243.00 134.00 243.00 132.00 C 250.00 132.00 257.00 132.00 264.00 132.00 C 264.00 141.00 264.00 150.00 264.00 159.00 C 257.00 159.00 250.00 159.00 243.00 159.00 C 243.00 154.66 243.00 150.33 243.00 146.00 C 242.52 146.00 241.57 146.00 241.10 146.00 C 241.05 146.50 240.95 147.50 240.91 148.00 C 237.94 148.00 234.97 148.00 232.00 148.00 C 232.00 148.50 232.00 149.50 232.00 150.00 C 235.00 150.00 238.00 150.00 241.00 150.00 C 241.00 153.67 241.00 157.33 241.00 161.00 C 248.67 161.00 256.33 161.00 264.00 161.00 C 264.00 174.00 264.00 187.00 264.00 200.00 C 262.00 200.00 260.00 200.00 258.00 200.00 C 258.00 201.67 257.99 203.33 257.99 205.00 C 255.66 205.00 253.33 205.00 251.00 205.01 C 251.00 205.50 251.00 206.50 251.00 207.00 C 256.00 207.00 261.00 207.00 266.00 207.00 C 266.00 211.33 266.00 215.66 266.00 220.00 C 257.33 220.00 248.67 220.00 240.00 220.00 C 240.00 215.70 240.00 211.39 240.00 207.09 C 240.50 207.05 241.50 206.95 242.01 206.91 C 242.00 204.60 242.00 202.30 242.00 200.00 C 239.00 200.00 236.00 200.00 233.00 200.00 C 233.00 204.66 233.00 209.31 233.00 213.97 C 232.25 213.99 230.75 214.01 230.00 214.03 C 230.00 216.35 230.00 218.67 230.00 221.00 L 209.00 221.00 C 209.00 218.67 209.00 216.33 209.00 214.00 C 207.00 214.00 205.00 214.00 203.00 214.00 C 203.00 192.66 203.00 171.33 203.00 150.00 C 207.33 150.00 211.67 150.00 216.00 150.00 C 216.00 149.50 216.00 148.50 216.00 148.00 C 211.67 148.00 207.33 148.00 203.00 148.00 C 203.00 142.67 203.00 137.33 203.00 132.00 C 207.32 132.00 211.65 132.00 215.97 132.00 C 215.99 131.25 216.01 129.75 216.03 129.00 Z" />
<path fill="#000000" opacity="1.00" d=" M 427.01 129.00 C 431.00 129.00 434.99 129.00 438.99 129.00 C 438.99 129.75 439.01 131.25 439.01 132.00 C 441.67 132.00 444.33 132.00 447.00 132.00 C 447.00 137.33 447.00 142.66 447.00 148.00 C 444.33 148.00 441.66 148.00 439.00 148.00 C 439.00 148.50 439.00 149.50 439.00 150.00 C 441.66 150.00 444.33 150.00 447.00 150.00 C 447.00 166.67 447.00 183.33 447.00 200.00 C 442.14 200.10 437.26 199.80 432.41 200.10 C 429.82 201.84 431.38 205.40 431.00 208.00 C 434.99 208.00 439.00 208.00 443.00 208.00 C 443.00 212.00 443.00 216.00 443.00 220.00 C 427.33 220.00 411.67 220.00 396.00 220.00 C 396.00 216.00 396.00 212.00 396.00 208.00 C 400.67 208.00 405.33 208.00 410.00 208.00 C 410.00 205.67 410.00 203.33 410.00 201.00 C 406.66 201.00 403.33 201.00 400.00 201.00 C 400.00 187.67 400.00 174.33 400.00 161.00 C 408.00 161.00 416.00 161.00 424.00 161.00 C 424.00 157.34 424.00 153.67 424.00 150.01 C 424.75 150.01 426.25 149.99 427.00 149.98 C 427.00 149.50 427.00 148.54 427.00 148.06 C 426.39 148.01 425.16 147.92 424.55 147.87 C 423.92 147.58 422.66 146.99 422.03 146.69 C 421.98 150.79 422.00 154.90 422.00 159.00 C 414.67 159.00 407.33 159.00 400.00 159.00 C 400.00 150.00 400.00 141.00 400.00 132.00 C 407.33 132.00 414.66 132.00 422.00 132.00 C 421.99 134.00 422.00 136.00 422.01 138.00 C 422.50 138.00 423.50 138.00 424.00 138.00 C 423.99 136.00 423.99 134.01 424.00 132.01 C 424.75 132.01 426.24 132.00 426.99 131.99 C 427.00 131.24 427.01 129.75 427.01 129.00 Z" />
<path fill="#000000" opacity="1.00" d=" M 95.05 130.00 C 99.01 130.00 102.98 130.00 106.95 130.00 C 106.98 130.50 107.02 131.50 107.05 132.00 C 107.78 132.00 109.26 132.00 110.00 132.01 C 110.00 133.67 110.00 135.33 110.01 137.00 C 110.50 137.00 111.50 137.00 111.99 137.00 C 112.00 135.33 112.00 133.67 112.00 132.00 C 119.34 132.00 126.67 132.00 134.00 132.00 C 134.00 141.00 134.00 150.00 134.00 159.00 C 126.67 159.00 119.33 159.00 112.00 159.00 C 112.00 154.66 112.00 150.33 112.00 146.00 C 111.51 146.00 110.53 146.00 110.04 146.00 C 110.02 146.49 109.99 147.48 109.97 147.97 C 109.48 147.99 108.49 148.02 108.00 148.04 C 108.00 148.52 108.00 149.48 108.00 149.95 C 108.50 149.98 109.50 150.02 110.00 150.04 C 110.00 153.70 110.00 157.35 110.00 161.00 C 118.00 161.00 126.00 161.00 134.00 161.00 C 134.00 174.00 134.00 187.00 134.00 200.00 C 130.67 200.00 127.34 200.00 124.01 200.00 C 124.01 200.75 123.99 202.25 123.99 203.00 C 119.66 203.00 115.33 203.00 111.00 203.00 C 111.00 203.75 111.00 205.25 111.00 206.00 C 115.50 206.44 120.40 204.98 124.62 206.87 C 129.74 207.14 134.87 206.94 140.00 207.00 C 140.00 211.33 140.00 215.67 140.00 220.00 C 124.00 220.00 108.00 220.00 92.00 220.00 C 92.00 215.66 92.00 211.33 92.00 207.00 C 95.33 207.00 98.67 207.00 102.00 207.00 C 102.00 204.66 102.00 202.33 102.00 200.00 C 97.00 200.00 92.00 200.00 87.00 200.00 C 87.00 183.33 87.00 166.67 87.00 150.00 C 89.67 150.00 92.33 150.00 95.00 150.00 C 95.00 149.50 95.00 148.50 95.00 148.00 C 92.33 148.00 89.67 148.00 87.00 148.00 C 87.00 142.66 87.00 137.33 87.00 132.00 C 89.65 132.00 92.30 132.00 94.95 132.00 C 94.98 131.50 95.02 130.50 95.05 130.00 Z" />
<path fill="#000000" opacity="1.00" d=" M 348.05 130.00 C 352.35 130.00 356.65 130.00 360.95 130.00 C 360.98 130.50 361.02 131.50 361.05 132.00 C 364.36 132.00 367.68 132.00 371.00 132.00 C 371.00 134.00 371.00 136.00 371.00 138.00 C 371.50 138.00 372.50 138.00 372.99 138.00 C 372.99 136.00 373.00 134.00 373.00 132.00 C 379.67 132.00 386.33 132.00 393.00 132.00 C 393.00 141.00 393.00 150.00 393.00 159.00 C 386.33 159.00 379.67 159.00 373.00 159.00 C 373.00 154.67 373.00 150.33 373.00 146.00 C 372.51 146.00 371.53 146.00 371.05 146.00 C 371.02 146.50 370.98 147.50 370.96 148.00 C 367.97 148.00 364.98 148.00 362.00 148.00 C 362.00 148.50 362.00 149.50 362.00 150.00 C 365.00 150.00 368.00 150.00 371.00 150.00 C 371.00 153.67 371.00 157.33 371.00 161.00 C 378.33 161.00 385.67 161.00 393.00 161.00 C 393.00 174.33 393.00 187.66 393.00 201.00 C 391.66 201.00 390.33 201.00 389.00 201.00 C 389.00 203.33 389.00 205.66 389.00 208.00 C 390.66 208.00 392.33 208.00 394.00 208.00 C 394.00 212.00 394.00 216.00 394.00 220.00 C 386.00 220.00 378.00 220.00 370.00 220.00 C 370.00 216.01 370.00 212.03 370.00 208.04 C 370.50 208.02 371.50 207.98 372.00 207.96 C 372.00 205.64 372.00 203.32 372.00 201.00 C 369.33 201.00 366.66 201.00 364.00 201.00 C 364.00 205.33 364.00 209.66 364.00 214.00 C 362.66 214.00 361.33 214.00 360.00 214.00 C 360.00 215.33 359.99 216.66 360.00 218.00 C 353.33 218.00 346.67 218.00 340.00 218.00 C 340.00 216.66 339.99 215.33 340.00 214.00 C 337.66 214.00 335.33 214.00 333.00 214.00 C 333.00 192.67 333.00 171.33 333.00 150.00 C 337.67 150.00 342.33 150.00 347.00 150.00 C 347.00 149.50 347.00 148.50 347.00 148.00 C 342.33 148.00 337.67 148.00 333.00 148.00 C 333.00 142.67 333.00 137.33 333.00 132.00 C 337.98 132.00 342.97 132.00 347.95 132.00 C 347.98 131.50 348.02 130.50 348.05 130.00 Z" />
</g>
</svg>
